<svg width="26" height="26" viewBox="0 0 26 26" fill="none" xmlns="http://www.w3.org/2000/svg">
<path d="M26 13C26 5.81956 20.1804 0 13 0C5.81956 0 0 5.81956 0 13C0 19.4899 4.75312 24.8676 10.9688 25.8426V16.7578H7.66794V13H10.9688V10.1359C10.9688 6.8783 12.9086 5.07813 15.8793 5.07813C17.3012 5.07813 18.7891 5.33203 18.7891 5.33203V8.53125H17.1488C15.534 8.53125 15.0313 9.5342 15.0313 10.5625V13H18.6367L18.0604 16.7578H15.0313V25.8426C21.2469 24.8676 26 19.4899 26 13Z" fill="#1877F2"/>
<path d="M18.0604 16.7578L18.6367 13H15.0313V10.5625C15.0313 9.5342 15.534 8.53125 17.1489 8.53125H18.7891V5.33203C18.7891 5.33203 17.3012 5.07812 15.8793 5.07812C12.9086 5.07812 10.9688 6.8783 10.9688 10.1359V13H7.66797V16.7578H10.9688V25.8426C11.6315 25.9467 12.3094 26 13 26C13.6907 26 14.3686 25.9467 15.0313 25.8426V16.7578H18.0604Z" fill="white"/>
</svg>
