<svg width="18" height="20" viewBox="0 0 18 20" fill="none" xmlns="http://www.w3.org/2000/svg">
<path d="M17.3629 17.5213L16.9583 16.3075C16.7889 15.7991 16.5124 15.3328 16.1475 14.9403C15.7826 14.5478 15.3377 14.2381 14.8429 14.0321L13.0854 13.2996L14.9187 12.9075C14.988 12.8926 15.0524 12.8602 15.1057 12.8135C15.1589 12.7668 15.1994 12.7072 15.2233 12.6405C15.2472 12.5737 15.2536 12.502 15.242 12.4321C15.2304 12.3621 15.2012 12.2963 15.1571 12.2408C14.5747 11.5149 14.2039 10.6423 14.0854 9.71918C14.2909 9.58401 14.4638 9.40472 14.5914 9.19443C14.719 8.9841 14.7982 8.74797 14.8232 8.50326C14.8482 8.25851 14.8183 8.01126 14.7358 7.77951C14.6533 7.54776 14.5202 7.33726 14.3462 7.16335C14.5372 6.3563 14.5431 5.51651 14.3634 4.70685C14.1837 3.89722 13.823 3.13876 13.3085 2.4883C12.794 1.83785 12.139 1.31226 11.3925 0.950938C10.646 0.589613 9.82744 0.401917 8.99811 0.401917C8.16878 0.401917 7.35019 0.589613 6.60369 0.950938C5.85719 1.31226 5.20215 1.83785 4.68765 2.4883C4.1732 3.13876 3.81257 3.89722 3.63286 4.70685C3.45315 5.51651 3.45899 6.3563 3.64999 7.16335C3.47611 7.33751 3.3432 7.54818 3.26082 7.7801C3.17845 8.01197 3.14867 8.25926 3.1737 8.5041C3.1987 8.74893 3.27786 8.9851 3.4054 9.19555C3.53299 9.40601 3.70574 9.58543 3.91124 9.72085C3.79274 10.644 3.42195 11.5166 2.83957 12.2425C2.79545 12.298 2.76621 12.3638 2.75462 12.4337C2.74303 12.5037 2.74947 12.5754 2.77333 12.6421C2.79719 12.7089 2.83768 12.7684 2.89098 12.8152C2.94427 12.8619 3.00861 12.8943 3.0779 12.9092L4.91124 13.3013L3.15707 14.0317C2.6623 14.2378 2.21747 14.5476 1.85256 14.9402C1.48765 15.3328 1.21113 15.799 1.04165 16.3075L0.637067 17.5213C0.574408 17.7092 0.5573 17.9093 0.587158 18.1051C0.617012 18.3009 0.692979 18.4868 0.808791 18.6475C0.9246 18.8082 1.07694 18.9391 1.25326 19.0293C1.42958 19.1196 1.62482 19.1667 1.8229 19.1667H16.1771C16.3752 19.1667 16.5704 19.1196 16.7467 19.0293C16.923 18.9391 17.0754 18.8082 17.1912 18.6475C17.307 18.4868 17.3829 18.3009 17.4128 18.1051C17.4427 17.9093 17.4256 17.7092 17.3629 17.5213ZM9.01665 17.7454C8.63295 17.3379 8.30594 16.8804 8.04457 16.3854C8.68444 16.4786 9.33453 16.4776 9.97415 16.3825C9.71728 16.8776 9.39528 17.3359 9.01665 17.7454ZM3.99999 8.33335C3.99999 8.11235 4.08778 7.90039 4.24407 7.7441C4.40032 7.5878 4.61232 7.50001 4.83332 7.50001C4.85832 7.5001 4.88328 7.49785 4.9079 7.49335L7.74999 6.97626C8.80653 6.78585 9.79328 6.31743 10.6087 5.61918L10.7908 5.86251C11.3557 6.61764 12.1383 7.18168 13.0333 7.47876C13.0763 7.49305 13.1214 7.50022 13.1667 7.50001C13.3877 7.50001 13.5996 7.5878 13.7559 7.7441C13.9122 7.90039 14 8.11235 14 8.33335C14 8.55435 13.9122 8.7663 13.7559 8.9226C13.5996 9.07889 13.3877 9.16668 13.1667 9.16668C13.1081 9.16614 13.0497 9.15872 12.9929 9.1446C12.9391 9.13172 12.8832 9.12972 12.8286 9.13872C12.7739 9.14768 12.7217 9.16743 12.6748 9.19685C12.6279 9.22626 12.5873 9.26472 12.5554 9.30997C12.5236 9.35522 12.501 9.40639 12.4892 9.46043L12.2308 10.6292C12.1475 11.0073 11.9896 11.3651 11.7662 11.6814C11.5428 11.9977 11.2585 12.2663 10.93 12.4713L9.66082 13.26C9.46303 13.3861 9.23332 13.4531 8.99874 13.4531C8.76415 13.4531 8.53444 13.3861 8.33665 13.26L7.07124 12.4729C6.74265 12.2683 6.45824 12.0001 6.23474 11.6841C6.01119 11.368 5.85307 11.0105 5.76957 10.6325L5.51082 9.46168C5.4904 9.36901 5.43899 9.28605 5.36503 9.2266C5.29107 9.1671 5.19903 9.13464 5.10415 9.13459C5.07144 9.13459 5.0389 9.13839 5.00707 9.14585C4.95015 9.15955 4.89186 9.16655 4.83332 9.16668C4.61232 9.16668 4.40032 9.07889 4.24407 8.9226C4.08778 8.7663 3.99999 8.55435 3.99999 8.33335ZM10.3575 15.4613C9.46899 15.6664 8.54557 15.6674 7.65665 15.4642C7.45915 14.8688 7.35228 14.2471 7.33957 13.62L7.89415 13.965C8.22403 14.1753 8.60711 14.287 8.99832 14.287C9.38953 14.287 9.77261 14.1753 10.1025 13.965L10.6612 13.6175C10.6531 14.2438 10.5507 14.8654 10.3575 15.4613ZM14.125 12.225L12 12.6796C12.5208 12.1699 12.8839 11.521 13.0458 10.8104L13.2233 10C13.2467 10 13.2683 9.99251 13.2912 9.99085C13.4133 10.7848 13.6971 11.5452 14.125 12.225ZM4.33749 5.91251C4.33445 5.2641 4.46669 4.62214 4.72582 4.02771C4.9849 3.43327 5.36515 2.89943 5.84224 2.46027C6.31936 2.02111 6.88282 1.6863 7.49661 1.47722C8.11044 1.26814 8.76111 1.1894 9.40707 1.24603C10.053 1.30265 10.6801 1.49339 11.2482 1.80607C11.8162 2.11875 12.3129 2.54649 12.7063 3.06195C13.0997 3.57742 13.3813 4.16926 13.533 4.79972C13.6847 5.43018 13.7033 6.08535 13.5875 6.72335C13.4742 6.69226 13.3581 6.67326 13.2408 6.66668C12.5302 6.4188 11.9097 5.96476 11.4583 5.36251L11 4.75001C10.9643 4.70205 10.9187 4.66239 10.8662 4.6336C10.8138 4.60485 10.7559 4.58772 10.6962 4.58335C10.6367 4.57964 10.5771 4.58851 10.5212 4.60939C10.4654 4.6303 10.4145 4.66272 10.3721 4.7046C9.61894 5.4598 8.65253 5.96614 7.6029 6.15543L4.79165 6.66668C4.66244 6.67097 4.53415 6.69051 4.40957 6.72501C4.3619 6.4568 4.33778 6.18493 4.33749 5.91251ZM4.70874 9.99001C4.73165 9.99001 4.75332 9.99834 4.77665 9.99918L4.95582 10.8125C5.1179 11.5224 5.48099 12.1706 6.00165 12.6796L3.87499 12.225C4.30282 11.5449 4.58644 10.7842 4.70832 9.99001H4.70874ZM1.48457 18.16C1.44565 18.1067 1.42014 18.0448 1.41021 17.9795C1.40027 17.9142 1.4062 17.8475 1.42748 17.785L1.83332 16.5713C1.9651 16.1757 2.18017 15.813 2.46401 15.5076C2.74785 15.2022 3.09386 14.9612 3.47874 14.8008L6.50374 13.5404C6.51303 15.3241 7.20015 17.0375 8.42582 18.3333H1.8229C1.75674 18.3337 1.69146 18.3181 1.63257 18.288C1.57369 18.2578 1.52292 18.2139 1.48457 18.16ZM16.5154 18.16C16.477 18.2139 16.4263 18.2578 16.3674 18.288C16.3085 18.3181 16.2432 18.3337 16.1771 18.3333H9.60707C10.8218 17.0333 11.4983 15.3209 11.5 13.5417L14.5233 14.8017C14.9077 14.9622 15.2533 15.2032 15.5367 15.5084C15.8202 15.8136 16.035 16.1761 16.1667 16.5713L16.5712 17.785C16.5927 17.8474 16.5988 17.9141 16.5891 17.9793C16.5794 18.0446 16.5541 18.1066 16.5154 18.16Z" fill="#6D747F"/>
</svg>
