<svg width="26" height="26" viewBox="0 0 26 26" fill="none" xmlns="http://www.w3.org/2000/svg">
<circle cx="13" cy="13" r="13" fill="white"/>
<path d="M16.5031 4.33331H9.49719C6.64992 4.33331 4.3335 6.64973 4.3335 9.49701V16.503C4.3335 19.3502 6.64992 21.6666 9.49719 21.6666H16.5031C19.3504 21.6666 21.6668 19.3502 21.6668 16.503V9.49701C21.6668 6.64973 19.3504 4.33331 16.5031 4.33331ZM19.9231 16.503C19.9231 18.3917 18.3919 19.9229 16.5031 19.9229H9.49719C7.60841 19.9229 6.07723 18.3917 6.07723 16.503V9.49701C6.07723 7.6082 7.60841 6.07705 9.49719 6.07705H16.5031C18.3919 6.07705 19.9231 7.6082 19.9231 9.49701V16.503Z" fill="url(#paint0_linear_908_2304)"/>
<path d="M13.0001 8.51697C10.5282 8.51697 8.51709 10.528 8.51709 13C8.51709 15.4719 10.5282 17.483 13.0001 17.483C15.472 17.483 17.4831 15.4719 17.4831 13C17.4831 10.528 15.472 8.51697 13.0001 8.51697ZM13.0001 15.7393C11.4872 15.7393 10.2608 14.5129 10.2608 13C10.2608 11.4871 11.4873 10.2607 13.0001 10.2607C14.513 10.2607 15.7394 11.4871 15.7394 13C15.7394 14.5128 14.513 15.7393 13.0001 15.7393Z" fill="url(#paint1_linear_908_2304)"/>
<path d="M17.4917 9.62489C18.085 9.62489 18.5659 9.14394 18.5659 8.55066C18.5659 7.95739 18.085 7.47644 17.4917 7.47644C16.8984 7.47644 16.4175 7.95739 16.4175 8.55066C16.4175 9.14394 16.8984 9.62489 17.4917 9.62489Z" fill="url(#paint2_linear_908_2304)"/>
<defs>
<linearGradient id="paint0_linear_908_2304" x1="13.0002" y1="21.6162" x2="13.0002" y2="4.46794" gradientUnits="userSpaceOnUse">
<stop stop-color="#E09B3D"/>
<stop offset="0.3" stop-color="#C74C4D"/>
<stop offset="0.6" stop-color="#C21975"/>
<stop offset="1" stop-color="#7024C4"/>
</linearGradient>
<linearGradient id="paint1_linear_908_2304" x1="13.0001" y1="21.6162" x2="13.0001" y2="4.46795" gradientUnits="userSpaceOnUse">
<stop stop-color="#E09B3D"/>
<stop offset="0.3" stop-color="#C74C4D"/>
<stop offset="0.6" stop-color="#C21975"/>
<stop offset="1" stop-color="#7024C4"/>
</linearGradient>
<linearGradient id="paint2_linear_908_2304" x1="17.4917" y1="21.6162" x2="17.4917" y2="4.46799" gradientUnits="userSpaceOnUse">
<stop stop-color="#E09B3D"/>
<stop offset="0.3" stop-color="#C74C4D"/>
<stop offset="0.6" stop-color="#C21975"/>
<stop offset="1" stop-color="#7024C4"/>
</linearGradient>
</defs>
</svg>
