<svg width="19" height="21" viewBox="0 0 19 21" fill="none" xmlns="http://www.w3.org/2000/svg">
<path d="M0.238942 19.2038C1.94765 20.273 4.92371 20.7364 6.94073 20.8982C10.2441 21.1634 15.9879 20.9395 18.7609 19.2038C18.8684 19.1367 18.9311 19.0167 18.925 18.8902C18.9189 18.7636 18.8449 18.6503 18.7316 18.5937C18.4201 18.4387 17.5192 17.9438 17.0894 17.6981C14.7444 16.331 15.2344 17.6802 12.65 15.2481V13.2132C13.3192 12.579 13.7059 12.0288 13.749 11.0575C14.4755 10.6895 14.9652 9.97758 15.0492 9.16753C15.1192 8.81754 15.261 7.87254 14.9442 7.34438C16.0411 5.04103 15.3674 2.09438 12.8946 1.79304C12.5495 1.31529 11.3865 0 9.04844 0C6.30585 0 3.89996 2.27501 3.89996 4.86499C3.9089 5.62808 4.03375 6.38535 4.27025 7.11092C3.68819 7.52251 3.87194 8.75803 3.95209 9.16716C4.03576 9.97693 4.52495 10.6888 5.25093 11.0572C5.29363 12.0249 5.67618 12.5751 6.34994 13.2135V15.2494C5.85246 15.7361 5.31262 16.1775 4.7368 16.5683C4.44665 16.7404 4.13042 16.8641 3.80053 16.9347C2.78552 17.1143 2.22553 17.5486 0.431101 18.5097C0.281312 18.5895 0.0863641 18.6497 0.0747977 18.8891C0.0683173 19.0161 0.131153 19.1365 0.238942 19.2038ZM16.7394 18.305C17.1002 18.5111 17.4663 18.7124 17.8345 18.9115C16.4456 19.4951 14.98 19.8759 13.4826 20.0424C14.0951 19.3197 14.4997 18.4442 14.653 17.5094C15.2585 17.7149 15.5374 17.605 16.7394 18.305ZM14.3594 9.04961C14.3565 9.06384 14.3545 9.07819 14.3534 9.09267C14.3033 9.54282 14.0818 9.95642 13.735 10.2477C13.6944 9.78645 13.7287 9.32174 13.8365 8.87147C13.8443 8.84194 13.8489 8.81167 13.8501 8.78116C13.8501 8.4623 13.841 8.20366 13.8323 8.01117C13.8442 7.91458 13.9124 7.69896 14.2894 7.69896C14.3024 7.69896 14.3297 7.70212 14.35 7.70282C14.4532 7.84001 14.4787 8.44869 14.3594 9.04891L14.3594 9.04961ZM9.04844 0.700014C11.4246 0.700014 12.3612 2.24561 12.3993 2.31C12.4618 2.41828 12.5774 2.48501 12.7024 2.48501H12.7966C12.8764 2.48989 14.7499 2.625 14.7499 5.17999C14.7462 5.80978 14.6043 6.43105 14.3341 6.99997C14.3115 6.99874 14.2888 6.99874 14.2662 6.99997C14.0935 7.00005 13.9224 7.0343 13.7629 7.10079C13.4521 4.3358 12.4249 3.68513 12.3014 3.61688C12.1375 3.5262 11.9312 3.58066 11.8334 3.74042C10.9112 5.24541 8.69669 5.46242 8.70547 5.46312H6.87847C5.79767 5.46312 5.12846 5.9923 5.08715 6.87606C5.08436 6.9282 5.0826 6.98738 5.08227 7.05108C5.04774 7.04013 5.01271 7.0309 4.97727 7.02343C4.73721 6.32867 4.60981 5.59999 4.59997 4.86499C4.59993 2.68521 6.72023 0.700014 9.04844 0.700014ZM4.64825 9.0937C4.64714 9.07856 4.64517 9.06347 4.6423 9.04854C4.51453 8.41259 4.55128 7.76475 4.65944 7.69264C4.8621 7.72238 5.08925 7.7063 5.11443 7.92295C5.13403 8.09796 5.126 8.26104 5.20753 9.0622C5.27763 9.4525 5.29715 9.85023 5.26565 10.2455C4.91956 9.95515 4.69849 9.5427 4.64825 9.0937ZM5.94606 10.8087C5.99983 10.2233 5.98741 9.63363 5.90894 9.051C5.83048 8.33942 5.78946 7.62419 5.7861 6.9083C5.79484 6.72349 5.82109 6.16001 6.87847 6.16001H8.7359C8.83389 6.15161 10.9934 5.94476 12.1845 4.45376C12.9839 5.46878 13.148 7.4347 13.1505 8.73112C13.0695 9.08443 13.026 9.44528 13.021 9.80774C13.021 10.9102 13.2985 11.6764 12.2429 12.6322C11.027 13.7368 11.0525 14.7 10.095 14.7C8.43489 14.7 8.44994 14.8463 7.78496 13.8688C7.53398 13.4861 7.24683 13.1284 6.92744 12.8006C6.28276 12.1566 5.96181 11.83 5.94606 10.808V10.8087ZM6.34994 16.1969V16.8C6.34994 16.9933 6.50666 17.15 6.69993 17.15C6.8932 17.15 7.04992 16.9933 7.04992 16.8V14.0371C7.56581 14.77 7.89447 15.4 8.90493 15.4C10.8341 15.4 10.8842 15.5544 11.9499 14.0371V16.8C11.9499 16.9933 12.1067 17.15 12.2999 17.15C12.4932 17.15 12.6499 16.9933 12.6499 16.8V16.1969C13.0606 16.5836 13.5113 16.9254 13.9943 17.2168C13.8658 18.0159 13.4269 19.7284 11.9961 20.2013C10.3358 20.3327 8.66782 20.3327 7.00755 20.2013C5.57253 19.7299 5.13399 18.0162 5.00553 17.2165C5.48845 16.9251 5.93909 16.5833 6.34994 16.1969ZM2.26298 18.3029C3.45859 17.6064 3.74455 17.7138 4.34686 17.5088C4.50018 18.4435 4.90476 19.3191 5.51724 20.0417C4.01993 19.8753 2.55427 19.4944 1.16536 18.9109C1.5336 18.7117 1.9004 18.5101 2.26298 18.3029Z" fill="white"/>
</svg>
