<?xml version="1.0" standalone="no"?>
<!DOCTYPE svg PUBLIC "-//W3C//DTD SVG 20010904//EN"
 "http://www.w3.org/TR/2001/REC-SVG-20010904/DTD/svg10.dtd">
<svg version="1.0" xmlns="http://www.w3.org/2000/svg"
 width="512.000000pt" height="512.000000pt" viewBox="0 0 512.000000 512.000000"
 preserveAspectRatio="xMidYMid meet">

<g transform="translate(0.000000,512.000000) scale(0.100000,-0.100000)"
fill="#000000" stroke="none">
<path d="M2335 5029 c-260 -31 -464 -125 -591 -274 -25 -30 -71 -68 -102 -86
-70 -39 -195 -165 -240 -241 -51 -85 -90 -189 -108 -286 -24 -127 -15 -546 14
-645 l20 -68 -21 -52 c-31 -76 -30 -285 2 -372 41 -113 104 -188 197 -236 35
-17 39 -25 61 -101 51 -175 119 -311 216 -431 l57 -72 -2 -180 c-3 -169 -4
-183 -28 -229 -96 -188 -408 -351 -935 -490 -309 -81 -454 -152 -577 -284
-144 -154 -204 -336 -215 -659 l-6 -163 59 0 c107 0 100 -11 107 173 7 198 26
296 78 406 31 66 55 99 108 151 107 104 232 162 478 224 150 38 287 79 401
121 l73 26 108 -103 c219 -210 475 -344 781 -409 142 -30 407 -33 555 -5 305
57 581 199 805 413 l108 104 134 -46 c73 -25 212 -67 308 -92 289 -75 404
-127 511 -233 135 -133 189 -315 189 -638 0 -117 1 -124 25 -147 45 -46 115
-24 131 41 4 15 4 100 1 188 -11 326 -82 525 -238 671 -135 127 -254 182 -579
270 -492 132 -814 304 -912 486 -21 41 -23 58 -26 222 l-4 178 35 42 c114 139
184 286 253 528 2 8 23 24 46 34 55 24 130 99 162 164 60 118 74 322 29 437
l-20 52 20 88 c29 125 31 526 4 652 -23 102 -56 200 -91 270 l-26 52 24 48
c52 102 61 282 16 327 -19 18 -34 20 -183 21 -195 2 -304 19 -471 75 -181 61
-283 79 -486 84 -96 2 -211 0 -255 -6z m505 -174 c47 -9 126 -32 176 -51 142
-53 330 -84 506 -84 l71 0 -7 -47 c-3 -25 -22 -74 -41 -109 -19 -34 -35 -68
-35 -76 0 -7 22 -58 50 -113 77 -152 101 -260 107 -476 5 -170 -8 -343 -27
-363 -11 -11 -63 61 -107 149 -146 289 -297 406 -527 407 -50 0 -145 -8 -211
-18 -177 -26 -377 -25 -480 4 -93 27 -173 68 -239 122 -79 65 -124 52 -166
-50 -42 -102 -122 -255 -175 -335 -71 -106 -132 -173 -207 -230 l-62 -47 -9
29 c-5 15 -11 132 -14 258 -6 271 4 333 68 465 52 105 153 212 245 258 41 20
69 44 89 72 92 132 272 222 500 249 116 14 394 6 495 -14z m-726 -884 c176
-89 409 -109 726 -62 167 24 225 22 298 -10 89 -38 143 -100 242 -276 88 -157
135 -213 206 -249 52 -27 60 -35 72 -75 20 -67 11 -211 -17 -274 -34 -77 -99
-135 -150 -135 -43 0 -69 -40 -95 -150 -46 -196 -121 -343 -237 -465 -69 -73
-101 -96 -255 -193 -119 -74 -168 -86 -354 -86 -214 1 -237 9 -482 171 -37 25
-70 54 -73 64 -4 11 -20 28 -36 38 -84 51 -195 263 -254 485 -14 49 -31 96
-40 106 -9 10 -37 24 -63 31 -59 16 -121 77 -145 144 -10 28 -21 91 -24 140
-7 109 7 170 40 179 43 11 173 105 245 177 86 86 193 241 263 381 27 54 50 98
52 98 1 0 38 -18 81 -39z m-5 -2006 c118 -84 213 -113 391 -122 229 -11 354
19 515 121 l100 63 6 -128 c5 -122 7 -130 43 -204 26 -53 59 -99 105 -145 64
-65 214 -172 279 -199 18 -7 32 -17 32 -22 0 -4 -31 -36 -70 -70 -258 -232
-556 -358 -885 -376 -363 -19 -723 114 -1015 376 -39 34 -70 66 -70 70 0 4 20
17 45 29 160 78 310 214 371 336 37 77 38 82 42 207 l4 128 30 -15 c17 -9 51
-31 77 -49z"/>
</g>
</svg>
