<svg width="64" height="74" viewBox="0 0 64 74" fill="none" xmlns="http://www.w3.org/2000/svg">
<path d="M32 37C35.6342 37 39.1869 35.9223 42.2086 33.9033C45.2304 31.8842 47.5855 29.0144 48.9763 25.6568C50.3671 22.2992 50.7309 18.6046 50.0219 15.0402C49.3129 11.4758 47.5629 8.20171 44.9931 5.63192C42.4233 3.06213 39.1492 1.31208 35.5848 0.603079C32.0204 -0.105925 28.3258 0.257962 24.9682 1.64872C21.6106 3.03948 18.7408 5.39465 16.7217 8.4164C14.7027 11.4382 13.625 14.9908 13.625 18.625C13.625 23.4984 15.5609 28.1721 19.0069 31.6181C22.4529 35.0641 27.1266 37 32 37ZM32 5.50001C34.5959 5.50001 37.1335 6.26978 39.2919 7.71197C41.4503 9.15416 43.1325 11.204 44.1259 13.6023C45.1193 16.0006 45.3792 18.6396 44.8728 21.1856C44.3664 23.7316 43.1163 26.0702 41.2808 27.9058C39.4452 29.7413 37.1066 30.9914 34.5606 31.4978C32.0146 32.0042 29.3756 31.7443 26.9773 30.7509C24.579 29.7575 22.5292 28.0753 21.087 25.9169C19.6448 23.7585 18.875 21.2209 18.875 18.625C18.875 15.144 20.2578 11.8056 22.7192 9.34423C25.1806 6.88282 28.519 5.50001 32 5.50001Z" fill="#D6B960"/>
<path d="M34.625 42.25H29.375C21.7169 42.25 14.3724 45.2922 8.95729 50.7073C3.54218 56.1224 0.5 63.4669 0.5 71.125C0.5 71.8212 0.776562 72.4889 1.26885 72.9812C1.76113 73.4734 2.42881 73.75 3.125 73.75H60.875C61.5712 73.75 62.2389 73.4734 62.7312 72.9812C63.2234 72.4889 63.5 71.8212 63.5 71.125C63.5 63.4669 60.4578 56.1224 55.0427 50.7073C49.6276 45.2922 42.2831 42.25 34.625 42.25ZM5.9075 68.5C6.55298 62.7267 9.30297 57.3936 13.632 53.5197C17.9611 49.6458 23.5657 47.5028 29.375 47.5H34.625C40.4343 47.5028 46.0389 49.6458 50.368 53.5197C54.697 57.3936 57.447 62.7267 58.0925 68.5H5.9075Z" fill="#D6B960"/>
</svg>
