<svg width="36" height="40" viewBox="0 0 36 40" fill="none" xmlns="http://www.w3.org/2000/svg">
<path d="M6.24026 12.25H27.8403C28.3997 12.25 28.8103 11.7552 28.8103 11.2C28.8103 10.6448 28.3997 10.15 27.8403 10.15H6.24026C5.68078 10.15 5.27026 10.6448 5.27026 11.2C5.27026 11.755 5.67991 12.25 6.24026 12.25Z" fill="white" stroke="white" stroke-width="0.5"/>
<path d="M6.24026 28.25H27.8403C28.3997 28.25 28.8103 27.7552 28.8103 27.2C28.8103 26.6448 28.3997 26.15 27.8403 26.15H6.24026C5.68078 26.15 5.27026 26.6448 5.27026 27.2C5.27026 27.755 5.67991 28.25 6.24026 28.25Z" fill="white" stroke="white" stroke-width="0.5"/>
<path d="M6.24026 20.25H20.8403C21.3997 20.25 21.8103 19.7552 21.8103 19.2C21.8103 18.6448 21.3997 18.15 20.8403 18.15H6.24026C5.68078 18.15 5.27026 18.6448 5.27026 19.2C5.27026 19.755 5.67991 20.25 6.24026 20.25Z" fill="white" stroke="white" stroke-width="0.5"/>
</svg>
