<svg width="45" height="35" viewBox="0 0 45 35" fill="none" xmlns="http://www.w3.org/2000/svg">
<path d="M9.21776 0.0139771C10.3498 0.362895 11.2475 0.940355 11.6009 2.16331C11.7199 2.57504 12.1258 2.51223 12.46 2.05515C13.5974 0.495484 15.7846 0.441402 16.9551 1.95047C17.3538 2.45403 17.5531 3.08605 17.5151 3.72647C17.7898 3.72647 17.83 3.49618 17.9403 3.35836C18.2954 2.89586 18.788 2.55692 19.3476 2.38985C19.9073 2.22277 20.5056 2.23607 21.0573 2.42786C21.6089 2.61964 22.0858 2.98013 22.42 3.45796C22.7541 3.93578 22.9285 4.50657 22.9183 5.08899C22.9183 5.29311 22.7661 5.57399 23.011 5.68739C23.284 5.813 23.3452 5.47978 23.4852 5.33847C23.8684 4.94453 24.3586 4.67053 24.8956 4.55C25.4326 4.42946 25.9932 4.46763 26.5088 4.65982C27.0202 4.85824 27.4619 5.20214 27.7789 5.6488C28.0959 6.09545 28.2742 6.62514 28.2918 7.17204C28.3005 7.38662 28.1833 7.63086 28.514 7.77915C28.8447 7.92744 28.9567 7.72856 29.1421 7.59248C30.0468 6.92954 31.0266 6.79869 32.045 7.26973C33.0633 7.74077 33.576 8.59388 33.6565 9.71216C33.7107 10.4449 33.9277 10.5653 34.5191 10.1832C34.9762 9.87672 35.5156 9.71522 36.0664 9.71989C36.6173 9.72456 37.1538 9.89519 37.6057 10.2094C38.624 10.9281 38.981 11.9226 38.771 13.1246C38.6433 13.8538 38.8235 14.0562 39.5111 13.8887C40.0627 13.74 40.6468 13.7645 41.1838 13.9588C41.7209 14.153 42.1849 14.5077 42.5126 14.9743C42.8402 15.441 43.0156 15.997 43.0149 16.5667C43.0141 17.1363 42.8373 17.6919 42.5084 18.1577C42.001 18.8974 42.0483 19.0422 42.8916 19.3004C44.0395 19.6494 44.9126 20.881 44.8374 22.0429C44.812 22.6681 44.5759 23.2665 44.1673 23.7414C43.7587 24.2162 43.2013 24.5398 42.5854 24.6598C42.3632 24.7034 42.0728 24.6598 41.9888 24.9512C41.9135 25.2146 42.1637 25.3263 42.302 25.4745C42.6988 25.9094 42.9462 26.459 43.0082 27.0436C43.0702 27.6282 42.9436 28.2173 42.6468 28.7253C42.3501 29.2333 41.8985 29.6336 41.3579 29.8682C40.8173 30.1028 40.2157 30.1593 39.6406 30.0297C38.7272 29.8221 38.6643 29.8779 38.8025 30.7746C38.9041 31.3826 38.8024 32.0071 38.5131 32.5518C38.2238 33.0965 37.763 33.5314 37.2015 33.7893C36.1079 34.3039 34.8411 34.0387 33.9679 33.1106C33.443 32.5489 32.9863 32.6082 32.6364 33.2851C32.3322 33.87 31.8295 34.3282 31.2181 34.5781C30.6066 34.8279 29.926 34.8532 29.2976 34.6494C28.6692 34.4455 28.1338 34.0259 27.7868 33.4651C27.4398 32.9044 27.3037 32.239 27.4029 31.5876C27.4781 31.1218 26.9217 30.2094 26.4773 30.0698C24.9025 29.5708 24.1361 28.6741 24.1484 27.3168C24.1624 25.9212 24.9462 25.0384 26.5735 24.5708C26.6103 24.5604 26.6382 24.5185 26.6715 24.4923C25.2822 23.3235 25.0565 22.8018 25.2279 21.1043C24.8395 21.209 24.6173 21.5161 24.3531 21.7446C22.8098 23.067 21.2741 24.3976 19.746 25.7362C19.4188 26.0223 19.0846 26.2596 18.7364 25.8357C18.3882 25.4117 18.7014 25.1239 19.0146 24.8535L23.123 21.2823C23.3739 21.0872 23.5838 20.8447 23.7407 20.5688C23.1283 20.7432 22.5158 20.9177 21.9052 21.1113C20.0469 21.6766 18.187 22.2401 16.3322 22.8193C15.9123 22.9519 15.5186 23.0077 15.3664 22.5035C15.2141 21.9993 15.5921 21.8406 16.0033 21.7167C18.2622 21.0363 20.5159 20.3437 22.7696 19.6546C22.9533 19.597 23.1335 19.5325 23.2945 19.4801C23.3557 19.3266 23.2682 19.2882 23.2 19.2394C22.2394 18.5555 21.8404 17.6291 21.9752 16.462C21.9944 16.3067 22.1186 16.1026 21.8964 15.9997C21.6742 15.8967 21.5972 16.0921 21.4957 16.2334C20.7958 17.2279 19.8212 17.6378 18.6402 17.4163C17.4591 17.1947 16.7294 16.4288 16.4512 15.2547C16.4215 15.1291 16.4302 14.9599 16.2675 14.9477C16.0383 14.9302 16.0925 15.1431 16.0523 15.2774C15.7286 16.4986 14.9692 17.2628 13.7076 17.4372C12.4075 17.6117 11.4522 17.0604 10.7715 15.8217C10.7138 15.7153 10.712 15.5391 10.5528 15.5286C10.3568 15.5129 10.3376 15.6926 10.2641 15.8252C9.57646 17.104 8.42162 17.6867 7.12681 17.4215C5.88799 17.1668 5.04811 16.1532 4.91513 14.7505C4.89944 14.6201 4.8563 14.4944 4.78853 14.3817C4.72076 14.269 4.6299 14.1719 4.52188 14.0966C4.41386 14.0214 4.29112 13.9697 4.16169 13.945C4.03226 13.9203 3.89906 13.9231 3.7708 13.9533C2.22577 14.3196 0.899462 13.6602 0.364039 12.2593C-0.160885 10.8898 0.42003 9.50804 1.83383 8.77008C2.30626 8.52235 2.37275 8.15947 2.0088 7.74252C1.25991 6.90162 1.03594 5.94559 1.42439 4.8936C1.81283 3.84161 2.61246 3.25717 3.72005 3.07922C4.22315 3.0186 4.73315 3.10275 5.18984 3.32172C5.84075 3.59388 6.06471 3.46827 6.10671 2.79834C6.19945 1.54922 6.81886 0.6839 8.00344 0.219839C8.14867 0.162267 8.37438 0.242518 8.44262 0.0174656L9.21776 0.0139771ZM37.8016 29.0649L37.9766 29.1696C38.0361 29.0667 38.0238 28.9864 37.9066 28.9341C37.8839 28.873 37.8664 28.8102 37.8384 28.7596C36.799 26.6801 37.9311 24.7593 40.2653 24.6424C40.3843 24.6424 40.547 24.7122 40.6152 24.5586C40.6975 24.3702 40.5225 24.3092 40.407 24.2097C38.8095 22.814 38.8445 20.9752 40.4927 19.6459C40.5627 19.59 40.6275 19.5377 40.5855 19.4348C39.3729 19.4034 38.379 18.9568 37.7754 17.8646C37.1717 16.7725 37.4867 15.6752 38.0203 14.6092C37.8189 14.6863 37.626 14.784 37.4447 14.9006C37.0698 15.117 36.6496 15.2434 36.2172 15.2698C35.7848 15.2961 35.3522 15.2217 34.9537 15.0524C34.5552 14.8831 34.2017 14.6236 33.9213 14.2944C33.6408 13.9653 33.4411 13.5755 33.338 13.156C33.2145 12.6661 33.2327 12.1513 33.3905 11.6713C33.4238 11.5719 33.4535 11.4515 33.3433 11.3782C33.233 11.305 33.1438 11.4009 33.0686 11.4777C32.9933 11.5544 32.8936 11.6731 32.8009 11.7638C32.3931 12.1627 31.8722 12.4268 31.3088 12.5205C30.7454 12.6141 30.1667 12.5326 29.6513 12.2872C29.1287 12.0278 28.6993 11.6136 28.4221 11.1014C28.1449 10.5892 28.0333 10.004 28.1028 9.42605C28.1255 9.22891 28.304 8.96897 28.0398 8.83463C27.7756 8.7003 27.6898 9.0213 27.5551 9.15738C26.7222 9.98781 25.5412 10.2739 24.4756 9.82382C23.41 9.37371 22.8098 8.53107 22.7416 7.34824C22.7311 7.17378 22.8518 6.94524 22.6086 6.82486C22.3304 6.6853 22.2236 6.92954 22.0679 7.06387C20.8518 8.11063 19.2683 8.08795 18.1572 6.99758C17.613 6.46199 17.3856 5.77636 17.3261 5.0384C17.0759 5.04887 17.0391 5.22333 16.9446 5.33149C16.1433 6.26136 15.1477 6.64168 13.9526 6.28578C12.8205 5.94908 12.1678 5.15529 11.9824 3.9899C11.9561 3.82765 12.0209 3.60958 11.7794 3.56945C11.5379 3.52933 11.5344 3.76834 11.4662 3.91837C10.5913 5.73798 8.6141 6.18634 7.03758 4.925C6.94309 4.85173 6.8626 4.71216 6.70862 4.82033C6.8731 7.33254 6.41641 8.0077 4.0595 8.70902C5.79525 9.7174 6.1452 11.1514 5.37182 12.9937C6.24669 12.1895 7.17406 11.7498 8.32539 12.0168C9.47672 12.2837 10.1399 13.0635 10.4671 14.1818C10.5283 14.1242 10.6001 14.0893 10.6158 14.037C10.9815 12.828 11.7776 12.0831 13.0392 11.9644C14.3008 11.8458 15.2299 12.3988 15.8388 13.5206C16.0645 13.9393 16.4442 13.8922 16.7032 13.4438C17.3436 12.3413 18.4442 11.7795 19.6078 11.9609C20.7713 12.1424 21.6777 13.0408 21.9332 14.3126C22.0767 15.0279 22.4336 15.1553 23.039 14.7069C23.5154 14.3522 24.0921 14.1566 24.6866 14.1481C25.2812 14.1397 25.8632 14.3188 26.3495 14.6598C26.8228 14.9994 27.1771 15.4788 27.3624 16.03C27.5476 16.5813 27.5544 17.1767 27.3819 17.732C27.1527 18.47 27.5201 19.0562 28.2988 19.194C29.7125 19.4452 30.6242 20.4152 30.7484 21.7917C30.8534 23.0129 30.0975 24.1574 28.8097 24.5831C28.192 24.7889 28.3845 24.9215 28.7274 25.2216C30.0695 26.3939 30.0695 28.2467 28.7274 29.4714C28.8136 29.4858 28.901 29.4904 28.9882 29.4854C31.3311 29.0684 31.8525 29.3231 32.9006 31.4166C32.9531 31.523 32.9898 31.6207 33.1176 31.6103C33.3013 31.5963 33.2838 31.4498 33.2925 31.3189C33.3009 31.059 33.3325 30.8004 33.387 30.5461C33.9137 28.6078 35.9102 27.9466 37.8016 29.0649ZM30.171 30.4065C29.958 30.4021 29.7462 30.4402 29.5482 30.5186C29.3502 30.597 29.1699 30.7141 29.0179 30.863C28.866 31.0119 28.7454 31.1896 28.6634 31.3856C28.5814 31.5817 28.5395 31.7921 28.5402 32.0045C28.5344 32.4336 28.6965 32.848 28.9922 33.1597C29.2879 33.4715 29.6938 33.656 30.1237 33.6741C30.5662 33.6738 30.9909 33.5006 31.3068 33.1918C31.6228 32.883 31.8048 32.463 31.814 32.022C31.8062 31.592 31.6299 31.1822 31.3228 30.8803C31.0157 30.5783 30.6023 30.4083 30.171 30.4065ZM18.5212 5.02793C18.5146 5.24048 18.5502 5.45222 18.6259 5.65104C18.7015 5.84986 18.8157 6.03186 18.962 6.18661C19.1083 6.34136 19.2837 6.46584 19.4783 6.5529C19.6729 6.63997 19.8828 6.68792 20.0959 6.69402C20.3157 6.70365 20.5352 6.66922 20.7414 6.59275C20.9477 6.51629 21.1364 6.39936 21.2965 6.24888C21.4565 6.09839 21.5847 5.91741 21.6734 5.71666C21.7621 5.51591 21.8094 5.29945 21.8127 5.08012C21.816 4.86078 21.7751 4.64302 21.6925 4.43972C21.6098 4.23642 21.4871 4.05171 21.3316 3.89654C21.1761 3.74137 20.991 3.61888 20.7871 3.53633C20.5833 3.45377 20.3649 3.41283 20.1449 3.41593C19.9319 3.41455 19.7207 3.45525 19.5235 3.53568C19.3264 3.61612 19.1471 3.73469 18.9961 3.88456C18.8452 4.03444 18.7255 4.21264 18.644 4.40888C18.5624 4.60512 18.5207 4.81552 18.5212 5.02793ZM30.8359 11.4096C31.0539 11.4138 31.2705 11.3745 31.473 11.2939C31.6755 11.2134 31.8598 11.0932 32.015 10.9406C32.1703 10.7879 32.2933 10.6059 32.3769 10.4051C32.4604 10.2043 32.5029 9.98886 32.5017 9.77148C32.5016 9.44845 32.4058 9.13264 32.2262 8.86376C32.0467 8.59488 31.7914 8.38492 31.4925 8.2603C31.1936 8.13567 30.8645 8.10193 30.5464 8.16332C30.2283 8.22471 29.9355 8.3785 29.7049 8.60534C29.4742 8.83217 29.316 9.12194 29.25 9.43821C29.1841 9.75447 29.2134 10.0831 29.3343 10.3828C29.4551 10.6825 29.6622 10.9399 29.9294 11.1226C30.1965 11.3053 30.5119 11.4052 30.8359 11.4096ZM27.9261 20.3071C27.495 20.313 27.0836 20.4878 26.7808 20.7937C26.478 21.0996 26.308 21.5119 26.3075 21.9417C26.3062 22.2679 26.4023 22.5871 26.5837 22.8585C26.765 23.13 27.0233 23.3415 27.3257 23.4659C27.6281 23.5904 27.9608 23.6222 28.2814 23.5574C28.602 23.4925 28.896 23.3339 29.1258 23.1018C29.3556 22.8697 29.5109 22.5746 29.5718 22.2541C29.6327 21.9337 29.5964 21.6024 29.4677 21.3025C29.339 21.0027 29.1236 20.7478 28.849 20.5705C28.5745 20.3932 28.2531 20.3015 27.9261 20.3071ZM43.6738 21.926C43.6745 21.7131 43.6329 21.5021 43.5514 21.3053C43.47 21.1084 43.3502 20.9296 43.1991 20.7791C43.048 20.6286 42.8685 20.5094 42.671 20.4284C42.4735 20.3474 42.2618 20.3061 42.0483 20.3071C41.7232 20.3047 41.4049 20.3987 41.1336 20.5773C40.8624 20.7559 40.6506 21.0109 40.5252 21.3099C40.3997 21.6088 40.3664 21.9383 40.4293 22.2562C40.4923 22.5741 40.6487 22.8662 40.8786 23.0952C41.1086 23.3243 41.4017 23.4799 41.7206 23.5423C42.0396 23.6047 42.3699 23.5711 42.6697 23.4457C42.9694 23.3204 43.2249 23.1089 43.4037 22.8383C43.5826 22.5677 43.6766 22.2501 43.6738 21.926ZM4.00351 4.20448C3.57258 4.21085 3.16124 4.38508 2.85747 4.68991C2.5537 4.99474 2.38161 5.40598 2.378 5.83568C2.38018 6.05104 2.42489 6.26386 2.50956 6.46199C2.59423 6.66012 2.71722 6.83968 2.87149 6.99042C3.02577 7.14116 3.20831 7.26013 3.40869 7.34053C3.60908 7.42094 3.82339 7.4612 4.03938 7.45902C4.25538 7.45684 4.46882 7.41227 4.66754 7.32785C4.86626 7.24342 5.04635 7.1208 5.19754 6.96698C5.34872 6.81316 5.46805 6.63116 5.54869 6.43136C5.62933 6.23157 5.66971 6.01789 5.66752 5.80253C5.65384 5.37244 5.47223 4.96469 5.1614 4.66618C4.85056 4.36766 4.43508 4.20199 4.00351 4.20448ZM1.33165 11.2893C1.33057 11.7194 1.49812 12.1329 1.79854 12.4415C2.09895 12.7502 2.50846 12.9296 2.93967 12.9414C3.382 12.9396 3.8058 12.764 4.11924 12.4528C4.43267 12.1416 4.6105 11.7198 4.61417 11.2788C4.60681 10.8489 4.4288 10.4395 4.11918 10.1403C3.80956 9.84106 3.39357 9.67644 2.96242 9.6825C2.74892 9.67902 2.53687 9.71806 2.3387 9.79733C2.14053 9.8766 1.96022 9.99452 1.80834 10.1442C1.65646 10.2938 1.53607 10.4722 1.45421 10.6688C1.37236 10.8654 1.33069 11.0764 1.33165 11.2893ZM28.5612 27.3203C28.558 26.8902 28.3851 26.4787 28.0799 26.1748C27.7747 25.8708 27.3618 25.6988 26.9305 25.6961C26.4952 25.6996 26.0791 25.8753 25.7737 26.1847C25.4684 26.494 25.2988 26.9116 25.3023 27.3456C25.3058 27.7796 25.482 28.1945 25.7923 28.4989C26.1026 28.8034 26.5214 28.9724 26.9567 28.969C27.1708 28.9674 27.3824 28.9233 27.5792 28.8392C27.776 28.7551 27.954 28.6327 28.1028 28.4792C28.2515 28.3257 28.3681 28.1441 28.4456 27.9451C28.5231 27.7461 28.56 27.5337 28.5542 27.3203H28.5612ZM19.1458 13.0862C18.9322 13.0871 18.7209 13.13 18.5239 13.2124C18.3269 13.2948 18.1482 13.4151 17.9978 13.5664C17.8475 13.7178 17.7286 13.8972 17.6479 14.0944C17.5671 14.2915 17.5262 14.5027 17.5273 14.7156C17.5408 15.1449 17.7176 15.5531 18.0217 15.8573C18.3258 16.1615 18.7346 16.339 19.1651 16.3538C19.607 16.3465 20.028 16.1645 20.3354 15.8478C20.6429 15.5311 20.8116 15.1057 20.8046 14.6651C20.8024 14.4514 20.7572 14.2403 20.6717 14.0443C20.5862 13.8483 20.4621 13.6715 20.3067 13.5242C20.1514 13.377 19.968 13.2624 19.7673 13.1871C19.5667 13.1119 19.353 13.0775 19.1388 13.0862H19.1458ZM41.8593 16.5928C41.8707 16.3797 41.8384 16.1665 41.7644 15.9662C41.6904 15.7659 41.5762 15.5828 41.4288 15.428C41.2815 15.2733 41.104 15.15 40.9072 15.066C40.7105 14.9819 40.4986 14.9387 40.2845 14.939C40.0656 14.931 39.8473 14.9669 39.6425 15.0445C39.4377 15.1221 39.2506 15.2399 39.0922 15.3908C38.9338 15.5417 38.8074 15.7228 38.7203 15.9232C38.6333 16.1237 38.5875 16.3395 38.5855 16.5579C38.5973 16.9871 38.7727 17.3956 39.076 17.7003C39.3793 18.005 39.7877 18.1829 40.218 18.1979C40.4312 18.1999 40.6426 18.16 40.8402 18.0804C41.0378 18.0008 41.2177 17.883 41.3696 17.7339C41.5214 17.5847 41.6423 17.4072 41.7251 17.2113C41.8079 17.0155 41.8512 16.8053 41.8523 16.5928H41.8593ZM41.8593 27.3168C41.8593 26.8865 41.6886 26.4736 41.3843 26.1683C41.0801 25.863 40.6671 25.6901 40.2355 25.6874C39.804 25.696 39.3922 25.8689 39.0844 26.1705C38.7766 26.4722 38.5963 26.8798 38.5803 27.3099C38.5819 27.5288 38.6267 27.7453 38.7123 27.9469C38.7979 28.1486 38.9225 28.3314 39.079 28.485C39.2355 28.6386 39.4208 28.76 39.6243 28.8421C39.8279 28.9242 40.0457 28.9656 40.2653 28.9637C40.479 28.962 40.6902 28.9177 40.8866 28.8336C41.083 28.7495 41.2605 28.6272 41.409 28.4739C41.5574 28.3205 41.6736 28.1392 41.751 27.9405C41.8283 27.7419 41.8651 27.5299 41.8593 27.3168ZM8.90106 4.47315C9.33243 4.46997 9.74529 4.29793 10.0507 3.99412C10.356 3.69031 10.5295 3.27904 10.5336 2.84894C10.5317 2.63381 10.4874 2.42115 10.4031 2.2231C10.3189 2.02505 10.1963 1.84549 10.0424 1.69466C9.88858 1.54384 9.70642 1.42471 9.50638 1.34408C9.30634 1.26345 9.09232 1.22289 8.87656 1.22472C8.6608 1.22656 8.44751 1.27074 8.24887 1.35476C8.05024 1.43878 7.87014 1.56099 7.71887 1.7144C7.56761 1.86782 7.44813 2.04943 7.36726 2.24889C7.28638 2.44834 7.24571 2.66172 7.24754 2.87685C7.25809 3.30599 7.43733 3.71381 7.74663 4.01241C8.05594 4.31102 8.47053 4.47649 8.90106 4.47315ZM34.4246 12.4599C34.4173 12.6783 34.4542 12.8959 34.5331 13.0998C34.612 13.3037 34.7313 13.4897 34.8838 13.6466C35.0363 13.8035 35.2189 13.9283 35.4208 14.0133C35.6227 14.0984 35.8397 14.142 36.0589 14.1417C36.4895 14.1298 36.8992 13.9539 37.2038 13.6502C37.5084 13.3465 37.6847 12.9381 37.6966 12.5087C37.6953 12.0798 37.5252 11.6686 37.2228 11.3635C36.9204 11.0585 36.51 10.8839 36.0799 10.8775C35.8666 10.8718 35.6544 10.9082 35.4554 10.9848C35.2564 11.0615 35.0747 11.1767 34.9207 11.3239C34.7667 11.4711 34.6436 11.6473 34.5584 11.8423C34.4733 12.0373 34.4278 12.2472 34.4246 12.4599ZM9.35074 14.6703C9.3461 14.2347 9.16809 13.8187 8.85586 13.514C8.54363 13.2092 8.12277 13.0406 7.68586 13.0452C7.24894 13.0498 6.83177 13.2273 6.5261 13.5386C6.22044 13.8499 6.05133 14.2696 6.05597 14.7052C6.06877 15.1462 6.25434 15.5647 6.57292 15.8709C6.8915 16.1771 7.31772 16.3467 7.76022 16.3434C8.19081 16.3235 8.59698 16.1382 8.89351 15.8263C9.19005 15.5144 9.35391 15.1001 9.35074 14.6703ZM27.1299 7.29241C27.1402 7.07428 27.1051 6.85639 27.0268 6.65243C26.9486 6.44848 26.8289 6.26285 26.6752 6.10721C26.5216 5.95158 26.3373 5.8293 26.1341 5.74804C25.9308 5.66679 25.7128 5.62832 25.4939 5.63505C25.075 5.63776 24.6732 5.80073 24.3714 6.09032C24.0695 6.37991 23.8907 6.774 23.8719 7.19123C23.8656 7.4097 23.9027 7.62725 23.981 7.8314C24.0593 8.03554 24.1772 8.22225 24.3281 8.3808C24.479 8.53934 24.6598 8.6666 24.8602 8.75526C25.0606 8.84392 25.2765 8.89224 25.4957 8.89744C25.7089 8.89974 25.9204 8.85997 26.1181 8.78043C26.3158 8.70089 26.4958 8.58314 26.6477 8.43396C26.7996 8.28478 26.9204 8.10712 27.0032 7.91121C27.0859 7.71529 27.129 7.50499 27.1299 7.29241ZM11.6972 14.6755C11.6858 15.1043 11.8451 15.5201 12.1401 15.8322C12.4351 16.1444 12.842 16.3275 13.2719 16.3416C13.7139 16.3467 14.1398 16.1767 14.4561 15.8689C14.7724 15.561 14.9531 15.1406 14.9587 14.6999C14.9554 14.2712 14.7821 13.8611 14.4765 13.5593C14.1709 13.2576 13.758 13.0888 13.3279 13.0897C13.1145 13.0798 12.9014 13.1138 12.7018 13.1895C12.5021 13.2652 12.3202 13.381 12.1673 13.5297C12.0144 13.6784 11.8937 13.8568 11.8129 14.0539C11.732 14.251 11.6926 14.4626 11.6972 14.6755ZM37.6861 31.2491C37.6833 30.9262 37.5843 30.6114 37.4017 30.3447C37.2191 30.078 36.9612 29.8714 36.6606 29.7511C36.36 29.6309 36.0303 29.6024 35.7135 29.6692C35.3966 29.7361 35.1068 29.8954 34.8809 30.1268C34.655 30.3582 34.5031 30.6513 34.4446 30.9689C34.3861 31.2865 34.4235 31.6143 34.5522 31.9106C34.6808 32.207 34.8949 32.4586 35.1672 32.6334C35.4395 32.8082 35.7578 32.8984 36.0816 32.8925C36.5113 32.8816 36.9196 32.7036 37.2194 32.3965C37.5193 32.0895 37.6867 31.6777 37.6861 31.2491ZM24.7468 18.5223C24.96 18.5202 25.1707 18.4761 25.3669 18.3928C25.5631 18.3094 25.7408 18.1883 25.8901 18.0364C26.0393 17.8846 26.1571 17.7049 26.2367 17.5076C26.3163 17.3104 26.3561 17.0994 26.3539 16.8868C26.3517 16.6742 26.3076 16.4641 26.2239 16.2685C26.1403 16.0729 26.0189 15.8957 25.8666 15.7469C25.7142 15.5981 25.534 15.4806 25.3362 15.4013C25.1383 15.3219 24.9268 15.2822 24.7135 15.2844C24.4945 15.2846 24.2778 15.3283 24.0759 15.4129C23.8741 15.4976 23.6912 15.6215 23.5379 15.7774C23.3846 15.9333 23.264 16.1181 23.1832 16.321C23.1023 16.524 23.0628 16.7409 23.067 16.9592C23.0834 17.388 23.2692 17.793 23.5839 18.0858C23.8985 18.3786 24.3166 18.5356 24.7468 18.5223ZM14.7732 5.26345C14.9858 5.26033 15.1956 5.21497 15.3904 5.13003C15.5852 5.04509 15.7611 4.92227 15.9077 4.76876C16.0544 4.61525 16.1688 4.43413 16.2444 4.236C16.32 4.03786 16.3552 3.82668 16.348 3.61481C16.3457 3.18551 16.1737 2.77442 15.8694 2.4707C15.5652 2.16697 15.153 1.99509 14.7225 1.99234C14.5035 1.99641 14.2875 2.04364 14.0869 2.13129C13.8863 2.21894 13.7051 2.3453 13.5537 2.50308C13.4022 2.66086 13.2836 2.84694 13.2046 3.05062C13.1257 3.25429 13.0879 3.47153 13.0935 3.68983C13.0995 3.90368 13.1481 4.1142 13.2365 4.30917C13.3248 4.50413 13.4511 4.67967 13.608 4.82558C13.7649 4.97148 13.9494 5.08486 14.1506 5.15913C14.3518 5.2334 14.5658 5.26708 14.7802 5.25822L14.7732 5.26345ZM5.26508 13.3566C5.32794 13.2577 5.38014 13.1524 5.42081 13.0426C5.42081 13.0059 5.36832 12.924 5.33857 12.924C5.22484 12.924 5.14085 12.9815 5.15485 13.1106C5.18592 13.1945 5.22518 13.2752 5.27208 13.3514L5.26508 13.3566ZM6.60014 4.64936L6.64738 4.73484C6.66138 4.71914 6.69113 4.70169 6.68763 4.69123C6.67749 4.6602 6.66399 4.63037 6.64738 4.60225L6.60014 4.64936Z" fill="white"/>
<path d="M5.27192 13.3514C5.22712 13.2732 5.1902 13.1908 5.16168 13.1054C5.14768 12.9763 5.23167 12.9187 5.34541 12.9187C5.37515 12.9187 5.43289 13.0007 5.42764 13.0373C5.38697 13.1472 5.33477 13.2524 5.27192 13.3514Z" fill="#FCFBFB"/>
<path d="M37.9136 28.9341C38.0308 28.9864 38.0431 29.0667 37.9836 29.1696L37.8086 29.0649L37.9136 28.9341Z" fill="#FCFBFB"/>
<path d="M6.60693 4.64409L6.65418 4.59698C6.67079 4.6251 6.68428 4.65494 6.69442 4.68596C6.69442 4.69643 6.66818 4.71387 6.65418 4.72958L6.60693 4.64409Z" fill="#FCFBFB"/>
</svg>
