<svg width="123" height="115" viewBox="0 0 123 115" fill="none" xmlns="http://www.w3.org/2000/svg">
<path d="M12.6127 85.6218C11.7247 83.5653 13.1455 81.3292 15.0208 79.4877C30.2831 94.6088 35.3515 87.3726 46.9873 75.755C51.0506 77.1255 51.4519 83.5013 50.1022 86.6208C38.1645 99.5875 26.8733 102.122 12.6127 85.6218Z" fill="#FFC19F"/>
<path d="M43.8582 96.2636C38.6547 95.286 30.6898 87.4402 31.0254 85.7303C35.5167 82.6001 40.523 75.5684 47.3993 75.0529C46.055 82.1326 43.8582 96.2636 43.8582 96.2636Z" fill="#EF5A18"/>
<path d="M0.207868 77.7067C0.248714 78.0889 0.268248 78.8816 2.75986 79.7384C3.17187 79.8806 0.772606 79.4806 1.07096 79.9481C1.90564 81.2545 3.59986 82.9378 6.50348 84.4789C12.2503 87.5308 17.2602 86.3772 18.141 84.6442C18.7608 83.4248 15.0012 73.1954 9.91147 72.0241C9.4 71.905 11.5222 75.7159 10.9593 75.9079C10.1867 76.1674 8.96489 75.0031 7.12682 74.6494C3.04222 73.8638 0.126182 73.894 0.813461 75.2715C1.04966 75.7461 7.51931 78.6488 7.51043 78.9083C7.50155 79.1678 0.175902 77.4187 0.207868 77.7067Z" fill="#FFC19F"/>
<path d="M110.267 84.7047C111.155 82.6499 109.734 80.4138 107.857 78.5723C92.5963 93.6934 87.526 86.4555 75.8903 74.8396C71.8252 76.21 71.4256 82.5877 72.7735 85.7072C84.7112 98.6721 96.0043 101.212 110.267 84.7047Z" fill="#FFC19F"/>
<path d="M43.1086 105.995C43.1086 105.995 42.0519 128.45 41.0112 137.507C44.6323 139.412 53.9949 140.566 59.4523 138.81C59.7169 137.697 59.415 125.955 61.7912 126.069C63.901 126.168 64.1425 136.941 64.3556 139.044C69.472 139.601 79.6285 138.129 83.3579 136.812C83.2549 132.19 80.694 112.368 80.2483 106.687L43.1086 105.995Z" fill="#1B6168"/>
<path opacity="0.23" d="M42.1887 120.462C46.4083 121.783 52.3736 122.821 61.4023 122.418C69.5307 122.062 76.32 119.476 81.5998 116.755C80.9676 112.549 80.4277 108.786 80.2608 106.74L43.6698 107.078C43.4514 109.019 42.8547 114.458 42.1887 120.462Z" fill="black"/>
<path d="M84.5922 113.969C80.8148 116.706 76.0234 120.162 62.5531 120.206C48.9709 120.249 42.7836 117.394 39.9741 115.704C39.9741 115.704 43.7178 83.6186 45.7157 76.0216C55.199 74.4059 69.7189 73.9686 76.066 74.525C78.563 81.3185 83.6368 108.697 84.5922 113.969Z" fill="#EF5A18"/>
<path d="M71.0189 73.071C64.7907 72.5733 56.2894 72.6711 49.4983 73.327C49.6279 76.7415 52.0663 84.1874 59.7134 84.2638C68.4651 84.3527 70.8235 77.984 71.0189 73.071Z" fill="#9E330D"/>
<path d="M68.1987 74.2815C63.5316 73.9047 57.1649 73.9526 52.0823 74.4041C52.1888 76.8642 54.0358 82.2357 59.7631 82.3122C66.3233 82.401 68.0726 77.8205 68.1987 74.2815Z" fill="#E0956C"/>
<path d="M96.0326 52.7152C95.1234 60.09 88.7922 65.4847 83.4929 65.4794C78.1936 65.474 76.4194 59.7559 76.4265 52.7668C76.4336 45.7777 80.7367 40.0969 86.036 40.12C93.2782 40.1537 96.8851 45.783 96.0326 52.7152Z" fill="#FFC19F"/>
<path d="M89.975 54.7611C89.975 57.8273 87.7782 60.3087 85.0771 60.3069C82.3759 60.3051 80.1915 57.8184 80.1951 54.7505C80.1986 51.6825 82.3901 49.2047 85.0895 49.2065C87.7889 49.2083 89.9768 51.6968 89.975 54.7611Z" fill="#E0956C"/>
<path d="M18.8887 63.3926C21.7604 70.2448 29.3187 73.7162 34.4173 72.28C39.516 70.8438 39.6723 64.8501 37.772 58.1241C35.8718 51.3981 30.1871 47.1037 25.0938 48.563C18.1304 50.5538 16.1876 56.9528 18.8887 63.3926Z" fill="#FFC19F"/>
<path d="M25.7456 63.6521C26.5803 66.601 29.3614 68.3944 31.9613 67.6586C34.5612 66.9227 35.9908 63.9258 35.1579 60.9859C34.325 58.0459 31.5404 56.2436 28.9422 56.9794C26.3441 57.7153 24.9109 60.7033 25.7456 63.6521Z" fill="#E0956C"/>
<path d="M18.077 33.5842C18.7093 58.0281 38.4397 71.5584 58.6833 68.7553C78.927 65.9522 93.1769 46.1101 87.89 22.953C84.9526 10.0947 69.9071 1.76895 50.5834 4.57026C30.3504 7.50311 17.626 16.1986 18.077 33.5842Z" fill="#752912"/>
<path d="M24.8452 29.6133C23.6198 33.7744 29.5638 68.1527 34.2167 72.4133C39.1502 76.9352 57.007 79.4468 60.6174 78.9474C64.4854 78.4141 80.7101 71.6988 83.2053 65.634C86.1568 58.4547 83.6333 27.4909 81.8929 24.0035C76.0128 12.2277 65.217 13.2977 51.1695 15.2423C38.0367 17.0607 28.0241 18.8168 24.8452 29.6133Z" fill="#FFC19F"/>
<path d="M33.9022 63.7446C33.9892 65.2003 36.083 66.2579 38.5764 66.1086C41.0698 65.9593 43.0162 64.6546 42.9327 63.1989C42.8492 61.7431 40.7519 60.6837 38.2585 60.8348C35.7651 60.9859 33.8045 62.2852 33.9022 63.7446Z" fill="#FF9797"/>
<path d="M73.5052 59.2084C73.7983 60.6304 76.0182 61.3876 78.4671 60.8864C80.9161 60.3851 82.6619 58.8209 82.3742 57.3918C82.0865 55.9627 79.8613 55.2108 77.414 55.7121C74.9668 56.2133 73.2051 57.7793 73.5052 59.2084Z" fill="#FF9797"/>
<path d="M54.9965 56.9066C55.0727 56.8961 55.1427 56.8589 55.1941 56.8016C55.2454 56.7443 55.2748 56.6707 55.2771 56.5937C55.3073 55.4472 56.094 54.5994 57.2785 54.4359C58.4631 54.2723 59.4771 54.8838 59.7861 55.9627C59.7971 56.0045 59.8163 56.0438 59.8427 56.0781C59.869 56.1124 59.9019 56.1411 59.9394 56.1625C59.9769 56.184 60.0184 56.1977 60.0613 56.2029C60.1042 56.2081 60.1477 56.2047 60.1893 56.1929C60.2308 56.1811 60.2696 56.1611 60.3034 56.1341C60.3371 56.1071 60.3652 56.0736 60.3859 56.0356C60.4065 55.9976 60.4194 55.9559 60.4238 55.9128C60.4281 55.8698 60.4239 55.8263 60.4113 55.785C60.0152 54.4056 58.6904 53.5862 57.188 53.7942C55.6855 54.0021 54.6661 55.1202 54.6271 56.5795C54.6259 56.6222 54.6331 56.6648 54.6484 56.7047C54.6636 56.7446 54.6866 56.7811 54.716 56.8121C54.7453 56.8432 54.7805 56.8681 54.8195 56.8855C54.8585 56.903 54.9005 56.9125 54.9432 56.9137L54.9965 56.9066Z" fill="#C67F75"/>
<path d="M32.5028 39.6596C32.7099 39.567 32.8756 39.4012 32.9681 39.1939C34.1988 36.4513 37.859 34.2063 41.4925 33.977C41.7365 33.9614 41.9643 33.8495 42.1258 33.6658C42.2873 33.4822 42.3694 33.2418 42.3538 32.9976C42.3383 32.7534 42.2265 32.5254 42.0429 32.3637C41.8594 32.202 41.6193 32.12 41.3753 32.1355C37.0438 32.4128 32.7994 35.063 31.2881 38.4403C31.2119 38.6107 31.1892 38.8003 31.223 38.984C31.2568 39.1676 31.3454 39.3367 31.4772 39.4688C31.6091 39.601 31.7779 39.6899 31.9613 39.724C32.1447 39.7581 32.3342 39.7356 32.5046 39.6596H32.5028Z" fill="#773220"/>
<path d="M76.114 33.0402C76.2428 33.053 76.3728 33.038 76.4953 32.9963C76.6179 32.9546 76.73 32.8872 76.8244 32.7985C76.9132 32.7165 76.985 32.6177 77.0356 32.5078C77.0862 32.398 77.1146 32.2792 77.1192 32.1583C77.1238 32.0374 77.1046 31.9168 77.0625 31.8034C77.0204 31.69 76.9564 31.586 76.8741 31.4974C74.363 28.7796 69.4952 27.6278 65.304 28.7512C65.18 28.7756 65.0624 28.8252 64.9584 28.8971C64.8543 28.9689 64.7662 29.0613 64.6994 29.1687C64.6326 29.2761 64.5885 29.396 64.57 29.5212C64.5515 29.6463 64.5589 29.7739 64.5917 29.896C64.6245 30.0182 64.6821 30.1322 64.7608 30.2312C64.8396 30.3301 64.9378 30.4118 65.0494 30.4711C65.161 30.5304 65.2836 30.5662 65.4096 30.5761C65.5356 30.586 65.6623 30.5698 65.7818 30.5287C69.2945 29.583 73.4821 30.5287 75.5226 32.7452C75.6761 32.9139 75.887 33.0191 76.114 33.0402V33.0402Z" fill="#773220"/>
<path d="M64.3645 53.9435C64.3645 53.9435 74.5245 55.8987 77.6412 50.305C81.4381 43.4777 73.8922 39.3397 69.4969 40.847C65.4282 42.2405 62.0682 46.3128 64.3645 53.9435Z" fill="#F9FEFF"/>
<path d="M77.4245 42.1996C75.3396 40.1324 72.8072 39.7112 70.2019 40.2835C67.5292 40.8754 65.0198 43.1275 64.4817 45.1947C65.6698 42.7898 68.0797 41.6753 69.5999 41.1545C72.0204 40.3226 75.4124 41.0514 77.1457 43.1257C78.6872 44.9707 78.9323 47.9836 77.5382 50.4881C79.323 48.6786 79.5965 44.3486 77.4245 42.1996Z" fill="#773220"/>
<path d="M65.81 47.0948C65.5842 47.9424 65.6146 48.8379 65.8973 49.6682C66.18 50.4985 66.7024 51.2262 67.3983 51.7594C68.0943 52.2925 68.9326 52.6071 69.8072 52.6633C70.6818 52.7196 71.5534 52.515 72.3118 52.0754C73.0702 51.6358 73.6814 50.981 74.068 50.1937C74.4545 49.4065 74.5991 48.5222 74.4835 47.6527C74.3679 46.7832 73.9973 45.9675 73.4185 45.3088C72.8398 44.6501 72.0788 44.178 71.2319 43.9522C70.0966 43.6495 68.8876 43.8105 67.8708 44.3998C66.8541 44.9892 66.1128 45.9586 65.81 47.0948V47.0948Z" fill="#63190D"/>
<path d="M66.0836 46.3518C66.0209 46.5869 66.0292 46.8353 66.1075 47.0656C66.1858 47.2959 66.3306 47.4978 66.5236 47.6457C66.7165 47.7937 66.949 47.881 67.1916 47.8967C67.4341 47.9125 67.6759 47.8558 67.8863 47.734C68.0967 47.6122 68.2663 47.4306 68.3736 47.2123C68.4809 46.994 68.5211 46.7488 68.4892 46.5076C68.4572 46.2664 68.3545 46.0402 68.1941 45.8574C68.0336 45.6746 67.8227 45.5436 67.5878 45.4809C67.273 45.3968 66.9376 45.4413 66.6555 45.6046C66.3734 45.7679 66.1677 46.0367 66.0836 46.3518V46.3518Z" fill="#FEFFFE"/>
<path d="M49.5854 55.7459C49.5854 55.7459 40.173 60.0385 35.8256 55.3228C30.5351 49.5762 36.9018 43.7834 41.528 44.2171C45.8097 44.617 50.0311 47.7881 49.5854 55.7459Z" fill="#F9FEFF"/>
<path d="M34.1385 47.3863C35.68 44.8872 38.0331 43.8794 40.7094 43.8314C43.4461 43.7798 46.4119 45.3725 47.4206 47.2619C45.7033 45.2036 43.098 44.6863 41.4979 44.537C38.9495 44.2953 35.8149 45.7991 34.6251 48.2218C33.5595 50.3779 34.0248 53.364 35.9677 55.4721C33.8117 54.1372 32.5295 49.9904 34.1385 47.3863Z" fill="#773220"/>
<path d="M38.6209 50.4241C38.395 51.2717 38.4253 52.1673 38.708 52.9977C38.9907 53.8281 39.5131 54.5559 40.2092 55.0891C40.9052 55.6222 41.7436 55.9368 42.6183 55.993C43.493 56.0492 44.3647 55.8445 45.1232 55.4047C45.8816 54.965 46.4927 54.31 46.8791 53.5226C47.2656 52.7352 47.41 51.8508 47.2942 50.9812C47.1783 50.1116 46.8074 49.296 46.2284 48.6374C45.6493 47.9788 44.8881 47.507 44.041 47.2815C43.479 47.1316 42.8929 47.094 42.3164 47.1708C41.7398 47.2477 41.184 47.4374 40.6807 47.7292C40.1774 48.021 39.7364 48.4092 39.383 48.8716C39.0296 49.334 38.7707 49.8615 38.6209 50.4241V50.4241Z" fill="#63190D"/>
<path d="M38.8927 49.6811C38.83 49.9161 38.8383 50.1645 38.9166 50.3948C38.9949 50.6251 39.1397 50.827 39.3327 50.975C39.5256 51.1229 39.7581 51.2103 40.0007 51.226C40.2432 51.2417 40.485 51.1851 40.6954 51.0632C40.9058 50.9414 41.0754 50.7599 41.1827 50.5416C41.29 50.3233 41.3302 50.078 41.2983 49.8369C41.2663 49.5957 41.1636 49.3694 41.0032 49.1866C40.8428 49.0039 40.6318 48.8728 40.3969 48.8101C40.082 48.726 39.7467 48.7705 39.4646 48.9338C39.1825 49.0972 38.9768 49.366 38.8927 49.6811V49.6811Z" fill="#FEFFFE"/>
<path d="M58.021 62.1821H58.0903C60.5002 62.1004 62.594 62.7296 63.6951 63.8672C63.7572 63.9422 63.7887 64.0379 63.7832 64.1351C63.7778 64.2324 63.7357 64.3239 63.6656 64.3915C63.5954 64.459 63.5023 64.4974 63.405 64.4991C63.3077 64.5007 63.2134 64.4655 63.141 64.4004C62.2033 63.4317 60.28 62.8771 58.1187 62.95H58.0548C55.9059 63.0353 54.0341 63.7268 53.1639 64.7612C53.0969 64.8385 53.0025 64.8865 52.9007 64.8951C52.7989 64.9038 52.6977 64.8723 52.6187 64.8075C52.541 64.7407 52.4928 64.6459 52.4844 64.5437C52.4761 64.4416 52.5084 64.3403 52.5743 64.2618C53.5937 63.0549 55.6271 62.2852 58.021 62.1821Z" fill="#934341"/>
<path d="M53.9239 26.2787C54.9057 26.2787 55.7016 25.4821 55.7016 24.4994C55.7016 23.5168 54.9057 22.7202 53.9239 22.7202C52.9421 22.7202 52.1462 23.5168 52.1462 24.4994C52.1462 25.4821 52.9421 26.2787 53.9239 26.2787Z" fill="#FF1F1F"/>
<path d="M79.0194 95.6735C84.2246 94.6977 92.1896 86.8519 91.8539 85.1419C87.3609 82.0118 82.3563 74.98 75.48 74.4646C76.8226 81.5443 79.0194 95.6735 79.0194 95.6735Z" fill="#EF5A18"/>
<path d="M122.671 77.4454C122.629 77.8276 122.611 78.6203 120.118 79.4771C119.706 79.6193 122.107 79.2193 121.807 79.6868C120.972 80.9933 119.28 82.6765 116.376 84.2194C110.629 87.2696 105.619 86.1178 104.738 84.3847C104.119 83.1636 107.876 72.9359 112.968 71.7646C113.479 71.6472 111.355 75.4582 111.92 75.6484C112.691 75.9097 113.914 74.7454 115.753 74.3917C119.837 73.606 122.753 73.6362 122.066 75.012C121.828 75.4866 115.358 78.0533 115.369 78.3217C115.38 78.5901 122.698 77.1592 122.671 77.4454Z" fill="#FFC19F"/>
<path d="M102.275 9.18818C101.471 9.14471 100.677 8.98855 99.9165 8.72426C99.1508 8.49955 98.4365 8.12697 97.8138 7.62755C97.2189 7.15118 96.9844 6.60194 97.1478 5.9887C97.5314 4.54005 98.391 3.32247 99.6341 2.3022C100.798 1.3197 102.232 0.713561 103.747 0.563815C105.423 0.390481 107.114 0.698762 108.622 1.45256C110.02 2.14225 111.225 3.16904 112.128 4.44051C112.993 5.67241 113.514 7.11319 113.637 8.61405C113.768 10.1692 113.376 11.7234 112.526 13.0311C111.627 14.4922 110.039 15.5285 107.731 16.1168C107.178 16.259 106.93 16.7283 106.983 17.5299C107.017 17.8428 106.713 18.0792 106.075 18.2409C105.381 18.4055 104.67 18.4925 103.957 18.5004C103.249 18.5213 102.541 18.4617 101.847 18.3227C101.215 18.1929 100.925 17.9885 100.978 17.7059C100.751 16.3195 100.738 15.183 100.938 14.2967C101.113 13.4612 101.489 12.681 102.033 12.0233C102.72 11.2227 103.64 10.6571 104.664 10.4058C105.745 10.1196 106.397 9.7783 106.617 9.37481C107.047 8.55717 106.637 8.00793 105.408 7.74308C104.179 7.47824 103.491 7.7182 103.339 8.46474C103.221 8.99088 102.867 9.23202 102.275 9.18818ZM104.726 27.5194C104.182 27.5807 103.632 27.5164 103.117 27.3315C102.602 27.1466 102.137 26.8461 101.756 26.4529C101.358 26.0855 101.06 25.6215 100.893 25.1057C100.725 24.5898 100.693 24.0395 100.799 23.5076C100.867 23.0526 101.024 22.6157 101.262 22.2223C101.5 21.8289 101.814 21.487 102.186 21.2164C102.553 20.9308 102.977 20.7266 103.429 20.6175C103.881 20.5084 104.351 20.4968 104.807 20.5836C105.493 20.7007 106.14 20.9791 106.697 21.3959C107.252 21.8181 107.632 22.431 107.762 23.1166C107.884 23.6101 107.897 24.124 107.801 24.6231C107.705 25.1222 107.503 25.5948 107.208 26.0085C106.936 26.4314 106.571 26.7869 106.141 27.0486C105.711 27.3102 105.228 27.4712 104.727 27.5194H104.726Z" fill="#969696"/>
<path d="M14.4737 46.7429C18.4819 44.777 20.7764 41.7553 20.2348 34.8462C17.7645 34.5973 16.5373 34.0125 14.1221 33.4935C22.8898 30.1678 20.0838 17.2864 31.2525 10.5088C49.7398 0.944187 67.9749 4.38896 73.3914 6.80101C83.3703 11.2447 85.3646 18.5324 86.9825 26.7622C89.1296 34.1441 91.0422 36.1829 95.1304 37.4591C91.0813 39.1566 88.4796 38.3372 86.8955 37.0343C87.8473 41.7251 90.1969 42.98 92.843 44.8072C86.3449 45.8737 83.2726 40.8968 81.5535 36.2575C79.6462 31.1117 79.8344 24.9296 78.7724 22.9477C78.1597 21.8012 73.0682 15.356 71.2585 15.5071C67.3107 15.836 64.5598 30.1376 50.61 31.4832C55.8827 27.7913 58.4595 23.1183 60.8517 16.6003C59.7669 17.4359 58.7637 18.3727 57.8557 19.3981C47.5892 30.9162 37.3404 34.6702 27.4219 34.9226C28.1802 45.1201 31.5065 50.081 19.5262 55.3335C20.4923 53.7995 21.6573 49.3842 21.517 46.0141C20.2827 46.9989 17.9296 47.9996 14.4737 46.7429Z" fill="#752912"/>
<g opacity="0.4">
<path opacity="0.4" d="M83.3313 107.192C83.2176 106.586 83.0951 105.947 82.9761 105.297C79.1508 107.592 73.3862 110.045 62.5389 110.068C51.4323 110.117 44.7798 107.618 41.1835 105.837C41.1018 106.488 41.0201 107.131 40.9456 107.737C44.4086 109.374 50.2354 111.442 59.36 111.826C60.3818 111.868 61.4432 111.889 62.5442 111.888C73.3365 111.866 79.3213 109.508 83.3313 107.192Z" fill="white"/>
<path opacity="0.4" d="M83.5444 108.322C79.8416 110.741 74.1818 113.699 62.34 113.726C50.7095 113.726 44.0783 110.992 40.752 109.264C40.5744 110.761 40.4092 112.062 40.2849 113.093C43.8172 114.771 49.7914 116.906 59.1096 117.3C60.145 117.343 61.2247 117.368 62.3436 117.362C73.9776 117.337 80.1631 114.65 84.2566 112.165C84.0683 111.113 83.8268 109.819 83.5444 108.322Z" fill="white"/>
</g>
</svg>
