<svg width="28" height="35" viewBox="0 0 28 35" fill="none" xmlns="http://www.w3.org/2000/svg">
<path d="M18.7848 0H0V35H27.8288V9.04401L18.7848 0ZM23.1678 8.24531H19.5846V4.66189L23.1678 8.24531ZM2.73029 32.2697V2.73029H16.8543V9.61045C16.8543 10.3644 17.4653 10.9756 18.2194 10.9756H25.0985V32.2697H2.73029Z" fill="white"/>
<path d="M21.7417 27.1216H6.08691V28.9418H21.7417V27.1216Z" fill="white"/>
<path d="M15.3805 10.0295H6.08691V11.8497H15.3805V10.0295Z" fill="white"/>
<path d="M18.484 15.8239H19.4927L15.5941 19.7224L12.5456 16.6739L5.80615 23.4139L7.09303 24.7011L12.5456 19.2482L15.5941 22.2965L20.7798 17.1107V18.1173H22.6V14.0037H18.484V15.8239Z" fill="white"/>
<path d="M15.3805 6.05817H6.08691V7.87836H15.3805V6.05817Z" fill="white"/>
</svg>
