<svg width="308" height="154" viewBox="0 0 308 154" fill="none" xmlns="http://www.w3.org/2000/svg">
<path d="M-120 148.398C-119.798 148.222 -119.415 148.344 -119.319 147.953C-119.298 147.864 -119.024 147.793 -118.864 147.789C-118.158 147.764 -117.451 147.755 -116.749 147.768C-116.476 147.772 -116.227 147.768 -116.059 147.512C-115.231 146.247 -113.826 145.961 -112.552 145.465C-112.526 145.457 -112.501 145.457 -112.476 145.448C-111.542 145.058 -110.592 144.73 -109.565 144.663C-109.166 144.637 -108.817 144.411 -108.632 144.024C-108.573 143.898 -108.531 143.684 -108.598 143.595C-108.947 143.121 -109.33 142.671 -109.746 142.154C-109.675 142.095 -109.565 141.965 -109.422 141.889C-109.052 141.692 -108.674 141.524 -108.295 141.339C-107.622 141.011 -107.635 141.011 -107.694 140.234C-107.706 140.066 -107.631 139.885 -107.58 139.713C-107.425 139.154 -107.324 138.604 -107.635 138.15C-107.328 137.427 -107.063 136.763 -106.764 136.116C-106.684 135.948 -106.516 135.738 -106.361 135.713C-106.218 135.692 -106.02 135.872 -105.885 136.003C-105.755 136.133 -105.675 136.309 -105.553 136.498C-104.741 135.456 -104.741 135.456 -104.102 136.267C-103.803 136.259 -103.492 136.309 -103.4 135.86C-103.374 135.734 -103.156 135.624 -103 135.553C-102.815 135.469 -102.592 135.461 -102.416 135.368C-102.184 135.25 -102.003 135.25 -101.759 135.355C-101.398 135.507 -101.011 135.561 -100.658 135.25C-100.557 135.162 -100.321 135.087 -100.237 135.145C-99.6355 135.545 -99.0929 135.259 -98.5378 135.049C-98.4453 135.015 -98.3401 135.011 -98.1256 134.973C-98.0878 135.431 -98.0541 135.851 -98.0205 136.267C-97.6377 136.322 -97.6041 136.053 -97.562 135.834C-97.3265 134.591 -96.7924 133.456 -96.2835 132.309C-95.4718 130.473 -94.3404 128.851 -92.9861 127.384C-91.472 125.742 -89.7392 124.363 -87.834 123.187C-86.2232 122.195 -84.4315 121.737 -82.6356 121.267C-82.0048 121.103 -81.3613 120.972 -80.7304 120.813C-80.4907 120.75 -80.2678 120.636 -80.0785 120.565C-80.272 120.124 -80.3771 119.729 -80.6 119.418C-80.743 119.216 -81.05 119.086 -81.3066 119.023C-81.6557 118.934 -82.03 118.943 -82.3959 118.913C-82.7282 118.888 -82.9258 118.708 -82.9679 118.38C-83.0268 117.943 -83.073 117.506 -83.1361 116.997C-82.7702 116.867 -82.4338 116.754 -82.0216 116.607C-82.0216 110.556 -82.0216 104.476 -82.0216 98.3242C-81.3739 98.3704 -80.8145 98.4251 -80.2509 98.4503C-78.4677 98.5259 -76.7012 98.6982 -75.0147 99.3159C-74.4806 99.5133 -73.9633 99.7823 -73.4796 100.085C-72.6805 100.585 -72.2473 101.329 -72.1422 102.278C-71.9992 103.556 -71.3178 104.396 -70.0897 104.635C-68.4537 104.959 -66.8092 105.341 -65.1269 105.257C-64.2563 105.215 -63.3899 105.06 -62.4856 104.955C-63.8189 105.942 -65.2951 106.514 -67.0952 106.669C-66.3087 107.144 -65.6063 107.232 -64.9124 107.224C-64.2142 107.211 -63.5203 107.073 -62.6665 106.972C-62.8936 107.136 -63.0071 107.249 -63.1417 107.308C-65.2236 108.266 -67.4232 108.694 -69.7028 108.539C-71.7132 108.405 -73.2861 107.493 -74.182 105.598C-74.6152 104.673 -75.4143 104.19 -76.3395 103.913C-77.4499 103.581 -78.5939 103.476 -79.7547 103.572C-80.2173 103.61 -80.6799 103.677 -81.1804 103.736C-81.1804 108.005 -81.1804 112.228 -81.1804 116.497C-80.028 116.72 -78.9556 116.409 -77.9041 116.035C-76.8947 115.674 -76.8106 115.577 -76.5498 115.178C-76.7727 115.056 -77.0041 114.947 -77.2144 114.808C-78.0345 114.258 -78.0177 113.375 -77.1807 112.854C-76.9662 112.72 -76.7475 112.602 -76.4699 112.443C-76.9326 112.123 -77.412 111.938 -77.4373 111.337C-77.4625 110.762 -77.0419 110.531 -76.655 110.22C-76.6886 110.123 -76.7181 110.031 -76.7517 109.942C-76.9031 109.56 -76.1881 109.266 -76.6382 108.854C-76.5246 108.493 -76.4405 108.115 -76.2933 107.766C-76.1377 107.392 -75.919 107.039 -75.7297 106.682C-75.7213 106.669 -75.6792 106.669 -75.5489 106.644C-75.4647 107.493 -74.775 108.194 -75.0315 109.14C-75.0484 109.203 -75.0315 109.316 -74.9853 109.35C-74.5689 109.636 -74.8759 109.947 -74.9642 110.207C-74.9264 110.295 -74.9222 110.367 -74.8885 110.388C-74.1525 110.808 -74.2703 110.888 -74.5226 111.661C-74.5773 111.829 -74.7498 111.972 -74.7792 112.14C-74.8086 112.321 -74.7371 112.522 -74.6825 112.703C-74.6656 112.766 -74.5689 112.804 -74.51 112.859C-73.6857 113.615 -73.6352 114.338 -74.5857 114.972C-74.7413 115.077 -74.8507 115.254 -75.04 115.455C-74.0726 115.926 -73.2146 116.401 -72.3146 116.775C-71.1286 117.262 -70.8005 117.771 -70.9771 119.056C-71.0066 119.258 -71.0024 119.477 -70.9603 119.678C-70.8762 120.077 -70.9519 120.388 -71.5618 120.619C-71.158 120.783 -70.9393 120.893 -70.7122 120.964C-68.6093 121.615 -66.5821 122.439 -64.6222 123.439C-62.4352 124.552 -60.6687 126.166 -59.1126 128.019C-57.2115 130.284 -55.7437 132.797 -54.9614 135.675C-54.8311 136.15 -54.7469 136.637 -54.625 137.208C-53.6282 136.99 -52.93 137.654 -52.2151 138.23C-51.7524 137.561 -52.4884 137.587 -52.6567 137.175C-52.4253 136.881 -52.1898 136.511 -51.8828 136.208C-51.6725 136.003 -51.5842 135.813 -51.6262 135.528C-51.7482 134.675 -51.5589 134.532 -50.6799 134.818C-50.6463 135.192 -50.6126 135.578 -50.5748 135.99C-50.2047 136.271 -49.7462 136.515 -49.6495 137.061C-49.6285 137.179 -49.5948 137.318 -49.6327 137.423C-49.8051 137.893 -49.8135 137.893 -49.2752 138.116C-49.2289 137.973 -49.1953 137.826 -49.128 137.7C-49.0565 137.566 -48.9724 137.351 -48.8672 137.335C-48.3331 137.242 -47.7779 137.108 -47.2564 137.175C-46.962 137.213 -46.6928 137.587 -46.4531 137.843C-46.2975 138.007 -46.2933 138.402 -45.8306 138.032C-46.0662 137.788 -46.2849 137.557 -46.5456 137.284C-46.2386 137.007 -45.7844 136.872 -45.6204 136.368C-45.5152 136.045 -45.1703 135.847 -45.4395 135.41C-45.5026 135.305 -45.1409 134.939 -45.0021 134.729C-44.4343 134.83 -44.4848 135.242 -44.3839 135.54C-44.2493 135.944 -44.1315 136.339 -43.6142 136.356C-43.1305 135.83 -43.3871 134.893 -42.4996 134.603C-42.3945 134.86 -42.0917 134.977 -42.1464 135.376C-42.1716 135.574 -41.9277 135.847 -41.7426 136.024C-41.5533 136.204 -41.28 136.301 -41.0276 136.103C-40.7963 135.923 -40.9014 135.717 -40.9813 135.477C-41.2169 134.742 -40.8383 134.473 -39.7659 134.671C-39.7659 134.902 -39.7953 135.158 -39.7617 135.406C-39.6818 135.994 -39.0929 136.33 -38.727 135.99C-38.6051 135.876 -38.5882 135.637 -38.542 135.452C-38.4747 135.179 -38.4747 134.876 -38.3443 134.637C-38.2728 134.507 -37.9826 134.406 -37.8228 134.435C-37.6672 134.465 -37.4106 134.721 -37.4359 134.818C-37.6209 135.545 -37.0195 135.788 -36.6704 136.238C-36.4895 136.078 -36.3213 135.956 -36.1909 135.801C-35.9807 135.549 -35.7451 135.326 -35.947 134.91C-36.0858 134.62 -35.8377 134.309 -35.5685 134.292C-35.2699 134.276 -34.9923 134.502 -34.9628 134.784C-34.8871 135.582 -34.8871 135.582 -34.1679 136.082C-33.9619 135.839 -33.7474 135.595 -33.5413 135.339C-33.3941 135.154 -33.3268 134.998 -33.4908 134.738C-33.6254 134.523 -33.331 134.183 -33.045 134.137C-32.7969 134.095 -32.4183 134.334 -32.494 134.561C-32.7632 135.36 -32.0819 135.57 -31.6655 136.078C-31.3374 135.666 -31.043 135.301 -30.7613 134.944C-30.9337 134.687 -31.0472 134.519 -31.2071 134.28C-30.9631 134.166 -30.7739 134.023 -30.5636 133.986C-30.0799 133.902 -29.836 134.15 -29.9958 134.603C-30.0799 134.843 -30.0715 134.986 -29.9243 135.145C-29.8023 135.276 -29.6551 135.381 -29.5416 135.515C-29.428 135.65 -29.3397 135.809 -29.2261 135.977C-28.8855 135.797 -28.9443 135.511 -29.0158 135.288C-29.1462 134.881 -29.0327 134.629 -28.713 134.343C-28.3135 133.986 -27.9223 133.696 -27.3798 133.582C-26.7994 133.465 -26.6185 133.028 -26.791 132.368C-26.9003 131.956 -27.1274 131.885 -27.8004 132.044C-27.8929 132.544 -27.3588 132.376 -27.1989 132.603C-27.7793 133.175 -28.0527 133.133 -28.671 132.347C-28.5406 131.754 -28.1915 131.28 -27.6952 130.918C-26.8751 130.322 -26.5975 129.443 -26.6185 128.523C-26.6396 127.565 -26.8372 126.611 -26.9802 125.657C-27.0097 125.46 -27.1316 125.263 -27.2536 125.103C-28.099 123.977 -28.9443 122.846 -29.8149 121.741C-30.2818 121.149 -30.471 121.128 -31.144 121.418C-31.2365 121.456 -31.329 121.506 -31.4089 121.548C-32.3763 120.956 -33.8483 121.246 -34.4918 122.149C-34.6264 122.338 -34.7399 122.548 -34.8409 122.762C-35.3666 123.872 -35.947 124.183 -37.1457 123.998C-37.2718 123.977 -37.398 123.96 -37.5747 123.939C-37.7092 124.615 -38.0205 125.17 -38.5252 125.611C-38.6135 125.687 -38.706 125.859 -38.6808 125.952C-38.5336 126.506 -38.9331 126.746 -39.2822 127.04C-39.7196 126.834 -40.0561 126.565 -40.1023 126.01C-40.1192 125.809 -40.2748 125.531 -40.4472 125.443C-40.8594 125.229 -40.9393 124.863 -41.0276 124.485C-41.2127 123.683 -41.4398 123.477 -42.2137 123.414C-42.8277 123.363 -43.0254 123.044 -42.7983 122.46C-42.7688 122.388 -42.752 122.3 -42.6973 122.25C-41.9066 121.493 -42.1253 120.594 -42.3356 119.577C-43.1179 120.174 -43.7067 120.905 -44.6572 121.17C-45.6077 121.435 -46.5036 120.993 -47.513 121.098C-47.3489 122.199 -47.656 122.968 -48.9135 123.09C-48.7116 123.531 -48.8841 123.809 -49.1701 124.103C-49.3972 124.334 -49.5822 124.502 -49.9019 124.351C-50.2215 124.199 -50.3687 123.935 -50.314 123.586C-50.2846 123.384 -50.2089 123.187 -50.1416 122.943C-50.6168 122.783 -51.0711 122.628 -51.6136 122.443C-51.5505 122.174 -51.4959 121.935 -51.437 121.695C-51.2982 121.157 -51.3445 121.073 -51.8281 120.767C-52.2739 120.481 -52.5053 120.111 -52.4338 119.527C-52.3076 118.518 -52.2529 117.502 -52.1772 116.485C-52.1646 116.287 -52.1982 116.081 -52.2151 115.85C-53.1067 115.72 -53.9563 115.615 -54.8016 115.468C-56.8246 115.119 -58.7509 114.485 -60.572 113.527C-60.9884 113.308 -61.287 113.064 -61.3416 112.543C-61.3669 112.3 -61.6234 112.081 -61.8506 111.741C-61.7076 111.615 -61.4931 111.35 -61.2197 111.199C-59.1462 110.039 -57.0601 108.896 -54.9783 107.757C-54.6628 107.585 -54.3222 107.455 -53.931 107.274C-54.053 106.808 -54.1623 106.371 -54.2927 105.867C-53.4894 105.442 -53.5441 104.556 -53.4558 103.787C-53.338 102.778 -52.9763 101.883 -52.5389 100.997C-52.2866 100.48 -51.8323 100.19 -51.4832 99.9671C-51.4496 99.7318 -51.4748 99.5091 -51.4075 99.4755C-51.0753 99.3159 -50.7809 99.1184 -50.4781 98.9125C-50.2257 98.7402 -49.8304 98.7444 -49.5864 98.4377C-49.5275 98.362 -49.292 98.4082 -49.1448 98.4335C-49.006 98.4545 -48.8756 98.5259 -48.7284 98.5805C-48.6527 97.8956 -48.6527 97.8956 -47.9882 97.9586C-47.9672 98.0217 -47.9083 98.1015 -47.9209 98.1645C-47.963 98.383 -48.0092 98.6394 -47.719 98.6436C-47.576 98.6436 -47.4246 98.4082 -47.2985 98.2612C-47.2354 98.1898 -47.1765 98.0553 -47.2017 97.9797C-47.3994 97.3494 -46.9241 97.4712 -46.5625 97.3746C-46.491 97.6183 -46.4237 97.8284 -46.3564 98.0595C-46.2891 98.0721 -46.2092 98.1099 -46.1419 98.0931C-45.7255 98.0049 -45.532 97.6729 -45.4605 97.3158C-45.3764 96.8956 -45.0988 96.8704 -44.7287 96.8073C-44.5857 97.2443 -44.4469 97.6561 -44.3123 98.0679C-43.4838 97.8746 -43.2945 97.5427 -43.5805 96.6813C-43.3282 96.614 -43.08 96.5468 -42.7941 96.4712C-42.6342 97.1267 -42.6132 97.7738 -41.8856 98.0301C-41.4818 97.5679 -40.9561 97.1645 -41.1244 96.3913C-41.1454 96.2863 -40.9687 96.0804 -40.8384 96.0216C-40.7458 95.9796 -40.5229 96.0636 -40.4514 96.1602C-40.3505 96.2947 -40.321 96.4922 -40.2832 96.6687C-40.1738 97.1519 -39.9972 97.3452 -39.6691 97.32C-39.135 97.2779 -38.7523 96.9838 -38.7102 96.572C-38.6934 96.4165 -38.6808 96.2485 -38.7355 96.1056C-38.87 95.7485 -38.6766 95.6014 -38.3864 95.5804C-38.1088 95.5594 -37.9406 95.7737 -37.9658 96.03C-38.0289 96.6771 -37.5957 97.0006 -37.133 97.4502C-36.7545 96.8956 -35.9722 96.6561 -36.2666 95.7653C-36.3045 95.6476 -36.1573 95.3703 -36.0311 95.3157C-35.8208 95.2232 -35.5601 95.2526 -35.2068 95.2232C-35.5054 96.1098 -35.2446 96.6771 -34.4413 97.0552C-34.0838 96.5762 -33.7095 96.0888 -33.3604 95.5846C-33.3058 95.5089 -33.4151 95.3367 -33.3941 95.219C-33.3436 94.9333 -33.1796 94.7484 -32.8557 94.7694C-32.5782 94.7862 -32.4183 94.9123 -32.4394 95.2148C-32.4856 95.9712 -31.8926 96.2611 -31.3416 96.7149C-30.8496 96.0888 -30.0673 95.7106 -30.122 94.7442C-30.1262 94.6434 -29.8991 94.4753 -29.7477 94.4291C-29.4953 94.3492 -29.3397 94.5425 -29.3145 94.761C-29.2345 95.4627 -28.7214 95.8661 -28.2882 96.4418C-28.0359 96.1182 -27.855 95.8367 -27.6279 95.6056C-27.3924 95.3661 -27.0938 95.1854 -26.8625 94.9417C-26.7615 94.8324 -26.7363 94.6308 -26.7237 94.4669C-26.69 94.0509 -26.4966 93.8324 -26.118 93.8366C-25.7647 93.8408 -25.6007 94.0215 -25.6806 94.4753C-25.7521 94.8619 -25.5839 95.0425 -25.3063 95.2358C-25.1002 95.3787 -24.932 95.5636 -24.7007 95.7737C-24.2465 95.7695 -23.8469 95.5594 -23.5735 95.0761C-23.4473 94.8577 -23.2202 94.7022 -23.0226 94.5047C-22.9973 94.261 -23.2833 93.9921 -22.9637 93.7316C-22.6314 93.4626 -22.3286 93.4836 -22.194 93.8954C-21.9795 94.5509 -21.6473 95.1098 -21.1089 95.551C-20.6 95.9712 -20.0659 95.8451 -19.8346 95.2442C-19.7631 95.0635 -19.6453 94.8829 -19.5065 94.7484C-19.2247 94.4711 -19.0439 94.1896 -19.1112 93.761C-19.1785 93.3324 -19.0229 93.1559 -18.6401 93.1517C-18.291 93.1475 -18.1018 93.2861 -18.1691 93.6811C-18.2069 93.8954 -18.1775 94.1181 -18.1775 94.4081C-17.555 94.6812 -17.2732 95.6476 -16.3017 95.5089C-15.8475 94.9879 -15.3722 94.4711 -14.9348 93.9248C-14.8297 93.7946 -14.8507 93.5509 -14.8465 93.3576C-14.8339 93.0298 -14.674 92.8912 -14.3502 92.8954C-14.039 92.8996 -13.7614 92.9416 -13.7404 93.3366C-13.7277 93.5677 -13.7404 93.803 -13.7404 94.0845C-13.5974 94.198 -13.3408 94.303 -13.2483 94.4921C-12.8403 95.3241 -12.1295 95.0719 -11.486 95.0215C-11.1622 94.9963 -10.9477 94.8114 -10.8089 94.4669C-10.6954 94.1854 -10.4178 93.9669 -10.1402 93.6391C-10.1402 93.6013 -10.1234 93.4206 -10.1444 93.2441C-10.1864 92.8365 -10.0224 92.5886 -9.66493 92.5508C-9.32006 92.5172 -9.16865 92.6937 -9.16023 93.1559C-9.15603 93.3618 -9.16023 93.5677 -9.16023 93.8072C-9.07191 93.8828 -8.92051 93.9626 -8.8406 94.0887C-8.36955 94.824 -7.62512 94.7484 -6.90593 94.7904C-6.5947 94.8072 -6.43066 94.6854 -6.3087 94.4081C-6.22038 94.2022 -6.10262 93.9332 -5.92597 93.8534C-5.46333 93.6391 -5.34137 93.2861 -5.37922 92.8449C-5.40446 92.5382 -5.33716 92.3029 -5.0049 92.2903C-4.7147 92.2777 -4.59694 92.5088 -4.58852 92.7609C-4.56329 93.5425 -3.94504 93.9921 -3.56231 94.7232C-3.1922 94.2274 -2.88518 93.8156 -2.5403 93.3576C-2.59077 93.3114 -2.71274 93.2021 -2.88097 93.0508C-2.63703 92.7609 -2.39309 92.471 -2.06084 92.0802C-1.84213 92.4458 -1.69073 92.7063 -1.53091 92.9626C-1.39212 93.1895 -1.37949 93.6223 -0.984146 93.4794C-0.668716 93.366 -0.563568 93.0256 -0.588806 92.6643C-0.626656 92.1264 -0.496277 92.0256 0.210297 92.013C0.26918 92.429 0.328056 92.8492 0.399551 93.3618C0.576195 93.5046 0.83696 93.7105 1.1566 93.9626C1.62345 93.1181 2.00198 92.3029 2.13235 91.4373C2.22067 90.8406 2.33002 90.2356 2.37628 89.6221C2.43517 88.8784 2.0945 88.4456 1.7328 87.9539C1.61504 87.7943 1.45521 87.664 1.30801 87.5127C1.60241 86.9875 2.00617 86.6808 2.50246 86.4791C2.91462 86.311 3.32681 86.1471 3.72215 85.9496C3.9787 85.8194 4.16796 85.6303 4.20581 85.2942C4.44554 83.1428 4.70629 80.9956 4.95864 78.8485C4.96706 78.7728 4.95864 78.693 4.95864 78.5543C4.79041 78.4325 4.58854 78.2854 4.29834 78.0711C5.11847 77.7686 5.03436 77.0626 5.20679 76.466C5.82084 74.365 6.46012 72.2683 7.08258 70.1674C7.22978 69.6715 7.36017 69.1715 7.50737 68.6253C7.14988 68.579 6.85546 68.537 6.51058 68.4908C6.64517 67.8143 7.2466 68.0916 7.67139 67.8101C8.65134 63.0914 9.96355 58.36 11.6753 53.7632C13.3871 49.1705 15.3302 44.6619 17.1849 40.0776C17.0083 39.9936 16.8527 39.9011 16.6844 39.8423C15.8727 39.5482 15.5951 39.1952 15.6372 38.359C15.6666 37.7624 15.7676 37.1657 15.8475 36.5732C15.8979 36.1783 16.226 36.1194 16.533 36.0354C17.3742 35.8043 17.37 35.8043 17.3616 34.9345C17.3574 34.0437 17.3574 33.1571 17.3574 32.2663C17.3574 31.7747 17.3784 31.3041 17.0503 30.8503C16.7391 30.4175 16.8569 29.8754 17.0966 29.43C17.349 28.9594 17.349 28.4888 17.3069 27.9888C17.2648 27.4678 17.2606 26.9467 17.248 26.4215C17.2396 25.9299 17.2102 25.4592 17.0335 24.9676C16.8989 24.5895 17.0209 24.1104 17.0672 23.6776C17.0966 23.4003 17.248 23.1272 17.2564 22.8541C17.2732 21.833 17.269 20.8162 17.2396 19.7951C17.2312 19.5556 17.1597 19.2783 17.0209 19.0892C16.7139 18.6732 16.6844 18.2572 16.9536 17.8538C17.1723 17.5219 17.2018 17.1815 17.2018 16.8118C17.2059 16.0806 17.2228 15.3495 17.2396 14.6184C17.2522 14.1225 17.2606 13.6603 16.8947 13.2233C16.5919 12.862 16.6129 12.3662 16.9115 11.9796C17.1597 11.6602 17.2059 11.3325 17.2018 10.9585C17.1933 9.83242 17.2144 8.71052 17.1891 7.58441C17.1807 7.29028 17.1008 6.97093 16.962 6.71042C16.7181 6.25241 16.7307 5.83222 16.9031 5.35741C17.0335 5.00025 17.1176 4.60947 17.1344 4.2313C17.1807 3.02956 17.1807 1.82782 17.2018 0.626082C17.2059 0.449602 17.227 0.277325 17.248 0C18.4382 0.0420189 19.5822 0.0546246 20.722 0.126057C22.581 0.24371 24.4105 0.516832 26.1769 1.13871C27.0223 1.43705 27.8214 1.82362 28.5111 2.39508C29.2388 3.00015 29.7224 3.74809 29.8192 4.71872C30.0042 6.62638 30.9758 7.72727 32.8642 8.08023C34.2479 8.34075 35.6442 8.56765 37.0405 8.72732C38.8448 8.92902 40.6365 8.85338 42.3945 8.27352C40.6533 9.60132 38.7439 10.4921 36.5022 10.6308C37.419 11.2317 38.4537 11.3955 39.5093 11.3031C40.5356 11.2106 41.5491 10.9837 42.6048 10.8619C42.0454 11.1308 41.4945 11.4207 40.9225 11.6644C38.3527 12.7611 35.6568 13.1813 32.8768 13.0175C31.1692 12.9166 29.7014 12.2191 28.4439 11.0342C28.2883 11.114 28.1326 11.1896 27.9812 11.2653C28.0149 11.3535 28.0191 11.4123 28.0527 11.4375C29.3355 12.4712 29.3187 13.0469 27.9476 14.0469C28.1831 14.3284 28.4228 14.61 28.6878 14.9251C28.4481 15.1142 28.2714 15.2529 28.0485 15.4293C28.5238 15.8705 29.0831 16.2613 29.1336 16.9714C29.1841 17.7278 28.5995 18.0471 28.0275 18.4463C28.3219 18.606 28.5911 18.7236 28.835 18.8833C29.2303 19.1438 29.2388 19.3917 28.8728 19.6859C28.7719 19.7657 28.6541 19.8245 28.5406 19.8875C28.427 19.9464 28.3135 19.9968 28.0864 20.106C28.3051 20.2237 28.4523 20.2951 28.591 20.3792C28.8602 20.5388 29.1504 20.6733 29.386 20.875C30.1136 21.4801 30.1893 22.2238 29.5374 22.9129C29.1504 23.3247 28.6541 23.6398 28.1579 24.039C28.3093 24.1651 28.4817 24.2995 28.6415 24.4382C29.1378 24.871 29.1294 25.0727 28.5995 25.455C28.5154 25.5139 28.427 25.5727 28.3219 25.6441C28.6247 25.8752 28.9191 26.0811 29.1967 26.308C29.5247 26.5769 29.7855 26.8711 29.7771 27.3585C29.7729 27.5896 29.9664 27.8291 30.0757 28.0602C30.307 28.5518 30.4668 29.0393 29.9495 29.5099C30.3996 29.7788 30.8075 30.0015 31.1944 30.2536C32.0188 30.7872 32.7043 31.4469 33.1628 32.3377C33.5203 33.0353 33.5203 33.7748 33.0913 34.3462C32.637 34.9471 32.7885 35.4934 32.8642 36.1573C33.5413 36.3295 34.2142 36.5396 34.8998 36.6657C35.375 36.7539 35.6064 36.985 35.7788 37.422C38.7313 44.9014 41.6795 52.3808 44.0348 60.0786C44.0726 60.2005 44.1231 60.3181 44.182 60.4778C44.6783 60.3139 45.1998 60.2635 45.5531 59.8181C45.6246 59.7299 45.7549 59.6542 45.8685 59.6374C46.4826 59.5492 47.0587 59.4567 47.5803 59.0113C47.8789 58.755 48.413 58.7718 48.842 58.6584C49.0187 58.6122 49.1911 58.5533 49.4056 58.4861C49.5233 57.6919 49.149 57.1121 48.4593 56.5532C48.821 56.2549 49.107 55.9398 49.4645 55.7465C49.8051 55.5616 50.2173 55.507 50.7052 55.3641C50.7304 55.3305 50.8314 55.1876 50.9407 55.0321C51.1846 55.1414 51.3949 55.238 51.6094 55.3347C51.7314 55.1288 51.8113 54.8094 51.9585 54.7716C53.0099 54.5237 53.4726 53.448 54.4357 53.0699C54.6628 52.9816 54.8143 52.6035 54.9152 52.3261C55.0161 52.0446 54.7848 51.9858 54.5199 51.9732C54.503 52.2169 54.4904 52.4396 54.4736 52.7169C54.1413 52.6539 53.7292 52.9018 53.7628 52.2715C53.767 52.1707 53.4263 52.0026 53.2202 51.9438C52.2277 51.6706 52.2277 51.679 52.2782 50.6664C52.2908 50.3807 52.295 50.0907 52.295 49.805C52.2992 49.5235 52.295 49.2377 52.295 48.9184C52.6777 48.7881 53.0184 48.6747 53.3801 48.5486C53.3801 38.2834 53.3801 28.0224 53.3801 17.7572C53.4894 17.7236 53.5609 17.6816 53.6324 17.6773C56.4924 17.6395 59.3397 17.8034 62.0735 18.711C62.9272 18.9967 63.7516 19.4421 64.5086 19.938C65.3708 20.501 65.8545 21.333 65.9849 22.4045C66.2246 24.4214 67.2592 25.4719 69.2107 25.7702C70.6281 25.9887 72.0496 26.2156 73.4754 26.3753C75.1283 26.5643 76.7643 26.4719 78.3541 25.9257C78.3962 25.9088 78.4551 25.9341 78.5056 25.9383C77.5214 26.9803 75.532 27.7871 72.5249 28.3165C74.6572 29.3208 76.655 28.972 78.6822 28.4846C78.5434 28.577 78.4172 28.6863 78.27 28.7619C75.1872 30.3502 71.9066 30.9973 68.4747 30.5772C66.1825 30.2956 64.4371 29.0771 63.4404 26.9299C62.9693 25.9131 62.1534 25.3122 61.1524 24.9088C59.8907 24.4004 58.5658 24.2659 57.2284 24.2869C56.24 24.3037 55.2517 24.4004 54.2843 24.4592C54.1119 25.0727 54.053 47.1452 54.2086 48.3511C54.6586 48.5066 54.9741 48.3848 55.218 47.9436C55.5461 47.3553 55.8657 46.7376 56.5302 46.4309C56.7615 46.3216 57.0055 46.2334 57.2368 46.1241C57.3966 46.0485 57.5943 45.9981 57.6952 45.872C58.1158 45.3468 58.692 45.1493 59.3187 45.0148C59.7645 44.9224 60.2482 44.9098 60.6687 44.5484C60.4206 44.3299 60.2019 44.1535 60.0042 43.9644C59.2514 43.2416 59.2598 42.4979 60.0379 41.8172C60.2145 41.6659 60.4164 41.5441 60.6141 41.418C60.6982 41.3634 60.8706 41.334 60.879 41.2752C60.9589 40.6659 61.5099 40.4936 61.9683 40.1491C61.716 39.9474 61.4973 39.7793 61.2912 39.5986C60.429 38.8339 60.45 38.0817 61.3627 37.401C61.5099 37.2918 61.6697 37.2035 61.6991 37.1867C61.8295 36.6909 61.9305 36.3169 62.0398 35.8967C61.2323 35.132 61.2197 34.9345 61.9515 34.0773C61.9809 33.6109 62.0062 33.1865 62.044 32.6067C62.0146 32.5184 61.8337 32.2495 61.8632 32.01C61.8968 31.7621 62.1366 31.5394 62.309 31.2663C61.9137 30.8839 61.9725 30.4301 62.1828 29.9385C62.3637 29.5141 62.5067 29.0729 62.6791 28.6107C63.8357 29.9553 64.0754 30.6024 63.6801 31.2999C63.9577 31.8083 64.3867 32.3209 63.7936 32.905C63.924 33.3252 63.6212 33.8126 63.9955 34.195C64.0502 34.2496 64.1007 34.3126 64.1469 34.3757C64.6684 35.0774 64.6264 35.4429 63.9619 36.027C64.0334 36.3926 64.1049 36.7497 64.189 37.1783C65.4549 38.0985 65.8251 39.0187 63.9577 40.4096C64.4582 40.6491 64.9713 40.8508 65.1185 41.4516C65.1521 41.5819 65.4045 41.6575 65.5559 41.7584C65.619 41.8004 65.6863 41.8466 65.7451 41.897C66.8176 42.7122 66.7966 43.498 65.6568 44.1282C65.5643 44.1787 65.476 44.2333 65.354 44.3047C65.354 44.5148 65.354 44.7417 65.354 44.9896C65.4423 45.0401 65.5264 45.0989 65.6232 45.1367C66.4475 45.4686 67.276 45.788 68.092 46.1283C68.3569 46.2376 68.6093 46.3805 68.849 46.5359C70.5145 47.599 70.6407 48.0906 70.4682 50.2336C70.4178 50.8723 69.9972 51.3219 69.4 51.5824C68.7439 51.8681 68.7439 51.8681 68.7733 52.6539C68.9331 52.7253 69.1182 52.8051 69.3033 52.8892C70.115 53.2463 70.9435 53.5783 71.7384 53.9649C72.1548 54.1708 72.5165 54.4817 72.9118 54.738C73.1936 54.9187 73.4712 55.1036 73.774 55.2422C74.4596 55.5616 75.1745 55.8221 75.8433 56.1667C76.226 56.3641 76.5499 56.6835 76.9284 56.9692C76.6971 57.6373 76.4825 58.2466 76.2344 58.9567C77.1387 59.3853 78.0093 59.8517 78.9177 60.2257C81.1131 61.1333 83.338 61.9737 85.5292 62.8897C88.5238 64.146 91.1061 66.0663 93.6254 68.0706C94.7484 68.9656 95.8755 69.8606 96.9228 70.8439C97.8522 71.7178 98.7439 72.6507 99.5303 73.6549C100.931 75.4449 102.277 77.2769 103.581 79.1384C105.372 81.6889 106.966 84.3445 107.711 87.4287C107.967 88.4876 108.333 89.5213 108.686 90.6894C109.094 90.9373 109.494 91.3365 109.797 91.9415C110.083 92.5088 110.495 93.1769 111.29 93.303C111.441 93.3282 111.584 93.4122 111.727 93.4752C112.488 93.8198 112.623 93.9879 112.821 94.9417C112.976 94.6013 113.086 94.3828 113.17 94.1601C113.262 93.9206 113.325 93.6685 113.397 93.4416C114.183 93.3198 114.158 93.3324 114.293 93.9963C114.36 94.3324 114.558 94.6518 114.734 94.9543C114.873 95.2022 115.071 95.4165 115.256 95.6728C114.961 96.114 115.016 96.4922 115.525 96.7863C115.618 96.7107 115.786 96.6393 115.798 96.5468C115.862 95.9628 116.265 95.9459 116.707 95.9375C117.043 95.9291 117.376 95.8745 117.683 95.8409C118.065 95.177 118.726 94.7022 118.499 93.8702C119.201 93.803 119.293 93.8408 119.323 94.3114C119.344 94.6938 119.432 94.9795 119.748 95.2568C120.114 95.5762 120.408 95.9838 120.324 96.5594C120.299 96.7401 120.357 97.03 120.723 97.1393C120.749 97.0006 120.77 96.904 120.778 96.8031C120.824 96.3451 121.182 96.2779 121.518 96.2779C122.225 96.2779 122.675 95.8829 123.066 95.3661C123.318 95.0341 123.318 95.0341 123.146 94.5341C123.697 94.0593 123.903 94.1139 124.063 94.7568C124.139 95.0762 124.256 95.3493 124.504 95.6182C124.799 95.9417 125.047 96.3829 124.971 96.8998C124.95 97.0468 125.034 97.2065 125.118 97.5721C125.468 96.862 125.951 96.7821 126.473 96.7149C127.049 96.6393 127.604 96.0174 127.697 95.4459C127.726 95.2652 127.705 95.0635 127.781 94.9123C127.852 94.7736 128.016 94.6013 128.151 94.5929C128.29 94.5845 128.471 94.7316 128.576 94.8577C128.668 94.9669 128.723 95.1392 128.727 95.282C128.74 95.8241 129.11 96.093 129.518 96.3493C129.556 96.7401 129.593 97.1183 129.64 97.6099C129.804 97.5427 130.039 97.5132 130.064 97.4292C130.191 96.9586 130.552 96.925 130.922 96.9166C131.385 96.9082 131.734 96.7191 131.957 96.3283C132.054 96.1602 132.151 95.9543 132.142 95.7695C132.113 95.0089 132.235 94.8703 132.992 94.9207C133.063 94.9249 133.135 94.9711 133.244 95.0173C133.253 95.1602 133.248 95.3115 133.274 95.4585C133.341 95.8535 133.408 96.2149 133.732 96.5468C134.043 96.8662 134.447 97.2779 134.102 97.8536C134.064 97.9124 134.169 98.1435 134.249 98.1687C134.371 98.2066 134.573 98.1855 134.657 98.1057C134.8 97.967 134.872 97.7612 134.977 97.5805C135.932 97.3368 136.592 96.6182 136.638 95.6728C136.907 95.6266 137.193 95.5804 137.568 95.5173C137.627 95.9165 137.614 96.2611 137.74 96.5468C137.883 96.8788 138.102 97.2107 138.371 97.446C138.678 97.7191 138.926 98.2024 139.481 98.0133C140.036 97.8242 139.961 97.32 140.007 96.904C140.638 91.3869 141.466 85.8992 142.467 80.4326C143.035 77.3442 143.948 74.3482 144.831 71.3481C145.744 68.2471 146.846 65.1965 147.948 62.1543C148.612 60.3181 149.453 58.5407 150.189 56.7255C150.572 55.7843 150.9 54.8263 151.249 53.8724C151.443 53.3346 151.745 52.9312 152.309 52.7001C152.852 52.4774 153.175 52.0614 153.1 51.4059C153.07 51.1622 153.167 50.9059 153.205 50.6832C153.655 50.5319 154.042 50.4059 154.467 50.263C154.395 50.0151 154.357 49.8386 154.294 49.6705C153.731 48.2293 154.286 46.3721 155.636 45.5695C156.199 45.2333 156.347 44.8636 156.342 44.2585C156.326 34.611 156.33 24.9634 156.33 15.3159C156.33 15.0049 156.33 14.694 156.33 14.341C156.49 14.3116 156.612 14.2654 156.729 14.2738C158.184 14.3747 159.648 14.4419 161.099 14.5932C162.87 14.7822 164.624 15.0806 166.247 15.8579C166.785 16.1142 167.303 16.4378 167.77 16.8076C168.564 17.4294 168.998 18.253 169.086 19.2867C169.221 20.8792 170.213 22.0809 171.757 22.3793C173.447 22.707 175.159 22.9381 176.871 23.1314C178.469 23.3121 180.05 23.1356 181.607 22.5852C180.774 23.6524 178.305 24.6609 175.786 24.9886C176.728 25.808 178.246 25.85 181.821 25.2155C181.464 25.4088 181.119 25.6231 180.749 25.7912C177.96 27.0644 175.029 27.6526 171.971 27.3627C169.494 27.1274 167.568 25.9677 166.495 23.623C166.104 22.77 165.44 22.2154 164.624 21.8036C163.719 21.3498 162.748 21.1649 161.755 21.0683C160.241 20.9212 158.74 21.0263 157.188 21.2406C157.188 28.8082 157.188 36.3253 157.188 43.9476C157.886 43.6786 158.311 43.1156 158.925 42.6702C158.626 42.355 158.361 42.0777 158.1 41.8004C157.423 41.0819 157.394 40.3171 158.079 39.6112C158.437 39.2414 158.87 38.9431 159.278 38.6154C159.707 38.275 160.14 37.9431 160.628 37.5649C160.191 37.2666 159.795 37.0313 159.442 36.7455C158.466 35.9556 158.534 34.3799 159.572 33.6445C159.846 33.4512 160.157 33.3084 160.43 33.1571C160.275 32.8294 159.993 32.5058 160.01 32.2033C160.022 31.9302 160.367 31.6738 160.599 31.3671C160.292 30.9553 159.652 30.6654 159.661 29.9805C159.669 29.2662 160.308 29.0224 160.725 28.6191C160.123 27.7409 160.191 28.0476 160.826 27.2619C160.649 27.0518 160.468 26.8375 160.254 26.5812C160.645 25.455 161.032 24.3331 161.486 23.0222C161.751 23.3541 161.936 23.518 162.037 23.7281C162.268 24.1945 162.458 24.6861 162.672 25.1609C162.954 25.7744 163.16 26.3837 162.647 27.0055C162.845 27.2493 163.084 27.4425 163.181 27.6905C163.269 27.9216 163.198 28.2157 163.198 28.5728C163.303 28.6653 163.505 28.8292 163.686 29.0182C164.228 29.5813 164.22 30.0225 163.681 30.5729C163.505 30.7536 163.345 30.9427 163.139 31.1738C163.917 31.7789 163.761 32.405 163.231 33.0395C163.597 33.2832 163.938 33.4807 164.241 33.7202C165.116 34.4093 165.238 35.2286 164.561 36.1068C164.228 36.5354 163.799 36.8884 163.349 37.3422C163.984 37.859 164.333 38.6196 165.09 38.9893C165.275 39.0818 165.44 39.2204 165.595 39.3549C166.483 40.1196 166.567 41.0777 165.831 41.9769C165.683 42.1576 165.515 42.3172 165.326 42.5231C165.751 43.0862 166.251 43.5274 166.819 43.8929C167.324 44.2165 167.332 44.2039 167.298 44.6661C168.056 45.3258 168.838 45.872 169.448 46.5695C170.575 47.8595 170.474 49.1705 169.284 50.4059C169.031 50.6664 168.754 50.9059 168.413 51.2252C169.708 51.969 171.021 52.5488 172.514 52.9606C172.779 53.6371 173.077 54.3851 173.367 55.1372C174.28 57.5281 175.26 59.8937 176.089 62.314C177.287 65.8226 178.494 69.3354 179.478 72.9028C180.4 76.2391 181.039 79.6552 181.792 83.0377C182.027 84.105 182.271 85.1765 182.439 86.2606C182.666 87.7271 182.843 89.2019 183.016 90.6768C183.306 93.1895 183.613 95.698 183.84 98.2192C183.979 99.7486 183.924 101.299 184.042 102.833C184.311 106.262 184.5 109.699 185.161 113.09C185.333 113.976 185.257 114.909 185.283 115.825C185.299 116.451 185.287 117.073 185.287 117.716C185.602 117.838 185.838 117.93 186.098 118.031C186.111 118.052 186.166 118.098 186.157 118.136C185.993 119.069 186.41 119.914 186.565 120.796C186.75 121.846 186.956 122.897 187.091 123.956C187.141 124.359 187.028 124.779 186.99 125.208C187.289 125.376 187.596 125.544 187.936 125.733C187.814 126.031 187.718 126.267 187.613 126.523C187.785 126.8 188.138 127.053 187.81 127.469C187.756 127.536 187.844 127.779 187.932 127.885C188.151 128.141 188.399 128.372 188.647 128.595C188.891 128.817 189.148 129.023 189.404 129.238C189.202 129.662 189.034 130.006 188.841 130.414C189.228 130.527 189.564 130.624 189.93 130.733C190.018 131.036 190.401 131.296 190.064 131.696C190.022 131.746 190.128 131.931 190.178 132.044C190.338 132.402 190.506 132.754 190.716 133.208C190.906 132.927 191.07 132.704 191.217 132.473C192.714 130.141 194.262 127.842 196.104 125.767C196.705 125.086 197.42 124.506 198.093 123.884C198.842 123.195 199.586 122.498 200.36 121.834C203.931 118.762 207.851 116.245 212.238 114.48C212.359 114.43 212.473 114.371 212.633 114.296C212.448 114.102 212.275 113.917 212.027 113.657C214.101 113.178 216.149 113.073 218.046 112.287C217.899 111.926 217.756 111.644 217.671 111.346C217.545 110.896 217.634 110.72 218.075 110.573C218.597 110.405 219.127 110.249 219.661 110.153C220.325 110.035 220.872 109.745 221.402 109.329C222.34 108.585 223.189 107.707 224.363 107.308C224.455 107.278 224.607 107.203 224.607 107.148C224.619 106.467 225.221 106.539 225.612 106.358C225.822 106.262 226.058 106.224 226.352 106.14C226.264 105.682 226.176 105.241 226.075 104.724C224.779 104.799 223.534 104.934 222.294 104.925C221.074 104.917 219.854 104.757 218.584 104.656C218.584 104.026 218.571 103.48 218.588 102.934C218.605 102.387 218.677 101.837 218.672 101.291C218.668 100.904 218.828 100.702 219.185 100.635C219.724 100.534 220.262 100.442 220.868 100.337C220.868 88.4078 220.868 76.4702 220.868 64.5116C221.015 64.4654 221.108 64.4108 221.2 64.4108C223.576 64.478 225.961 64.5242 228.287 65.0957C229.17 65.3142 230.036 65.6251 230.886 65.9571C231.647 66.2554 232.303 66.7428 232.838 67.3731C233.288 67.9025 233.553 68.5034 233.616 69.2135C233.78 71.0245 234.776 72.1717 236.555 72.4868C238.406 72.8145 240.248 73.2221 242.141 73.2473C243.424 73.2641 244.689 73.1423 245.989 72.7095C245.257 73.7516 242.679 74.7768 240.16 75.0415C241.161 75.6592 242.149 75.8063 243.146 75.7391C244.126 75.676 245.102 75.4701 246.145 75.3189C246.006 75.4281 245.913 75.529 245.8 75.5836C242.86 77.0795 239.735 77.7224 236.463 77.4156C233.982 77.1803 232.081 75.9744 231.008 73.6339C230.608 72.7641 229.898 72.2053 229.04 71.8061C227.976 71.3103 226.84 71.1044 225.692 71.0792C224.493 71.0539 223.29 71.1758 222.092 71.243C221.97 71.2514 221.848 71.3229 221.667 71.3901C221.667 71.6716 221.667 71.9532 221.667 72.2389C221.667 81.2855 221.667 90.3322 221.667 99.3747C221.667 99.5049 221.663 99.6352 221.667 99.7655C221.692 100.291 221.751 100.354 222.247 100.383C222.609 100.404 222.971 100.417 223.366 100.434C223.719 99.1898 224.645 98.6141 225.818 98.404C226.34 98.3116 226.403 97.8494 226.684 97.5637C226.781 97.4628 226.84 97.3074 226.958 97.2485C227.37 97.0258 227.803 96.8409 228.224 96.635C229.069 96.2191 229.355 95.5552 229.204 94.656C229.111 94.1013 228.859 93.7105 228.316 93.45C228.392 93.2609 228.409 93.0298 228.527 92.9542C228.989 92.6559 229.035 91.9878 229.738 91.8449C230.293 91.7314 230.306 90.7986 229.86 90.349C229.641 90.1263 229.414 89.9036 229.237 89.6473C228.379 88.4035 228.905 87.0169 230.386 86.5841C230.457 86.5631 230.533 86.5463 230.722 86.5043C230.6 86.2438 230.491 86.0169 230.365 85.7522C230.579 85.6093 230.815 85.4538 231.088 85.2731C231.105 85.0168 231.096 84.7941 230.823 84.5714C229.885 83.7983 229.919 83.1764 230.882 82.4537C231.025 82.3444 231.155 82.2142 231.269 82.1133C231.147 81.8234 230.92 81.5419 230.958 81.3024C230.991 81.0755 231.302 80.8864 231.492 80.6847C230.47 79.7939 230.852 79.6594 231.227 78.756C231.487 78.1299 231.799 77.5291 232.089 76.9156C232.173 76.7349 232.266 76.5542 232.4 76.2727C232.526 76.5206 232.606 76.6677 232.678 76.8189C232.913 77.3148 233.145 77.8064 233.376 78.3022C233.485 78.5375 233.611 78.7686 233.704 79.0123C234.049 79.8989 234.011 80.0082 233.132 80.5838C233.359 80.8191 233.565 81.0376 233.822 81.3066C233.717 81.483 233.603 81.6721 233.477 81.8864C233.502 81.9326 233.527 82.0083 233.574 82.0629C233.801 82.3108 234.074 82.5293 234.259 82.8066C234.739 83.521 234.612 84.0588 233.893 84.5294C233.742 84.6261 233.574 84.6975 233.33 84.8235C233.41 84.9874 233.464 85.1807 233.582 85.3152C234.07 85.8698 234.078 85.9034 233.527 86.4329C233.607 86.5253 233.67 86.6514 233.771 86.7102C234.444 87.0926 234.827 87.7186 235.109 88.3951C235.466 89.2607 235.176 89.9246 234.331 90.3322C234.095 90.4457 233.843 90.5171 233.599 90.6095C233.388 90.6894 233.182 90.7692 232.821 90.9037C233.653 91.3533 233.948 92.2063 234.802 92.4332C235.113 92.5172 235.104 92.6222 235.247 93.2483C234.49 93.3114 234.444 93.908 234.394 94.4711C234.335 95.1098 234.246 95.7695 234.806 96.2779C234.882 96.3451 234.924 96.4628 235.008 96.5006C235.504 96.7233 235.992 97.0174 236.518 97.1225C237.069 97.2359 237.283 97.4922 237.275 98.0133C237.275 98.0889 237.304 98.1645 237.334 98.3116C237.632 98.3788 237.956 98.4587 238.284 98.5175C239.462 98.7192 240.257 99.7445 240.328 100.442C240.446 101.576 240.219 102.598 239.129 103.203C238.705 103.438 238.461 103.774 238.322 104.207C238.116 104.85 237.931 105.501 238.032 106.249C238.309 106.308 238.583 106.362 238.911 106.43C238.915 106.762 239.117 106.913 239.462 107.005C240.391 107.266 241.115 107.892 241.809 108.522C242.641 109.274 243.567 109.821 244.673 110.06C244.954 110.119 245.232 110.199 245.497 110.308C246.153 110.585 246.246 110.896 245.884 111.531C245.77 111.728 245.653 111.922 245.501 112.174C245.711 112.232 245.85 112.279 245.997 112.316C247.112 112.598 248.218 112.892 249.337 113.148C249.833 113.262 250.346 113.304 250.906 113.388C250.868 113.506 250.817 113.661 250.763 113.838C250.939 113.88 251.112 113.922 251.309 113.968C251.343 114.144 251.373 114.317 251.406 114.489C256.689 116.485 261.172 119.674 265.374 123.561C265.47 123.111 265.58 122.775 265.613 122.435C265.824 120.245 266.387 118.124 266.93 116.002C266.963 115.876 267.06 115.728 267.022 115.632C266.741 114.93 267.123 114.497 267.586 114.06C267.72 113.934 267.784 113.699 267.817 113.501C268.301 110.674 268.772 107.846 269.251 105.018C269.727 102.215 270.181 99.4083 270.896 96.6561C271.459 94.4879 272.153 92.3491 272.767 90.1936C273.718 86.8531 274.921 83.5966 276.115 80.3401C276.246 79.9872 276.477 79.6174 276.031 79.277C276.641 78.8148 276.426 77.7644 277.394 77.6761C277.444 77.2517 277.373 76.7937 277.562 76.508C277.747 76.2307 278.197 76.134 278.571 75.9365C278.5 75.7811 278.424 75.6214 278.353 75.4617C277.852 74.3356 278.063 73.4028 279.009 72.5834C279.303 72.3271 279.585 72.0456 279.905 71.8229C280.3 71.554 280.393 71.2094 280.393 70.7556C280.376 67.5118 280.384 64.2721 280.384 61.0282C280.384 56.7423 280.384 52.4522 280.384 48.1663C280.384 47.8805 280.384 47.599 280.384 47.2124C280.927 47.2124 281.415 47.1998 281.902 47.2166C284.232 47.2965 286.546 47.4729 288.796 48.1495C289.83 48.4604 290.819 48.8722 291.664 49.5571C292.417 50.1706 292.905 50.9185 293.027 51.9312C293.288 54.1119 294.461 55.1498 296.698 55.3809C297.763 55.4902 298.806 55.7633 299.87 55.8851C301.644 56.091 303.419 56.112 305.152 55.5616C305.245 55.5322 305.354 55.5364 305.472 55.5784C303.789 56.8726 301.909 57.6625 299.764 57.8432C300.635 58.4651 301.632 58.5575 302.629 58.4903C303.609 58.4231 304.584 58.234 305.611 58.0953C305.472 58.192 305.358 58.3012 305.224 58.3684C302.906 59.5534 300.442 60.1711 297.842 60.2299C297.346 60.2425 296.846 60.2551 296.349 60.2257C293.691 60.066 291.651 58.9273 290.474 56.4608C289.982 55.4271 289.132 54.8136 288.098 54.4271C286.705 53.906 285.246 53.7842 283.774 53.8346C282.941 53.864 282.113 53.9733 281.234 54.0489C281.234 58.7928 281.234 63.4779 281.234 68.1799C282.071 67.4823 282.882 66.81 283.803 66.0453C283.484 65.915 283.265 65.8184 283.038 65.7302C282.525 65.5369 282.138 65.2721 282.113 64.6293C282.087 63.9738 282.176 63.4359 282.853 63.1544C283.135 63.0367 283.4 62.8771 283.77 62.6838C283.496 62.4779 283.307 62.3308 283.072 62.1543C283.227 61.8728 283.387 61.5829 283.543 61.293C282.365 60.5324 282.361 60.1248 283.45 59.3853C283.576 59.3013 283.694 59.2046 283.816 59.1122C283.282 58.5911 283.282 58.5911 283.698 58.1037C283.572 57.9314 283.438 57.7466 283.286 57.5407C283.551 56.5616 283.719 55.5322 284.283 54.5153C285.246 55.9566 285.587 57.4146 285.259 59.0491C285.452 59.234 285.671 59.4273 285.864 59.6374C286.31 60.1164 286.306 60.3643 285.856 60.8392C285.713 60.9904 285.553 61.1249 285.376 61.2888C285.418 61.6165 286.083 61.9401 285.355 62.356C285.574 62.5619 285.742 62.7762 285.957 62.9065C286.268 63.0956 286.676 63.2174 286.68 63.646C286.684 64.1797 286.785 64.7721 286.293 65.1797C285.936 65.4738 285.553 65.7344 285.116 66.0579C285.301 66.1714 285.448 66.2554 285.587 66.352C285.822 66.5117 286.054 66.6714 286.281 66.8437C286.504 67.0117 286.718 67.1924 286.937 67.3647C287.101 67.4908 287.29 67.5958 287.437 67.7387C287.866 68.1504 287.917 68.4824 287.614 68.995C287.471 69.2387 287.277 69.453 287.092 69.7009C287.656 70.2304 288.539 70.5245 288.598 71.5456C289.292 71.7641 289.893 72.1548 290.293 72.7977C290.44 73.033 290.533 73.3062 290.638 73.5667C290.827 74.0457 290.756 74.4701 290.402 74.8651C290.074 75.2348 289.931 75.655 290.091 76.1676C290.167 76.4072 290.129 76.6803 290.15 76.9828C290.381 77.0458 290.604 77.1047 290.823 77.1677C291.546 77.382 292.059 77.8526 292.316 78.5501C293.296 81.2225 294.272 83.8907 295.205 86.5799C296.072 89.0716 296.677 91.639 297.191 94.2274C297.506 95.8157 297.763 97.4124 298.128 98.9881C298.406 100.177 298.818 101.337 299.171 102.505C299.798 104.581 300.379 106.665 300.694 108.812C300.728 109.043 300.866 109.287 301.018 109.472C301.308 109.829 301.426 110.19 301.371 110.669C301.316 111.174 301.409 111.695 301.443 112.224C301.695 112.279 301.893 112.317 302.12 112.367C302.221 112.644 302.351 112.926 302.423 113.224C302.486 113.472 302.599 113.825 302.486 113.976C302.17 114.388 302.359 114.762 302.444 115.144C302.683 116.212 303.003 117.266 303.184 118.346C303.39 119.577 303.533 120.825 303.609 122.073C303.76 124.473 303.844 126.872 303.966 129.271C303.983 129.62 303.991 129.939 304.286 130.267C304.488 130.49 304.408 131.002 304.391 131.38C304.37 131.876 303.853 131.788 303.529 132.019C303.718 132.624 303.911 133.242 304.143 133.973C304.753 134.082 305.543 134.04 306.132 134.57C306.334 134.75 306.452 135.028 306.649 135.33C306.393 135.473 306.199 135.595 305.993 135.687C305.426 135.944 305.375 136.12 305.383 136.771C305.392 137.511 305.569 138.204 305.821 138.872C306.199 139.885 306.098 140.927 306.128 141.969C306.141 142.423 305.997 142.902 306.372 143.318C306.443 143.398 306.321 143.7 306.229 143.864C306.166 143.974 305.993 144.016 305.775 144.15C306.359 144.406 306.818 144.356 307.268 144.133C307.406 144.066 307.524 143.894 307.659 143.885C308.462 143.843 308.761 143.289 309.093 142.667C309.56 141.78 310.174 140.902 311.208 140.709C312.041 140.553 312.479 140.217 312.63 139.41C312.672 139.192 312.845 138.994 312.979 138.805C313.324 138.309 313.77 138.04 314.409 137.994C315.662 137.902 316.769 138.351 317.887 138.788C318.363 138.973 318.846 139.15 319.326 139.326C319.355 139.267 319.385 139.204 319.414 139.146C318.838 138.797 318.287 138.385 317.677 138.108C317.08 137.835 316.419 137.7 315.704 137.477C316.495 137.238 317.185 137.061 317.837 137.818C317.614 137.074 317.446 136.914 316.731 136.792C316.386 136.734 316.091 136.629 315.852 136.351C316.289 135.893 316.76 136.385 317.349 136.242C316.975 136.053 316.735 135.931 316.453 135.788C316.516 135.364 316.571 134.927 316.642 134.49C316.806 133.477 317.664 133.023 318.606 133.452C318.821 133.549 319.023 133.666 319.284 133.801C319.717 132.658 320.365 131.662 321.159 130.759C321.416 130.464 321.681 130.288 322.102 130.33C322.421 130.359 322.644 130.473 322.795 130.75C323.25 131.599 323.775 132.423 323.78 133.452C323.927 133.502 324.045 133.57 324.167 133.574C324.646 133.599 324.898 133.897 324.945 134.313C325.008 134.902 325.382 135.477 324.911 136.108C324.743 136.33 324.886 136.788 324.886 137.183C324.633 137.141 324.469 137.112 324.301 137.082C324.162 137.767 324.167 137.851 324.692 137.965C325.441 138.125 325.714 138.7 325.782 139.305C325.958 140.898 326.32 142.44 326.799 143.961C326.892 144.251 326.883 144.579 326.9 144.894C326.984 146.797 327.06 148.705 327.136 150.608C327.14 150.688 327.136 150.764 327.136 150.844C327.148 151.755 327.178 152.663 327.169 153.575C327.165 154.382 327.111 155.184 327.098 155.991C327.094 156.264 327.148 156.541 327.182 156.848C327.716 156.823 328.149 156.878 328.528 157.23C328.755 157.441 328.919 157.718 328.759 157.89C328.368 158.319 328.726 158.823 328.507 159.281C328.305 159.705 328.343 160.247 328.288 160.739C328.267 160.916 328.284 161.1 328.284 161.369C328.637 161.432 328.986 161.491 329.331 161.55C329.92 161.651 329.958 161.697 330 162.437C329.394 162.525 329.378 163.012 329.373 163.491C329.365 165.008 329.365 166.525 329.361 168.042C329.361 168.323 329.361 168.601 329.361 168.971C328.932 168.971 328.599 168.971 328.267 168.971C279.097 168.971 229.927 168.971 180.757 168.971C108.926 168.971 37.091 168.971 -34.7399 168.971C-35.1311 168.971 -35.5222 168.954 -35.9134 168.912C-36.1194 168.891 -36.3171 168.811 -36.3255 168.529C-36.3297 168.286 -36.2036 168.26 -36.0017 168.197C-35.5222 168.046 -35.7325 167.605 -35.5727 167.185C-36.7461 167.378 -36.9017 166.34 -37.663 165.769C-37.1457 165.689 -36.7966 165.626 -36.4433 165.584C-35.4045 165.458 -35.2068 165.277 -35.1942 164.269C-35.1689 162.571 -35.1353 160.869 -35.1942 159.176C-35.2278 158.218 -35.4465 157.268 -35.5937 156.26C-36.0774 156.352 -36.5484 156.441 -37.0153 156.529C-37.0952 156.373 -37.1667 156.239 -37.2592 156.058C-37.3223 156.151 -37.3812 156.197 -37.398 156.256C-37.5536 156.802 -37.684 156.865 -38.1088 156.537C-38.3359 156.365 -38.5882 156.188 -38.7312 155.953C-39.0929 155.373 -39.0046 154.81 -38.4453 154.302C-38.6387 154.096 -38.8112 153.915 -39.0046 153.714C-40.0224 154.94 -40.5313 156.323 -40.8131 157.798C-40.8468 157.983 -40.7626 158.193 -40.7122 158.39C-40.6869 158.487 -40.607 158.571 -40.5692 158.668C-40.2201 159.504 -40.2958 159.823 -41.0234 160.47C-40.9141 160.592 -40.8257 160.785 -40.6911 160.832C-40.2748 160.97 -40.1612 161.306 -40.0729 161.663C-39.8963 162.386 -39.8248 163.096 -40.2117 163.79C-40.321 163.983 -40.3505 164.222 -40.4598 164.571C-39.4925 164.508 -38.6261 164.449 -37.6504 164.382C-37.8312 165.34 -38.7397 165.424 -39.1771 165.962C-39.2149 166.235 -39.2612 166.533 -39.2906 166.832C-39.299 166.912 -39.2486 166.996 -39.2444 167.08C-39.2359 167.239 -39.2065 167.407 -39.2486 167.559C-39.3747 167.996 -39.5303 168.424 -39.6986 168.937C-43.3198 168.937 -47.0714 168.937 -50.8482 168.937C-50.8482 168.571 -50.8482 168.244 -50.8482 167.916C-51.6599 167.681 -51.7062 167.693 -52.1351 168.344C-52.0426 168.504 -51.9417 168.672 -51.7945 168.929C-52.4674 168.929 -53.0478 168.929 -53.6913 168.929C-53.6913 168.853 -53.7081 168.756 -53.6871 168.668C-53.5946 168.202 -53.7418 167.933 -54.1834 167.832C-54.4862 167.765 -54.7974 167.735 -55.1381 167.685C-55.2979 167.13 -55.2264 166.592 -55.1759 166.05C-55.1171 165.441 -55.2727 165.168 -55.7269 164.962C-56.1096 164.79 -56.3031 164.874 -56.4124 165.29C-56.6101 166.05 -56.7615 166.811 -56.6522 167.609C-56.5975 168.017 -56.6059 168.437 -56.5807 168.954C-57.1106 168.966 -57.5943 168.983 -58.0779 168.987C-58.57 168.992 -59.0663 168.987 -59.6131 168.987C-59.6509 168.609 -59.6846 168.281 -59.714 167.975C-60.0463 167.781 -60.3533 167.601 -60.694 167.399C-60.3911 166.941 -60.1262 166.542 -59.8191 166.08C-60.7108 165.727 -61.4636 166.029 -62.3973 166.34C-61.287 166.991 -61.0935 167.828 -61.4636 168.891C-64.7231 169.097 -67.9574 168.924 -71.158 169C-71.3809 168.727 -71.566 168.496 -71.7805 168.231C-71.6501 168.151 -71.5491 168.05 -71.4356 168.034C-71.1412 167.996 -71.036 167.823 -71.0234 167.559C-71.0066 167.172 -70.9435 166.781 -70.9813 166.399C-71.0318 165.924 -71.3431 165.811 -71.751 166.059C-71.8183 166.101 -71.873 166.155 -71.9361 166.202C-72.058 166.294 -72.1842 166.386 -72.3482 166.508C-72.0917 166.815 -71.894 167.046 -71.7005 167.277C-72.1043 168.164 -72.3987 168.29 -73.0969 167.895C-73.6268 167.592 -73.6268 167.458 -73.0464 166.601C-73.4123 166.328 -73.7866 166.054 -74.1567 165.781C-74.2619 165.706 -74.4301 165.647 -74.4638 165.546C-74.7035 164.832 -75.2545 165.05 -75.797 165.05C-75.8853 165.525 -76.0704 165.912 -76.6297 165.916C-76.7181 165.916 -76.8737 165.991 -76.8863 166.059C-76.9704 166.504 -77.3447 166.588 -77.5803 166.647C-78.1312 167.311 -77.4541 167.714 -77.3994 168.231C-77.6938 168.471 -78.2069 168.37 -78.3121 168.878C-78.3289 168.954 -78.7411 168.975 -78.9682 168.979C-80.8524 168.987 -82.7366 168.983 -84.6208 168.983C-86.0339 168.983 -87.4471 168.983 -88.8602 168.983C-89.142 168.983 -89.4196 169.025 -89.6004 168.693C-89.7687 168.387 -90.0841 168.475 -90.3701 168.517C-90.3701 168.676 -90.3701 168.798 -90.3701 168.916C-90.4248 168.937 -90.4668 168.975 -90.5131 168.975C-91.186 168.975 -91.8421 169.038 -92.5025 168.727C-92.8978 168.542 -93.4151 168.613 -93.9072 168.567C-93.9997 167.895 -94.1133 167.281 -94.1637 166.66C-94.2058 166.151 -94.2605 165.676 -94.6642 165.307C-94.7441 165.231 -94.7568 165.08 -94.8283 164.882C-94.4876 164.849 -94.21 164.819 -93.9324 164.798C-93.6717 164.777 -93.4067 164.786 -93.1501 164.748C-92.4982 164.647 -92.309 164.37 -92.4225 163.714C-92.5908 162.739 -92.759 161.76 -92.9356 160.785C-93.0955 159.886 -93.2721 158.991 -93.4151 158.092C-93.4698 157.76 -93.4277 157.415 -93.4614 157.075C-93.4782 156.882 -93.5539 156.693 -93.6128 156.508C-93.6254 156.462 -93.7221 156.415 -93.7137 156.394C-93.4361 155.73 -94.088 155.369 -94.2058 154.84C-95.2825 154.987 -96.1405 155.915 -96.3634 157.201C-96.0269 157.504 -95.4591 157.604 -95.375 158.197C-95.3035 158.718 -95.4255 158.949 -96.0732 159.315C-95.8923 159.991 -95.6274 160.651 -95.5643 161.327C-95.4928 162.071 -96.2498 162.441 -96.662 163.109C-96.0564 163.231 -95.518 163.34 -94.946 163.458C-95.1437 163.945 -95.4507 164.206 -95.8419 164.395C-96.0522 164.496 -96.2709 164.596 -96.4559 164.739C-96.9648 165.134 -96.8513 165.638 -96.1951 165.966C-96.1825 166.891 -97.1204 166.622 -97.6041 167.092C-97.4232 167.315 -97.2424 167.534 -97.0195 167.807C-97.2592 168.172 -97.5116 168.559 -97.7681 168.954C-97.9616 168.966 -98.1424 168.987 -98.3233 168.987C-101.175 168.987 -104.026 168.992 -106.882 168.987C-107.235 168.987 -107.669 169.109 -107.622 168.479C-108.03 168.672 -108.388 168.996 -108.644 168.929C-109.035 168.832 -109.364 168.462 -109.721 168.206C-109.675 168.042 -109.654 167.945 -109.624 167.853C-109.372 167.134 -109.372 167.13 -110.049 166.773C-110.255 166.664 -110.457 166.55 -110.646 166.449C-110.55 166.05 -110.461 165.685 -110.381 165.353C-111.344 164.55 -112.35 164.008 -113.548 163.84C-113.536 163.781 -113.527 163.722 -113.515 163.664C-113.355 163.63 -113.199 163.575 -113.039 163.563C-112.362 163.521 -111.681 163.483 -111.004 163.47C-110.592 163.462 -110.356 163.298 -110.356 162.869C-110.356 162.483 -110.356 162.092 -110.39 161.706C-110.503 160.277 -110.625 158.848 -110.747 157.415C-110.789 156.949 -110.836 156.495 -111.29 156.188C-111.5 156.046 -111.487 155.802 -111.391 155.55C-111.096 154.768 -111.105 154.764 -111.694 154.298C-111.626 152.747 -111.323 151.218 -111.967 149.713C-114.364 149.608 -116.707 149.503 -119.096 149.398C-119.167 148.86 -119.445 148.541 -120 148.554C-120 148.503 -120 148.453 -120 148.398ZM17.9546 6.84068C18.1186 8.6643 17.7779 10.4081 18.1354 12.1435C18.228 12.5973 18.3037 13.0679 18.0597 13.5217C17.9924 13.6477 17.9966 13.8242 17.9924 13.9797C17.9588 14.8411 17.942 15.7025 17.8999 16.5638C17.8747 17.0429 17.9041 17.4883 18.1691 17.9127C18.3667 18.232 18.4719 18.648 18.1859 18.9421C17.8621 19.2741 17.8915 19.6396 17.8831 20.0262C17.8747 20.7573 17.8368 21.4885 17.8578 22.2196C17.8705 22.6524 17.9378 23.0936 18.0471 23.5138C18.2069 24.1315 18.3247 24.7239 17.984 25.329C17.8873 25.4971 17.8915 25.7282 17.8873 25.9341C17.8747 26.5097 17.8789 27.0854 17.8831 27.6568C17.8873 28.3333 17.8578 28.9972 18.1438 29.6569C18.2742 29.9553 18.3037 30.4595 18.1354 30.6906C17.8032 31.1486 17.8326 31.6108 17.8368 32.0982C17.8452 33.0142 17.9167 33.9303 17.8705 34.8379C17.8368 35.4808 18.1354 35.7245 18.7663 35.9093C19.1112 36.0102 19.4897 35.9976 19.8514 36.0312C20.6169 36.0984 21.172 35.7035 21.315 34.9639C21.4244 34.3841 21.3739 33.8252 20.9996 33.3252C20.8692 33.1487 20.7262 32.9008 20.743 32.7033C20.8061 32.0142 21.0206 31.3419 21.5842 30.9049C22.2361 30.3965 22.8712 29.8334 23.7081 29.6191C23.8974 29.5729 24.074 29.4763 24.2759 29.3964C23.8511 28.556 23.788 27.7997 24.5325 27.1484C24.5871 27.1022 24.6166 27.0182 24.6292 26.9467C24.7259 26.4467 25.1297 26.2408 25.5124 26.0223C25.7479 25.8878 26.0003 25.7786 26.2905 25.6315C26.1223 25.4845 26.0129 25.3752 25.8867 25.2828C25.7606 25.1903 25.6134 25.1231 25.4956 25.0223C25.1339 24.7113 25.1844 24.4634 25.6302 24.2827C25.8909 24.1777 26.1559 24.0768 26.5849 23.9087C26.1811 23.7365 25.9709 23.6482 25.7606 23.56C25.1087 23.2827 24.6965 22.8037 24.5913 22.1061C24.4862 21.4086 24.9194 20.98 25.4493 20.6481C25.8194 20.417 26.2148 20.2321 26.7405 19.9548C26.383 19.8035 26.1391 19.6859 25.8867 19.5976C25.6638 19.522 25.3526 19.48 25.4157 19.19C25.4535 19.0135 25.6975 18.8497 25.8825 18.7488C26.097 18.6312 26.3494 18.585 26.6354 18.4925C26.2232 18.2026 25.8783 17.9673 25.5461 17.7194C25.2979 17.5345 25.2138 17.2992 25.239 16.9714C25.2937 16.2865 25.5376 15.7655 26.2148 15.5092C26.3452 15.4588 26.4629 15.3747 26.6312 15.2781C26.3241 15.0806 26.0718 14.9251 25.6891 14.6814C26.1265 14.4671 26.4293 14.3158 26.8162 14.1268C26.2737 13.7444 25.525 13.6393 25.504 12.7443C25.483 11.8031 26.1727 11.6224 26.833 11.2905C26.5302 11.093 26.2947 10.9375 25.9835 10.7316C26.3367 10.5846 26.5681 10.4921 26.9298 10.3408C26.0087 9.74418 26.4082 9.1097 26.7952 8.50883C26.1895 7.73568 25.3988 7.3449 24.5451 7.07178C23.0562 6.59697 21.5211 6.51293 19.9692 6.62638C19.3257 6.681 18.6822 6.76504 17.9546 6.84068ZM-37.2929 155.651C-36.7125 155.546 -36.2246 155.453 -35.6652 155.352C-35.7241 154.667 -36.0017 154.066 -36.5064 153.449C-36.8386 153.789 -37.1288 154.087 -37.4316 154.398C-37.2129 154.642 -37.0237 154.852 -36.8218 155.075C-36.9732 155.26 -37.1162 155.432 -37.2929 155.651ZM281.196 69.348C281.196 69.7472 281.196 70.1379 281.196 70.5623C281.936 70.0581 281.928 69.9152 281.196 69.348Z" fill="#008ABD"/>
</svg>
