<?xml version="1.0" standalone="no"?>
<!DOCTYPE svg PUBLIC "-//W3C//DTD SVG 20010904//EN"
 "http://www.w3.org/TR/2001/REC-SVG-20010904/DTD/svg10.dtd">
<svg version="1.0" xmlns="http://www.w3.org/2000/svg"
 width="512.000000pt" height="512.000000pt" viewBox="0 0 512.000000 512.000000"
 preserveAspectRatio="xMidYMid meet">

<g transform="translate(0.000000,512.000000) scale(0.100000,-0.100000)"
fill="#000000" stroke="none">
<path d="M2380 5114 c-19 -2 -78 -9 -130 -15 -393 -46 -726 -223 -933 -497
-118 -157 -214 -360 -277 -586 -61 -219 -86 -383 -146 -926 -54 -501 -75 -621
-141 -800 -49 -132 -91 -198 -184 -283 l-80 -74 62 -57 c69 -62 222 -146 360
-197 94 -34 345 -100 456 -120 40 -6 70 -15 68 -19 -3 -4 -35 -20 -72 -36 -38
-15 -148 -63 -245 -105 -98 -43 -231 -94 -295 -114 -154 -48 -241 -95 -318
-170 -74 -73 -126 -163 -154 -265 -20 -69 -21 -101 -21 -462 l0 -388 2230 0
2230 0 0 388 c0 361 -1 393 -21 462 -28 102 -80 192 -154 265 -77 75 -164 122
-318 170 -64 20 -197 71 -295 114 -97 42 -207 90 -245 105 -37 16 -69 32 -72
36 -2 4 28 13 68 19 102 18 358 85 447 116 131 47 301 140 369 201 l62 57 -80
74 c-89 82 -133 149 -180 271 -66 174 -91 313 -145 812 -46 414 -62 535 -92
691 -154 799 -536 1206 -1230 1314 -94 15 -449 28 -524 19z m310 -214 c164
-10 317 -37 432 -76 l78 -26 -62 -81 c-504 -661 -1147 -1141 -1724 -1286 -72
-18 -266 -52 -271 -47 -4 4 38 285 58 386 122 613 391 948 862 1074 149 40
205 48 462 64 11 1 85 -3 165 -8z m874 -350 c125 -131 209 -279 279 -490 40
-121 82 -298 74 -307 -11 -10 -177 27 -306 69 -68 23 -194 76 -280 119 -158
79 -371 210 -371 229 0 5 42 56 93 112 125 139 180 205 266 320 l73 97 47 -35
c27 -18 83 -70 125 -114z m-626 -631 c175 -117 431 -243 606 -300 l136 -44 10
-50 c46 -226 39 -460 -19 -668 -125 -444 -481 -890 -856 -1072 -205 -99 -296
-101 -492 -9 -356 165 -715 592 -852 1012 -36 107 -71 292 -71 368 l0 52 73
17 c369 90 794 327 1172 656 55 47 109 96 119 108 11 11 23 21 28 21 5 0 70
-41 146 -91z m1026 -421 c8 -48 23 -178 56 -493 60 -566 124 -817 254 -1008
14 -21 26 -40 26 -43 0 -9 -129 -63 -227 -94 -137 -44 -274 -76 -443 -104
-253 -42 -244 -42 -269 -8 -16 23 -21 45 -21 93 l0 62 68 76 c277 308 452 653
508 1001 18 108 20 362 4 455 -15 88 -14 95 15 95 20 0 25 -6 29 -32z m-2771
-415 c16 -253 130 -563 301 -823 74 -113 112 -162 218 -281 l68 -76 0 -64 c0
-52 -4 -69 -23 -93 l-23 -29 -175 27 c-195 30 -366 69 -512 116 -98 31 -227
85 -227 94 0 3 12 22 26 43 123 181 194 446 244 917 29 273 25 256 64 256 l33
0 6 -87z m880 -1414 c354 -227 621 -227 976 1 45 29 83 51 85 49 1 -2 14 -25
29 -51 15 -25 39 -61 54 -79 70 -83 277 -208 488 -294 50 -20 160 -68 245
-105 85 -37 200 -82 255 -100 149 -47 175 -58 226 -96 51 -37 87 -84 121 -159
22 -48 23 -62 26 -338 l3 -287 -2021 0 -2022 0 4 288 c3 274 4 289 26 337 34
75 70 122 121 159 51 38 77 49 226 96 55 18 170 63 255 100 85 37 196 85 245
105 217 89 421 213 493 300 17 21 41 58 54 82 13 23 25 43 27 43 2 0 40 -23
84 -51z"/>
</g>
</svg>
