<svg width="26" height="26" viewBox="0 0 26 26" fill="none" xmlns="http://www.w3.org/2000/svg">
<path d="M0 13C0 5.8203 5.8203 0 13 0C20.1797 0 26 5.8203 26 13C26 20.1797 20.1797 26 13 26C5.8203 26 0 20.1797 0 13Z" fill="#FF0000"/>
<path d="M19.6438 9.78966C19.4843 9.17704 19.0144 8.69462 18.4178 8.53089C17.3365 8.23334 13.0002 8.23334 13.0002 8.23334C13.0002 8.23334 8.66398 8.23334 7.58262 8.53089C6.98596 8.69462 6.51606 9.17704 6.3566 9.78966C6.06689 10.9 6.06689 13.2167 6.06689 13.2167C6.06689 13.2167 6.06689 15.5333 6.3566 16.6437C6.51606 17.2563 6.98596 17.7387 7.58262 17.9025C8.66398 18.2 13.0002 18.2 13.0002 18.2C13.0002 18.2 17.3365 18.2 18.4178 17.9025C19.0144 17.7387 19.4843 17.2563 19.6438 16.6437C19.9336 15.5333 19.9336 13.2167 19.9336 13.2167C19.9336 13.2167 19.9336 10.9 19.6438 9.78966Z" fill="white"/>
<path d="M11.7002 15.6V11.2667L15.1669 13.4334L11.7002 15.6Z" fill="#FF0000"/>
</svg>
