<svg width="20" height="19" viewBox="0 0 20 19" fill="none" xmlns="http://www.w3.org/2000/svg">
<mask id="path-1-outside-1_199_139" maskUnits="userSpaceOnUse" x="0" y="-0.292969" width="20" height="20" fill="black">
<rect fill="white" y="-0.292969" width="20" height="20"/>
<path d="M8.0811 0.764145C7.29811 0.976357 6.72002 1.51786 6.44926 2.29719C6.36145 2.54965 6.34682 2.64478 6.34682 3.01066C6.34682 3.59608 6.46756 3.97659 6.80417 4.42663C6.881 4.53274 6.94686 4.63153 6.94686 4.64616C6.94686 4.6608 5.6553 5.967 4.07469 7.54761C0.807356 10.8149 1.00493 10.5808 1.00127 11.1881C1.00127 11.4882 1.01225 11.5394 1.12201 11.7626C1.27203 12.0699 1.56107 12.3407 1.85378 12.4504C2.21234 12.5858 2.73556 12.5419 3.02094 12.359L3.10144 12.3041L3.11242 15.1104C3.12339 17.6862 3.12705 17.9314 3.18559 18.0594C3.29902 18.3082 3.46366 18.4802 3.70149 18.5973L3.92833 18.707L10.3862 18.6997C16.7232 18.6887 16.8476 18.6887 16.9903 18.6156C17.1879 18.5204 17.4038 18.2972 17.4989 18.0887C17.5757 17.9204 17.5757 17.8984 17.5867 15.1104L17.5977 12.3041L17.6782 12.359C17.9636 12.5419 18.4868 12.5858 18.8454 12.4504C19.1381 12.3407 19.4271 12.0699 19.5771 11.7626C19.6869 11.543 19.6979 11.4882 19.6979 11.1881C19.6979 10.6283 19.6723 10.5918 18.3002 9.21969C17.0489 7.97569 17.0672 7.99033 16.8257 8.11473C16.6903 8.18425 16.6427 8.27206 16.6427 8.44768C16.6427 8.5794 16.6903 8.63428 17.7733 9.72095C18.399 10.3466 18.9259 10.9064 18.9441 10.9613C19.0539 11.2503 18.9185 11.6016 18.6405 11.7443C18.5014 11.8175 18.2197 11.8175 18.0843 11.7443C18.0258 11.7114 16.7013 10.4088 15.1426 8.85015L12.307 6.0109L12.5449 5.76942C12.6766 5.6377 12.8778 5.44744 12.9949 5.345L13.2071 5.1584L13.8584 5.80235L14.506 6.44996H14.6743C14.817 6.44996 14.8572 6.43167 14.9377 6.33654C15.0036 6.26336 15.0329 6.18287 15.0329 6.0914C15.0329 5.97066 14.9853 5.91211 14.3926 5.31573C14.0413 4.96082 13.7523 4.6608 13.7523 4.64616C13.7523 4.63153 13.8181 4.53274 13.895 4.42663C14.5938 3.50461 14.4987 2.18377 13.6791 1.37517C13.4303 1.12637 13.1522 0.950745 12.8083 0.822687C12.479 0.698286 11.8351 0.669016 11.4838 0.760487C11.1545 0.844639 10.7667 1.04222 10.5398 1.23979L10.3496 1.4081L10.1593 1.23979C9.93246 1.04222 9.54463 0.844639 9.22997 0.764145C8.94458 0.690969 8.35185 0.690969 8.0811 0.764145ZM9.33607 1.5764C9.48975 1.65324 9.6983 1.80691 9.89587 1.98985C10.1739 2.24597 10.2252 2.2789 10.3496 2.2789C10.474 2.2789 10.5252 2.24597 10.8033 1.98985C11.0008 1.80691 11.2094 1.65324 11.3631 1.5764C11.6009 1.45932 11.6302 1.45566 12.0326 1.45566C12.4497 1.45566 12.4607 1.45932 12.7351 1.5947C13.745 2.0923 13.9389 3.34728 13.1376 4.17783C12.8083 4.52176 10.3788 6.85243 10.3496 6.85243C10.3203 6.85243 7.84693 4.47785 7.53959 4.15954C6.6944 3.2741 7.01638 1.91302 8.17257 1.49957C8.3116 1.45201 8.44332 1.43737 8.72505 1.44469C9.05435 1.45566 9.11655 1.4703 9.33607 1.5764ZM7.9567 5.58648L8.3921 6.00724L5.55651 8.84649C3.99785 10.4088 2.67336 11.7114 2.61481 11.7443C2.47944 11.8175 2.19771 11.8175 2.05867 11.7443C1.7806 11.6016 1.64523 11.2503 1.75499 10.9613C1.78792 10.8698 7.44446 5.16937 7.49935 5.16937C7.51398 5.16937 7.71887 5.35597 7.9567 5.58648ZM9.51902 7.09391C10.1739 7.72689 10.2801 7.79641 10.4703 7.71592C10.5325 7.6903 10.8581 7.40492 11.1874 7.0866L11.7875 6.5085L14.3231 9.05871L16.8623 11.6089L16.855 14.697L16.844 17.785L16.7562 17.8801L16.6684 17.9753H15.922H15.1792V15.9702C15.1792 13.8115 15.1719 13.7091 14.9816 13.3359C14.8463 13.0651 14.6267 12.8127 14.3999 12.6553C14.2828 12.5748 14.1913 12.5017 14.1913 12.4907C14.1913 12.4797 14.2243 12.3773 14.2682 12.2675C14.3633 12.015 14.3962 11.5833 14.3413 11.3052C14.2462 10.8515 13.8913 10.3466 13.5108 10.1234C12.9364 9.78315 12.179 9.79413 11.6228 10.1527C10.924 10.5954 10.613 11.5357 10.913 12.2785L11.0008 12.487L10.8838 12.5675C10.8216 12.6114 10.6752 12.7395 10.5618 12.8492L10.3496 13.0468L10.141 12.8492C10.0239 12.7395 9.87758 12.6114 9.81172 12.5675L9.69464 12.487L9.76416 12.3297C10.1044 11.5577 9.77879 10.5735 9.03239 10.1198C8.64822 9.8856 8.02256 9.80876 7.60545 9.94414C6.97247 10.149 6.48951 10.6759 6.35779 11.3052C6.30291 11.5833 6.33584 12.015 6.43097 12.2675C6.47487 12.3773 6.5078 12.4797 6.5078 12.4907C6.5078 12.5017 6.41633 12.5748 6.29925 12.6553C6.0724 12.8127 5.85287 13.0651 5.7175 13.3359C5.52724 13.7091 5.51992 13.8115 5.51992 15.9702V17.9753H4.77718H4.03078L3.94297 17.8801L3.85516 17.785L3.84784 14.7079L3.84052 11.6272L6.36877 9.07334C7.75912 7.67201 8.90433 6.52314 8.91165 6.52314C8.92263 6.52314 9.19704 6.77926 9.51902 7.09391ZM8.58236 10.7162C8.94824 10.8918 9.16045 11.2394 9.15679 11.6638C9.15679 12.0919 8.92995 12.4395 8.52747 12.6224C8.15062 12.798 7.61277 12.6883 7.34567 12.3846C6.97247 11.9638 6.9615 11.3747 7.32006 10.9686C7.64936 10.5954 8.13232 10.4966 8.58236 10.7162ZM13.0278 10.7015C13.2583 10.8003 13.5071 11.0784 13.5913 11.3235C13.7267 11.737 13.5767 12.2236 13.2254 12.4907C12.4278 13.0981 11.2935 12.337 11.5716 11.3821C11.7582 10.7381 12.4095 10.4344 13.0278 10.7015ZM7.1481 13.1639C7.53227 13.4237 8.15793 13.5115 8.61895 13.3725C8.75432 13.3286 8.94824 13.2444 9.04337 13.1822C9.21167 13.0761 9.22265 13.0724 9.33242 13.131C9.45316 13.1932 9.76416 13.4676 9.76416 13.5115C9.76416 13.5298 9.69464 13.581 9.60683 13.6322C9.39096 13.7603 9.15313 14.0274 9.04337 14.2652C8.92263 14.5323 8.89336 14.9238 8.97385 15.2055L9.03239 15.4141L8.79457 15.6483C8.38844 16.0471 8.30063 16.3471 8.30063 17.3606V17.9753H7.27616H6.24803L6.259 15.9373L6.26998 13.8957L6.35413 13.7127C6.45292 13.4969 6.61025 13.3212 6.83344 13.1785C6.92491 13.12 7.00175 13.0724 7.00906 13.0724C7.01272 13.0724 7.07492 13.1127 7.1481 13.1639ZM11.6558 13.1822C12.1973 13.5298 13.0242 13.5188 13.5547 13.1603C13.6754 13.0761 13.7011 13.0724 13.7852 13.1163C13.9901 13.2225 14.2901 13.5591 14.3706 13.7786C14.4438 13.9835 14.4475 14.042 14.4475 15.9812V17.9753H13.423H12.3985V17.3606C12.3985 16.3471 12.3107 16.0471 11.9046 15.6483L11.6667 15.4141L11.7253 15.2055C11.8058 14.9238 11.7765 14.5323 11.6558 14.2652C11.546 14.0274 11.3082 13.7603 11.0923 13.6322C11.0045 13.581 10.935 13.5298 10.935 13.5152C10.935 13.453 11.396 13.0724 11.4728 13.0724C11.4765 13.0724 11.5606 13.1237 11.6558 13.1822ZM10.5142 14.1737C11.2204 14.3677 11.2131 15.3336 10.5069 15.5202C10.2069 15.6007 9.85563 15.4324 9.72391 15.1433C9.54463 14.7482 9.75318 14.2945 10.1666 14.1774C10.3386 14.1262 10.3459 14.1262 10.5142 14.1737ZM10.1227 16.252C10.4191 16.2995 10.7484 16.2483 10.9972 16.1093L11.1911 16.0068L11.3338 16.1093C11.4106 16.1678 11.5131 16.2885 11.5606 16.391C11.6411 16.5556 11.6485 16.6178 11.6594 17.2691L11.6741 17.9753H10.3496H9.02507L9.03971 17.2691C9.05069 16.6178 9.058 16.5556 9.1385 16.391C9.18606 16.2885 9.28851 16.1678 9.36535 16.1093L9.50804 16.0068L9.70196 16.1093C9.8044 16.1678 9.99466 16.23 10.1227 16.252Z"/>
</mask>
<path d="M8.0811 0.764145C7.29811 0.976357 6.72002 1.51786 6.44926 2.29719C6.36145 2.54965 6.34682 2.64478 6.34682 3.01066C6.34682 3.59608 6.46756 3.97659 6.80417 4.42663C6.881 4.53274 6.94686 4.63153 6.94686 4.64616C6.94686 4.6608 5.6553 5.967 4.07469 7.54761C0.807356 10.8149 1.00493 10.5808 1.00127 11.1881C1.00127 11.4882 1.01225 11.5394 1.12201 11.7626C1.27203 12.0699 1.56107 12.3407 1.85378 12.4504C2.21234 12.5858 2.73556 12.5419 3.02094 12.359L3.10144 12.3041L3.11242 15.1104C3.12339 17.6862 3.12705 17.9314 3.18559 18.0594C3.29902 18.3082 3.46366 18.4802 3.70149 18.5973L3.92833 18.707L10.3862 18.6997C16.7232 18.6887 16.8476 18.6887 16.9903 18.6156C17.1879 18.5204 17.4038 18.2972 17.4989 18.0887C17.5757 17.9204 17.5757 17.8984 17.5867 15.1104L17.5977 12.3041L17.6782 12.359C17.9636 12.5419 18.4868 12.5858 18.8454 12.4504C19.1381 12.3407 19.4271 12.0699 19.5771 11.7626C19.6869 11.543 19.6979 11.4882 19.6979 11.1881C19.6979 10.6283 19.6723 10.5918 18.3002 9.21969C17.0489 7.97569 17.0672 7.99033 16.8257 8.11473C16.6903 8.18425 16.6427 8.27206 16.6427 8.44768C16.6427 8.5794 16.6903 8.63428 17.7733 9.72095C18.399 10.3466 18.9259 10.9064 18.9441 10.9613C19.0539 11.2503 18.9185 11.6016 18.6405 11.7443C18.5014 11.8175 18.2197 11.8175 18.0843 11.7443C18.0258 11.7114 16.7013 10.4088 15.1426 8.85015L12.307 6.0109L12.5449 5.76942C12.6766 5.6377 12.8778 5.44744 12.9949 5.345L13.2071 5.1584L13.8584 5.80235L14.506 6.44996H14.6743C14.817 6.44996 14.8572 6.43167 14.9377 6.33654C15.0036 6.26336 15.0329 6.18287 15.0329 6.0914C15.0329 5.97066 14.9853 5.91211 14.3926 5.31573C14.0413 4.96082 13.7523 4.6608 13.7523 4.64616C13.7523 4.63153 13.8181 4.53274 13.895 4.42663C14.5938 3.50461 14.4987 2.18377 13.6791 1.37517C13.4303 1.12637 13.1522 0.950745 12.8083 0.822687C12.479 0.698286 11.8351 0.669016 11.4838 0.760487C11.1545 0.844639 10.7667 1.04222 10.5398 1.23979L10.3496 1.4081L10.1593 1.23979C9.93246 1.04222 9.54463 0.844639 9.22997 0.764145C8.94458 0.690969 8.35185 0.690969 8.0811 0.764145ZM9.33607 1.5764C9.48975 1.65324 9.6983 1.80691 9.89587 1.98985C10.1739 2.24597 10.2252 2.2789 10.3496 2.2789C10.474 2.2789 10.5252 2.24597 10.8033 1.98985C11.0008 1.80691 11.2094 1.65324 11.3631 1.5764C11.6009 1.45932 11.6302 1.45566 12.0326 1.45566C12.4497 1.45566 12.4607 1.45932 12.7351 1.5947C13.745 2.0923 13.9389 3.34728 13.1376 4.17783C12.8083 4.52176 10.3788 6.85243 10.3496 6.85243C10.3203 6.85243 7.84693 4.47785 7.53959 4.15954C6.6944 3.2741 7.01638 1.91302 8.17257 1.49957C8.3116 1.45201 8.44332 1.43737 8.72505 1.44469C9.05435 1.45566 9.11655 1.4703 9.33607 1.5764ZM7.9567 5.58648L8.3921 6.00724L5.55651 8.84649C3.99785 10.4088 2.67336 11.7114 2.61481 11.7443C2.47944 11.8175 2.19771 11.8175 2.05867 11.7443C1.7806 11.6016 1.64523 11.2503 1.75499 10.9613C1.78792 10.8698 7.44446 5.16937 7.49935 5.16937C7.51398 5.16937 7.71887 5.35597 7.9567 5.58648ZM9.51902 7.09391C10.1739 7.72689 10.2801 7.79641 10.4703 7.71592C10.5325 7.6903 10.8581 7.40492 11.1874 7.0866L11.7875 6.5085L14.3231 9.05871L16.8623 11.6089L16.855 14.697L16.844 17.785L16.7562 17.8801L16.6684 17.9753H15.922H15.1792V15.9702C15.1792 13.8115 15.1719 13.7091 14.9816 13.3359C14.8463 13.0651 14.6267 12.8127 14.3999 12.6553C14.2828 12.5748 14.1913 12.5017 14.1913 12.4907C14.1913 12.4797 14.2243 12.3773 14.2682 12.2675C14.3633 12.015 14.3962 11.5833 14.3413 11.3052C14.2462 10.8515 13.8913 10.3466 13.5108 10.1234C12.9364 9.78315 12.179 9.79413 11.6228 10.1527C10.924 10.5954 10.613 11.5357 10.913 12.2785L11.0008 12.487L10.8838 12.5675C10.8216 12.6114 10.6752 12.7395 10.5618 12.8492L10.3496 13.0468L10.141 12.8492C10.0239 12.7395 9.87758 12.6114 9.81172 12.5675L9.69464 12.487L9.76416 12.3297C10.1044 11.5577 9.77879 10.5735 9.03239 10.1198C8.64822 9.8856 8.02256 9.80876 7.60545 9.94414C6.97247 10.149 6.48951 10.6759 6.35779 11.3052C6.30291 11.5833 6.33584 12.015 6.43097 12.2675C6.47487 12.3773 6.5078 12.4797 6.5078 12.4907C6.5078 12.5017 6.41633 12.5748 6.29925 12.6553C6.0724 12.8127 5.85287 13.0651 5.7175 13.3359C5.52724 13.7091 5.51992 13.8115 5.51992 15.9702V17.9753H4.77718H4.03078L3.94297 17.8801L3.85516 17.785L3.84784 14.7079L3.84052 11.6272L6.36877 9.07334C7.75912 7.67201 8.90433 6.52314 8.91165 6.52314C8.92263 6.52314 9.19704 6.77926 9.51902 7.09391ZM8.58236 10.7162C8.94824 10.8918 9.16045 11.2394 9.15679 11.6638C9.15679 12.0919 8.92995 12.4395 8.52747 12.6224C8.15062 12.798 7.61277 12.6883 7.34567 12.3846C6.97247 11.9638 6.9615 11.3747 7.32006 10.9686C7.64936 10.5954 8.13232 10.4966 8.58236 10.7162ZM13.0278 10.7015C13.2583 10.8003 13.5071 11.0784 13.5913 11.3235C13.7267 11.737 13.5767 12.2236 13.2254 12.4907C12.4278 13.0981 11.2935 12.337 11.5716 11.3821C11.7582 10.7381 12.4095 10.4344 13.0278 10.7015ZM7.1481 13.1639C7.53227 13.4237 8.15793 13.5115 8.61895 13.3725C8.75432 13.3286 8.94824 13.2444 9.04337 13.1822C9.21167 13.0761 9.22265 13.0724 9.33242 13.131C9.45316 13.1932 9.76416 13.4676 9.76416 13.5115C9.76416 13.5298 9.69464 13.581 9.60683 13.6322C9.39096 13.7603 9.15313 14.0274 9.04337 14.2652C8.92263 14.5323 8.89336 14.9238 8.97385 15.2055L9.03239 15.4141L8.79457 15.6483C8.38844 16.0471 8.30063 16.3471 8.30063 17.3606V17.9753H7.27616H6.24803L6.259 15.9373L6.26998 13.8957L6.35413 13.7127C6.45292 13.4969 6.61025 13.3212 6.83344 13.1785C6.92491 13.12 7.00175 13.0724 7.00906 13.0724C7.01272 13.0724 7.07492 13.1127 7.1481 13.1639ZM11.6558 13.1822C12.1973 13.5298 13.0242 13.5188 13.5547 13.1603C13.6754 13.0761 13.7011 13.0724 13.7852 13.1163C13.9901 13.2225 14.2901 13.5591 14.3706 13.7786C14.4438 13.9835 14.4475 14.042 14.4475 15.9812V17.9753H13.423H12.3985V17.3606C12.3985 16.3471 12.3107 16.0471 11.9046 15.6483L11.6667 15.4141L11.7253 15.2055C11.8058 14.9238 11.7765 14.5323 11.6558 14.2652C11.546 14.0274 11.3082 13.7603 11.0923 13.6322C11.0045 13.581 10.935 13.5298 10.935 13.5152C10.935 13.453 11.396 13.0724 11.4728 13.0724C11.4765 13.0724 11.5606 13.1237 11.6558 13.1822ZM10.5142 14.1737C11.2204 14.3677 11.2131 15.3336 10.5069 15.5202C10.2069 15.6007 9.85563 15.4324 9.72391 15.1433C9.54463 14.7482 9.75318 14.2945 10.1666 14.1774C10.3386 14.1262 10.3459 14.1262 10.5142 14.1737ZM10.1227 16.252C10.4191 16.2995 10.7484 16.2483 10.9972 16.1093L11.1911 16.0068L11.3338 16.1093C11.4106 16.1678 11.5131 16.2885 11.5606 16.391C11.6411 16.5556 11.6485 16.6178 11.6594 17.2691L11.6741 17.9753H10.3496H9.02507L9.03971 17.2691C9.05069 16.6178 9.058 16.5556 9.1385 16.391C9.18606 16.2885 9.28851 16.1678 9.36535 16.1093L9.50804 16.0068L9.70196 16.1093C9.8044 16.1678 9.99466 16.23 10.1227 16.252Z" fill="white"/>
<path d="M8.0811 0.764145C7.29811 0.976357 6.72002 1.51786 6.44926 2.29719C6.36145 2.54965 6.34682 2.64478 6.34682 3.01066C6.34682 3.59608 6.46756 3.97659 6.80417 4.42663C6.881 4.53274 6.94686 4.63153 6.94686 4.64616C6.94686 4.6608 5.6553 5.967 4.07469 7.54761C0.807356 10.8149 1.00493 10.5808 1.00127 11.1881C1.00127 11.4882 1.01225 11.5394 1.12201 11.7626C1.27203 12.0699 1.56107 12.3407 1.85378 12.4504C2.21234 12.5858 2.73556 12.5419 3.02094 12.359L3.10144 12.3041L3.11242 15.1104C3.12339 17.6862 3.12705 17.9314 3.18559 18.0594C3.29902 18.3082 3.46366 18.4802 3.70149 18.5973L3.92833 18.707L10.3862 18.6997C16.7232 18.6887 16.8476 18.6887 16.9903 18.6156C17.1879 18.5204 17.4038 18.2972 17.4989 18.0887C17.5757 17.9204 17.5757 17.8984 17.5867 15.1104L17.5977 12.3041L17.6782 12.359C17.9636 12.5419 18.4868 12.5858 18.8454 12.4504C19.1381 12.3407 19.4271 12.0699 19.5771 11.7626C19.6869 11.543 19.6979 11.4882 19.6979 11.1881C19.6979 10.6283 19.6723 10.5918 18.3002 9.21969C17.0489 7.97569 17.0672 7.99033 16.8257 8.11473C16.6903 8.18425 16.6427 8.27206 16.6427 8.44768C16.6427 8.5794 16.6903 8.63428 17.7733 9.72095C18.399 10.3466 18.9259 10.9064 18.9441 10.9613C19.0539 11.2503 18.9185 11.6016 18.6405 11.7443C18.5014 11.8175 18.2197 11.8175 18.0843 11.7443C18.0258 11.7114 16.7013 10.4088 15.1426 8.85015L12.307 6.0109L12.5449 5.76942C12.6766 5.6377 12.8778 5.44744 12.9949 5.345L13.2071 5.1584L13.8584 5.80235L14.506 6.44996H14.6743C14.817 6.44996 14.8572 6.43167 14.9377 6.33654C15.0036 6.26336 15.0329 6.18287 15.0329 6.0914C15.0329 5.97066 14.9853 5.91211 14.3926 5.31573C14.0413 4.96082 13.7523 4.6608 13.7523 4.64616C13.7523 4.63153 13.8181 4.53274 13.895 4.42663C14.5938 3.50461 14.4987 2.18377 13.6791 1.37517C13.4303 1.12637 13.1522 0.950745 12.8083 0.822687C12.479 0.698286 11.8351 0.669016 11.4838 0.760487C11.1545 0.844639 10.7667 1.04222 10.5398 1.23979L10.3496 1.4081L10.1593 1.23979C9.93246 1.04222 9.54463 0.844639 9.22997 0.764145C8.94458 0.690969 8.35185 0.690969 8.0811 0.764145ZM9.33607 1.5764C9.48975 1.65324 9.6983 1.80691 9.89587 1.98985C10.1739 2.24597 10.2252 2.2789 10.3496 2.2789C10.474 2.2789 10.5252 2.24597 10.8033 1.98985C11.0008 1.80691 11.2094 1.65324 11.3631 1.5764C11.6009 1.45932 11.6302 1.45566 12.0326 1.45566C12.4497 1.45566 12.4607 1.45932 12.7351 1.5947C13.745 2.0923 13.9389 3.34728 13.1376 4.17783C12.8083 4.52176 10.3788 6.85243 10.3496 6.85243C10.3203 6.85243 7.84693 4.47785 7.53959 4.15954C6.6944 3.2741 7.01638 1.91302 8.17257 1.49957C8.3116 1.45201 8.44332 1.43737 8.72505 1.44469C9.05435 1.45566 9.11655 1.4703 9.33607 1.5764ZM7.9567 5.58648L8.3921 6.00724L5.55651 8.84649C3.99785 10.4088 2.67336 11.7114 2.61481 11.7443C2.47944 11.8175 2.19771 11.8175 2.05867 11.7443C1.7806 11.6016 1.64523 11.2503 1.75499 10.9613C1.78792 10.8698 7.44446 5.16937 7.49935 5.16937C7.51398 5.16937 7.71887 5.35597 7.9567 5.58648ZM9.51902 7.09391C10.1739 7.72689 10.2801 7.79641 10.4703 7.71592C10.5325 7.6903 10.8581 7.40492 11.1874 7.0866L11.7875 6.5085L14.3231 9.05871L16.8623 11.6089L16.855 14.697L16.844 17.785L16.7562 17.8801L16.6684 17.9753H15.922H15.1792V15.9702C15.1792 13.8115 15.1719 13.7091 14.9816 13.3359C14.8463 13.0651 14.6267 12.8127 14.3999 12.6553C14.2828 12.5748 14.1913 12.5017 14.1913 12.4907C14.1913 12.4797 14.2243 12.3773 14.2682 12.2675C14.3633 12.015 14.3962 11.5833 14.3413 11.3052C14.2462 10.8515 13.8913 10.3466 13.5108 10.1234C12.9364 9.78315 12.179 9.79413 11.6228 10.1527C10.924 10.5954 10.613 11.5357 10.913 12.2785L11.0008 12.487L10.8838 12.5675C10.8216 12.6114 10.6752 12.7395 10.5618 12.8492L10.3496 13.0468L10.141 12.8492C10.0239 12.7395 9.87758 12.6114 9.81172 12.5675L9.69464 12.487L9.76416 12.3297C10.1044 11.5577 9.77879 10.5735 9.03239 10.1198C8.64822 9.8856 8.02256 9.80876 7.60545 9.94414C6.97247 10.149 6.48951 10.6759 6.35779 11.3052C6.30291 11.5833 6.33584 12.015 6.43097 12.2675C6.47487 12.3773 6.5078 12.4797 6.5078 12.4907C6.5078 12.5017 6.41633 12.5748 6.29925 12.6553C6.0724 12.8127 5.85287 13.0651 5.7175 13.3359C5.52724 13.7091 5.51992 13.8115 5.51992 15.9702V17.9753H4.77718H4.03078L3.94297 17.8801L3.85516 17.785L3.84784 14.7079L3.84052 11.6272L6.36877 9.07334C7.75912 7.67201 8.90433 6.52314 8.91165 6.52314C8.92263 6.52314 9.19704 6.77926 9.51902 7.09391ZM8.58236 10.7162C8.94824 10.8918 9.16045 11.2394 9.15679 11.6638C9.15679 12.0919 8.92995 12.4395 8.52747 12.6224C8.15062 12.798 7.61277 12.6883 7.34567 12.3846C6.97247 11.9638 6.9615 11.3747 7.32006 10.9686C7.64936 10.5954 8.13232 10.4966 8.58236 10.7162ZM13.0278 10.7015C13.2583 10.8003 13.5071 11.0784 13.5913 11.3235C13.7267 11.737 13.5767 12.2236 13.2254 12.4907C12.4278 13.0981 11.2935 12.337 11.5716 11.3821C11.7582 10.7381 12.4095 10.4344 13.0278 10.7015ZM7.1481 13.1639C7.53227 13.4237 8.15793 13.5115 8.61895 13.3725C8.75432 13.3286 8.94824 13.2444 9.04337 13.1822C9.21167 13.0761 9.22265 13.0724 9.33242 13.131C9.45316 13.1932 9.76416 13.4676 9.76416 13.5115C9.76416 13.5298 9.69464 13.581 9.60683 13.6322C9.39096 13.7603 9.15313 14.0274 9.04337 14.2652C8.92263 14.5323 8.89336 14.9238 8.97385 15.2055L9.03239 15.4141L8.79457 15.6483C8.38844 16.0471 8.30063 16.3471 8.30063 17.3606V17.9753H7.27616H6.24803L6.259 15.9373L6.26998 13.8957L6.35413 13.7127C6.45292 13.4969 6.61025 13.3212 6.83344 13.1785C6.92491 13.12 7.00175 13.0724 7.00906 13.0724C7.01272 13.0724 7.07492 13.1127 7.1481 13.1639ZM11.6558 13.1822C12.1973 13.5298 13.0242 13.5188 13.5547 13.1603C13.6754 13.0761 13.7011 13.0724 13.7852 13.1163C13.9901 13.2225 14.2901 13.5591 14.3706 13.7786C14.4438 13.9835 14.4475 14.042 14.4475 15.9812V17.9753H13.423H12.3985V17.3606C12.3985 16.3471 12.3107 16.0471 11.9046 15.6483L11.6667 15.4141L11.7253 15.2055C11.8058 14.9238 11.7765 14.5323 11.6558 14.2652C11.546 14.0274 11.3082 13.7603 11.0923 13.6322C11.0045 13.581 10.935 13.5298 10.935 13.5152C10.935 13.453 11.396 13.0724 11.4728 13.0724C11.4765 13.0724 11.5606 13.1237 11.6558 13.1822ZM10.5142 14.1737C11.2204 14.3677 11.2131 15.3336 10.5069 15.5202C10.2069 15.6007 9.85563 15.4324 9.72391 15.1433C9.54463 14.7482 9.75318 14.2945 10.1666 14.1774C10.3386 14.1262 10.3459 14.1262 10.5142 14.1737ZM10.1227 16.252C10.4191 16.2995 10.7484 16.2483 10.9972 16.1093L11.1911 16.0068L11.3338 16.1093C11.4106 16.1678 11.5131 16.2885 11.5606 16.391C11.6411 16.5556 11.6485 16.6178 11.6594 17.2691L11.6741 17.9753H10.3496H9.02507L9.03971 17.2691C9.05069 16.6178 9.058 16.5556 9.1385 16.391C9.18606 16.2885 9.28851 16.1678 9.36535 16.1093L9.50804 16.0068L9.70196 16.1093C9.8044 16.1678 9.99466 16.23 10.1227 16.252Z" stroke="white" stroke-width="0.2" mask="url(#path-1-outside-1_199_139)"/>
<path d="M15.686 6.87607L15.686 6.87607L15.6868 6.87572C15.835 6.81468 16.0209 6.87295 16.1411 7.00118L16.1412 7.00116L16.1422 7.00229C16.2016 7.06972 16.2389 7.14023 16.2477 7.2187C16.2564 7.2969 16.2362 7.37642 16.1931 7.46062L16.193 7.46071C16.1571 7.53065 16.112 7.58462 16.0514 7.62039C15.9911 7.65602 15.9202 7.67079 15.8376 7.67079C15.7692 7.67079 15.6778 7.65133 15.6303 7.62972L15.6302 7.62989L15.6264 7.62773C15.5719 7.59692 15.5215 7.53098 15.4856 7.46361C15.4493 7.39528 15.4217 7.31378 15.4217 7.24393C15.4217 7.17501 15.4602 7.09578 15.5072 7.03147C15.5549 6.96627 15.6199 6.90471 15.686 6.87607Z" fill="white" stroke="white" stroke-width="0.1"/>
</svg>
