<svg width="18" height="18" viewBox="0 0 18 18" fill="none" xmlns="http://www.w3.org/2000/svg">
<path d="M7.61139 0.780479C6.97507 0.850792 6.45827 1.26563 6.21921 1.89845C6.16999 2.02501 6.01882 3.13243 5.69538 5.67071C5.44577 7.64649 5.23132 9.3129 5.22077 9.37267C5.20319 9.4711 4.97116 9.68907 4.47194 10.0652C4.4403 10.0899 4.3735 10.0477 4.23991 9.9211C3.9903 9.68556 3.81803 9.62931 3.60358 9.72423C3.42077 9.80157 0.1653 12.3047 0.0844402 12.4277C0.00709642 12.5438 -0.0139973 12.7336 0.0317058 12.8742C0.0598308 12.9551 0.689128 13.6582 2.01452 15.082C3.75475 16.9559 3.96921 17.1738 4.1028 17.2125C4.39108 17.2969 4.43327 17.2688 5.37194 16.3371C6.95397 14.7656 7.7028 13.9711 7.73444 13.834C7.77663 13.6512 7.72038 13.4719 7.57975 13.3277C7.50944 13.2574 7.45319 13.1836 7.45319 13.1625C7.45319 13.1449 7.80124 12.7828 8.22663 12.3574L9.00007 11.584L9.7735 12.3574C10.1989 12.7828 10.5469 13.1449 10.5469 13.1625C10.5469 13.1836 10.4907 13.2574 10.4204 13.3277C10.2798 13.4719 10.2235 13.6512 10.2657 13.834C10.2973 13.9711 11.0462 14.7656 12.6282 16.3371C13.5669 17.2688 13.6091 17.2969 13.8973 17.2125C14.0309 17.1738 14.2454 16.9559 15.9891 15.082C17.4481 13.5106 17.9403 12.9586 17.9719 12.8602C18.0247 12.6809 17.979 12.4945 17.8489 12.3574C17.7856 12.2941 17.1739 11.809 16.4883 11.2817C15.8028 10.7543 15.0821 10.1988 14.8887 10.0477C14.3051 9.59415 14.1258 9.57306 13.7602 9.9211C13.6266 10.0477 13.5598 10.0899 13.5282 10.0652C13.029 9.68907 12.7969 9.4711 12.7794 9.37267C12.7688 9.3129 12.5544 7.64649 12.3048 5.6672C11.9848 3.14649 11.8266 2.02149 11.7809 1.89845C11.5102 1.18829 10.9161 0.769932 10.1778 0.769932C9.75944 0.769932 9.38679 0.900009 9.12311 1.12852L9.00007 1.23751L8.87702 1.12852C8.56764 0.857822 8.086 0.724228 7.61139 0.780479ZM8.13874 1.8879C8.24772 1.94767 8.36022 2.08126 8.41999 2.22188C8.46569 2.3379 8.47272 2.82657 8.47272 6.42306C8.47272 10.3289 8.46921 10.5012 8.40593 10.6348C8.36374 10.7227 8.03679 11.0777 7.51647 11.5945L6.69733 12.4102L5.93092 11.6438L5.161 10.8738L5.62858 10.4906C5.88522 10.2797 6.12428 10.0582 6.15592 10.002C6.20163 9.9211 6.33522 8.96837 6.69733 6.13478C6.961 4.05001 7.19655 2.30626 7.22819 2.2254C7.33366 1.9336 7.62546 1.77188 7.94538 1.82813C8.01218 1.8422 8.10007 1.86681 8.13874 1.8879ZM10.4977 1.89142C10.6067 1.95118 10.7473 2.12345 10.7895 2.25704C10.8071 2.32032 11.0391 4.06407 11.3028 6.13478C11.6649 8.97892 11.7985 9.9211 11.8442 10.002C11.8758 10.0582 12.1149 10.2797 12.3716 10.4906L12.8391 10.8738L12.0692 11.6438L11.3028 12.4102L10.4837 11.5945C9.96335 11.0777 9.63639 10.7227 9.59421 10.6348C9.53093 10.5012 9.52741 10.3289 9.52741 6.41603C9.52741 2.53478 9.53093 2.33087 9.59421 2.19728C9.72077 1.91251 9.99147 1.7754 10.3008 1.82813C10.3676 1.8422 10.4591 1.87032 10.4977 1.89142ZM5.10475 12.3047C5.84655 13.057 6.45124 13.6899 6.45124 13.7039C6.45124 13.7215 5.95905 14.2348 5.35788 14.8465L4.26803 15.9609L2.79147 14.3719C1.98288 13.5 1.32194 12.7793 1.32546 12.7723C1.33952 12.7406 3.70202 10.9336 3.72663 10.9336C3.74421 10.9336 4.36296 11.5488 5.10475 12.3047ZM15.4864 11.8442C16.1368 12.3469 16.6641 12.7688 16.6606 12.7863C16.6571 12.8004 15.9997 13.5211 15.1946 14.3859L13.7321 15.9609L12.6423 14.8465C12.0411 14.2348 11.5489 13.7215 11.5489 13.7039C11.5489 13.6652 14.2348 10.9336 14.277 10.9336C14.2946 10.9336 14.8395 11.3449 15.4864 11.8442Z" fill="white"/>
</svg>
