<svg width="18" height="22" viewBox="0 0 18 22" fill="none" xmlns="http://www.w3.org/2000/svg">
<path d="M5.47159 0.647425C5.04087 0.747225 4.54712 1.1044 4.3055 1.48785C4.01135 1.95008 4.01135 1.8923 4.01135 5.62693V9.07266L3.90105 8.78377C3.54912 7.8488 3.19194 6.98736 3.06063 6.71948C2.64041 5.87906 1.93656 5.54289 1.1224 5.78976C0.80199 5.88431 0.696937 5.94734 0.44481 6.19947C-0.0594436 6.70897 -0.127728 7.28676 0.203188 8.36356C0.607642 9.69773 0.744211 10.4594 0.796737 11.6727C0.849263 12.9281 0.744211 13.653 0.350262 14.777C0.119146 15.4231 0.0613671 15.8118 0.0613671 16.5577C0.0718724 17.9916 0.633905 19.2575 1.71595 20.2608C2.59839 21.0802 3.69094 21.5319 4.94107 21.5845C5.70796 21.6212 6.28049 21.5477 6.93182 21.3323C7.63568 21.096 7.96659 20.8964 9.95734 19.5149L11.7695 18.2543L12.3525 18.2228C13.0879 18.1807 13.4241 18.0599 13.8128 17.708C14.1595 17.3876 14.3538 17.0094 14.4326 16.4894L14.4956 16.0954L15.9401 14.9031C16.7333 14.2518 17.4424 13.653 17.5054 13.5742C17.8993 13.1224 18.0201 12.3871 17.7838 11.8566C17.6577 11.5729 17.3793 11.2578 17.1062 11.0844L16.9329 10.9794L17.1167 10.7745C17.4161 10.4489 17.5317 10.1705 17.5579 9.72924C17.5737 9.41408 17.5579 9.27752 17.4634 9.03589C17.3321 8.67871 17.0011 8.31628 16.686 8.17971L16.4706 8.08517L16.6545 7.87506C17.2323 7.23424 17.2533 6.29401 16.7017 5.64269C16.6229 5.54289 16.4286 5.39581 16.2815 5.31177L16.0031 5.15419L16.1134 4.93358C16.2763 4.61317 16.271 3.97235 16.1082 3.60991C15.8666 3.08465 15.3413 2.70121 14.7845 2.65393L14.4904 2.62767L14.4273 2.25999C14.2908 1.4826 13.8128 0.910057 13.0984 0.689445C12.799 0.594898 12.5784 0.589645 9.22723 0.594898C7.26799 0.600151 5.58189 0.621162 5.47159 0.647425ZM13.1142 1.61391C13.4346 1.84503 13.5869 2.14443 13.6184 2.62242L13.6447 3.00586H9.24298H4.84652L4.86228 2.56989C4.88855 2.01311 5.02511 1.77674 5.44532 1.56664L5.72371 1.42482L9.30602 1.44057L12.8831 1.45633L13.1142 1.61391ZM14.9789 3.56789C15.3045 3.72022 15.4831 4.15094 15.3676 4.52913C15.3098 4.71822 15.2205 4.81277 14.5639 5.3643C14.4746 5.43258 14.4694 5.38531 14.4694 4.46084V3.4786H14.6322C14.7215 3.4786 14.8791 3.52062 14.9789 3.56789ZM13.6289 9.12519V14.4041H12.0637H10.5036L10.3828 14.194C10.1149 13.7213 9.51612 13.4849 8.98035 13.6425C8.66519 13.7318 8.31852 13.9996 8.1872 14.257L8.10841 14.4041H6.48535H4.85703V9.12519V3.84628H9.24298H13.6289V9.12519ZM15.8245 6.02088C15.9033 6.0629 16.0241 6.15745 16.0977 6.23624C16.2132 6.35705 16.229 6.42533 16.229 6.73524C16.229 7.01888 16.208 7.11868 16.1239 7.20797C16.0031 7.34454 14.5376 8.57366 14.4956 8.57366C14.4799 8.57366 14.4694 8.09567 14.4694 7.50738V6.44634L14.8528 6.19947C15.2678 5.92633 15.5462 5.8738 15.8245 6.02088ZM1.821 6.5724C2.00484 6.64069 2.2097 6.86655 2.33576 7.14494C2.77173 8.06941 3.43882 9.98662 3.80125 11.3471L4.01661 12.1507V14.3988C4.01135 16.5577 4.01661 16.6627 4.12166 16.9464C4.33176 17.4979 4.74147 17.8971 5.34552 18.1282C5.52937 18.1965 5.95483 18.2123 7.92457 18.2385L10.283 18.2648L8.94884 19.1892C7.51487 20.1873 7.22597 20.3501 6.53787 20.5812C6.12292 20.7178 6.03362 20.7283 5.22471 20.7283C4.38954 20.7283 4.34227 20.723 3.85903 20.5602C2.69819 20.1715 1.86302 19.4519 1.33251 18.3698C0.991085 17.6712 0.90179 17.2668 0.90179 16.4789C0.90179 15.796 1.00159 15.3023 1.25897 14.7298C1.53736 14.0994 1.68443 12.8703 1.63191 11.6465C1.57938 10.3753 1.39554 9.32479 1.01735 8.15345C0.733705 7.27626 0.80199 6.82978 1.25897 6.62493C1.49534 6.51463 1.64241 6.50412 1.821 6.5724ZM16.3078 8.93084C16.4076 8.97812 16.5442 9.10418 16.6124 9.20398C16.7175 9.35631 16.7333 9.44035 16.7175 9.69247C16.6912 10.0654 16.686 10.0707 15.4306 11.1002L14.4694 11.8828V10.806V9.72924L14.9684 9.35631C15.2468 9.15145 15.5356 8.95185 15.6144 8.90983C15.8088 8.81003 16.0872 8.81528 16.3078 8.93084ZM16.7122 11.8303C17.0327 12.0246 17.1587 12.5079 16.9749 12.8598C16.9066 12.9964 14.5849 14.9819 14.4956 14.9819C14.4799 14.9819 14.4694 14.5249 14.4694 13.9681V12.9596L15.168 12.4028C15.5462 12.0982 15.9086 11.8198 15.9664 11.7883C16.1345 11.6937 16.5231 11.7147 16.7122 11.8303ZM9.62643 14.5932C9.82078 14.8085 9.763 15.0922 9.49511 15.234C9.13268 15.4284 8.78075 15.0502 8.93308 14.6405C8.98035 14.5249 9.264 14.3988 9.40056 14.4356C9.45834 14.4514 9.55814 14.5249 9.62643 14.5932ZM8.21872 15.5019C8.75449 16.3686 9.98886 16.3213 10.4458 15.4126L10.5351 15.2445L12.0689 15.255L13.6027 15.2708L13.5974 15.9274C13.5974 16.6417 13.5607 16.7678 13.277 17.0514C12.9513 17.3823 13.0879 17.3718 9.38481 17.3876C7.09991 17.3981 5.91281 17.3876 5.72897 17.3456C5.4033 17.2773 5.10916 17.0567 4.96208 16.7625C4.87279 16.5944 4.85703 16.4526 4.85703 15.9011V15.2445H6.45908H8.06114L8.21872 15.5019Z" fill="white"/>
</svg>
