<svg width="17" height="17" viewBox="0 0 17 17" fill="none" xmlns="http://www.w3.org/2000/svg">
<path d="M4.46097 1H1.57683C1.25825 1 1 1.25825 1 1.57683V15.4207C1 15.7393 1.25825 15.9975 1.57683 15.9975H4.46097C4.77954 15.9975 5.0378 15.7393 5.0378 15.4207V1.57683C5.0378 1.25825 4.77954 1 4.46097 1Z" stroke="white" stroke-width="1.2" stroke-linecap="round" stroke-linejoin="round"/>
<path d="M8.49881 3.30731H5.61467C5.2961 3.30731 5.03784 3.56557 5.03784 3.88414V15.4207C5.03784 15.7393 5.2961 15.9975 5.61467 15.9975H8.49881C8.81739 15.9975 9.07564 15.7393 9.07564 15.4207V3.88414C9.07564 3.56557 8.81739 3.30731 8.49881 3.30731Z" stroke="white" stroke-width="1.2" stroke-linecap="round" stroke-linejoin="round"/>
<path d="M12.3596 2.99141L10.1213 3.55155C9.8123 3.62889 9.62446 3.94212 9.7018 4.25116L12.5025 15.4426C12.5799 15.7516 12.8931 15.9395 13.2021 15.8621L15.4404 15.302C15.7495 15.2247 15.9373 14.9114 15.86 14.6024L13.0592 3.41095C12.9819 3.1019 12.6687 2.91407 12.3596 2.99141Z" stroke="white" stroke-width="1.2" stroke-linecap="round" stroke-linejoin="round"/>
<path d="M1 11.9597H5.0378" stroke="white" stroke-width="1.2" stroke-linecap="round" stroke-linejoin="round"/>
<path d="M5.03784 10.8061H9.07564" stroke="white" stroke-width="1.2" stroke-linecap="round" stroke-linejoin="round"/>
<path d="M11.9597 13.1134L15.2822 12.2828" stroke="white" stroke-width="1.2" stroke-linecap="round" stroke-linejoin="round"/>
</svg>
