<svg width="17" height="17" viewBox="0 0 17 17" fill="none" xmlns="http://www.w3.org/2000/svg">
<path d="M3.59615 11.0961C5.02997 11.0961 6.19231 9.93378 6.19231 8.49996C6.19231 7.06615 5.02997 5.90381 3.59615 5.90381C2.16234 5.90381 1 7.06615 1 8.49996C1 9.93378 2.16234 11.0961 3.59615 11.0961Z" stroke="white" stroke-width="1.5" stroke-linecap="round" stroke-linejoin="round"/>
<path d="M13.4038 16C14.8376 16 15.9999 14.8377 15.9999 13.4039C15.9999 11.9701 14.8376 10.8077 13.4038 10.8077C11.97 10.8077 10.8076 11.9701 10.8076 13.4039C10.8076 14.8377 11.97 16 13.4038 16Z" stroke="white" stroke-width="1.5" stroke-linecap="round" stroke-linejoin="round"/>
<path d="M13.4038 6.19231C14.8376 6.19231 15.9999 5.02997 15.9999 3.59615C15.9999 2.16234 14.8376 1 13.4038 1C11.97 1 10.8076 2.16234 10.8076 3.59615C10.8076 5.02997 11.97 6.19231 13.4038 6.19231Z" stroke="white" stroke-width="1.5" stroke-linecap="round" stroke-linejoin="round"/>
<path d="M5.91528 7.34615L11.0845 4.75" stroke="white" stroke-width="1.5" stroke-linecap="round" stroke-linejoin="round"/>
<path d="M5.91528 9.65381L11.0845 12.25" stroke="white" stroke-width="1.5" stroke-linecap="round" stroke-linejoin="round"/>
</svg>
