<svg width="17" height="14" viewBox="0 0 17 14" fill="none" xmlns="http://www.w3.org/2000/svg">
<path d="M13.6923 1H3.30769C2.03319 1 1 2.03319 1 3.30769V10.2308C1 11.5053 2.03319 12.5385 3.30769 12.5385H13.6923C14.9668 12.5385 16 11.5053 16 10.2308V3.30769C16 2.03319 14.9668 1 13.6923 1Z" stroke="white" stroke-width="1.2" stroke-linecap="round" stroke-linejoin="round"/>
<path d="M6.55 9.44611V4.59996C6.54759 4.51814 6.56754 4.43722 6.60771 4.3659C6.64788 4.29458 6.70674 4.23556 6.77795 4.19521C6.84916 4.15485 6.93003 4.13469 7.01186 4.13688C7.09368 4.13907 7.17336 4.16354 7.24231 4.20765L11.3962 6.63073C11.4656 6.67145 11.5231 6.72961 11.5631 6.79944C11.6031 6.86927 11.6241 6.94834 11.6241 7.0288C11.6241 7.10927 11.6031 7.18834 11.5631 7.25817C11.5231 7.328 11.4656 7.38616 11.3962 7.42688L7.24231 9.84996C7.17184 9.89065 7.09187 9.91198 7.0105 9.9118C6.92913 9.91162 6.84925 9.88993 6.77896 9.84893C6.70868 9.80793 6.65048 9.74908 6.61027 9.67834C6.57006 9.60759 6.54927 9.52748 6.55 9.44611V9.44611Z" stroke="white" stroke-width="1.2" stroke-linecap="round" stroke-linejoin="round"/>
</svg>
