<svg width="17" height="17" viewBox="0 0 17 17" fill="none" xmlns="http://www.w3.org/2000/svg">
<path d="M3.30769 16H2.15385C1.84783 16 1.55434 15.8784 1.33795 15.662C1.12157 15.4456 1 15.1521 1 14.8461V5.61536H16V14.8461C16 15.1521 15.8784 15.4456 15.662 15.662C15.4457 15.8784 15.1522 16 14.8462 16H13.6923" stroke="white" stroke-width="1.5" stroke-linecap="round" stroke-linejoin="round"/>
<path d="M5.61523 13.1154L8.49985 16L11.3845 13.1154" stroke="white" stroke-width="1.5" stroke-linecap="round" stroke-linejoin="round"/>
<path d="M8.5 16V9.0769" stroke="white" stroke-width="1.5" stroke-linecap="round" stroke-linejoin="round"/>
<path d="M13.45 1.57692C13.3513 1.40585 13.2104 1.26297 13.0407 1.16196C12.871 1.06094 12.6782 1.00518 12.4808 1H4.51923C4.32181 1.00518 4.12902 1.06094 3.95932 1.16196C3.78961 1.26297 3.64868 1.40585 3.55 1.57692L1 5.61539H16L13.45 1.57692Z" stroke="white" stroke-width="1.5" stroke-linecap="round" stroke-linejoin="round"/>
<path d="M8.5 1V5.61539" stroke="white" stroke-width="1.5" stroke-linecap="round" stroke-linejoin="round"/>
</svg>
