<svg width="19" height="19" viewBox="0 0 19 19" fill="none" xmlns="http://www.w3.org/2000/svg">
<mask id="path-1-outside-1_199_155" maskUnits="userSpaceOnUse" x="0" y="-0.501495" width="19" height="20" fill="black">
<rect fill="white" y="-0.501495" width="19" height="20"/>
<path d="M8.29254 0.551237C7.96861 0.668003 7.76145 0.890232 7.68235 1.20663C7.65598 1.30456 7.34335 3.0598 6.98176 5.10884C6.3904 8.47619 6.31884 8.83402 6.25104 8.86039C6.2096 8.87545 6.04764 8.92819 5.89321 8.97339C5.32068 9.14288 4.59749 9.59488 3.96094 10.1825C3.49388 10.6156 3.23775 10.9509 2.92888 11.5385C2.33752 12.6647 1.87423 13.3992 1.34691 14.0508C0.974011 14.5103 0.966477 14.5254 1.03051 15.1657C1.15104 16.4049 1.5616 17.4031 2.22076 18.0735C2.53339 18.3899 2.73679 18.518 2.86862 18.4841C2.92888 18.469 3.16241 18.2732 3.42608 18.017L3.87807 17.5726L4.2472 17.5123C5.70111 17.2599 7.17009 16.3484 8.16071 15.0715C8.34904 14.8267 8.6805 14.3483 8.69934 14.2956C8.7031 14.2805 12.0818 14.887 12.1006 14.9058C12.1307 14.9359 11.9989 15.2599 11.8181 15.6026C11.5281 16.145 11.0271 16.8644 10.3679 17.6818C10.0252 18.1074 9.98752 18.2167 10.1231 18.3749L10.2173 18.4841L10.7597 18.4954C12.1948 18.5293 14.9594 18.2807 15.7052 18.0472C16.1083 17.9229 16.3192 17.8023 16.3493 17.6856C16.3644 17.6291 16.3456 17.4746 16.3079 17.3277C16.2589 17.1432 16.2476 16.9774 16.2589 16.7175L16.274 16.3635L16.8428 15.2373C18.0631 12.8304 18.5151 11.7042 18.4586 11.2258C18.4134 10.8077 18.1837 10.5139 17.4605 9.94517C17.0311 9.60241 16.21 9.03365 15.7693 8.76999C15.5772 8.65322 15.5395 8.61556 15.5546 8.54776C15.5659 8.50256 15.8032 7.16165 16.0819 5.5646C16.4322 3.5683 16.5829 2.62288 16.5678 2.53248C16.5113 2.23115 16.2476 1.90722 15.984 1.82059C15.8484 1.77915 15.3813 1.69252 11.1627 0.954266C9.74269 0.701902 8.5449 0.498505 8.50724 0.498505C8.46957 0.502272 8.37164 0.524872 8.29254 0.551237ZM12.0592 1.72265C14.0027 2.06165 15.6563 2.35921 15.7316 2.38181C15.8258 2.40818 15.8936 2.45714 15.9275 2.52871C15.9802 2.62664 15.9501 2.82251 15.5433 5.12767L15.1026 7.62494L15.0574 7.26334C15.0046 6.83395 14.8916 6.39702 14.7673 6.15596C14.6581 5.94126 14.3493 5.6437 14.1308 5.54577C13.8031 5.3951 13.3624 5.47797 13.1515 5.73033C13.0121 5.89983 12.9895 6.06556 13.0648 6.48365C13.0987 6.68329 13.1251 6.90928 13.1251 6.98838C13.1251 7.11645 13.1176 7.12775 13.0422 7.10891C12.771 7.04488 8.22851 6.26143 8.13058 6.26143C7.89328 6.26143 7.87068 6.32922 7.65222 7.57221C7.54298 8.19746 7.44505 8.71726 7.43375 8.72856C7.42245 8.73986 7.30569 8.75869 7.17762 8.77376L6.94033 8.79636L6.96293 8.68712C6.97423 8.62686 7.27179 6.94695 7.62208 4.95818C7.97238 2.96564 8.27747 1.29703 8.30384 1.25559C8.32644 1.21039 8.38294 1.15766 8.42814 1.13883C8.47334 1.12 8.51477 1.10493 8.51854 1.10493C8.51854 1.10116 10.1118 1.37989 12.0592 1.72265ZM13.9425 6.13336C14.1157 6.21623 14.2287 6.37819 14.3229 6.67575C14.5188 7.27841 14.5263 7.9451 14.353 8.52139C14.1911 9.04872 14.1647 9.24835 14.2099 9.57605C14.2664 9.98284 14.3869 10.2766 14.5753 10.4763C14.7636 10.6721 14.9142 10.6985 15.0649 10.5554C15.1779 10.4461 15.1854 10.3105 15.08 10.1599C14.854 9.82464 14.805 9.68151 14.8012 9.34251C14.8012 9.16172 14.8201 8.99599 14.8389 8.97715C14.8653 8.95079 15.0235 9.02612 15.3286 9.21068C16.6205 9.99414 17.6149 10.7625 17.8145 11.1354C17.8786 11.2522 17.8823 11.2936 17.8447 11.4707C17.743 11.9528 17.2495 13.0828 16.3832 14.8116C15.6676 16.2354 15.6337 16.3371 15.6563 16.9963L15.6676 17.4257L15.4981 17.4746C14.8427 17.6667 13.2758 17.8249 11.5318 17.8739C11.1024 17.889 11.0158 17.8814 11.0309 17.84C11.0422 17.8099 11.2004 17.5876 11.3849 17.3428C12.1533 16.3258 12.5676 15.5951 12.7183 14.9849C12.7936 14.6873 12.7974 14.6233 12.756 14.3596C12.7334 14.1977 12.6279 13.8022 12.5262 13.4858C12.2475 12.6383 12.2098 12.4311 12.2098 11.8172C12.2098 11.256 12.255 10.9697 12.432 10.4499C12.5601 10.0657 12.8916 9.37265 13.1402 8.97339C13.5093 8.38579 13.6826 7.84717 13.7165 7.18048C13.7315 6.86032 13.724 6.69459 13.675 6.47235C13.6374 6.31039 13.6185 6.15596 13.6298 6.12583C13.6562 6.05426 13.7805 6.05803 13.9425 6.13336ZM8.9291 6.99591L9.27186 7.05995L9.20029 7.45921C9.16263 7.68144 9.12496 7.88107 9.11743 7.90367C9.10613 7.93003 8.96676 7.91873 8.67297 7.86977C8.43944 7.82834 8.24358 7.79067 8.23604 7.7869C8.23228 7.78314 8.25864 7.58727 8.30384 7.35374C8.34527 7.11645 8.37917 6.92058 8.37917 6.90928C8.37917 6.90175 8.42437 6.90552 8.48464 6.91682C8.54114 6.92812 8.74077 6.96578 8.9291 6.99591ZM10.1344 7.20308C10.7634 7.31608 10.7597 7.31231 10.7371 7.42154C10.7258 7.47804 10.6919 7.67767 10.658 7.866L10.5977 8.205L10.157 8.12967C9.91595 8.08447 9.72009 8.03173 9.72385 8.0129C9.75022 7.76807 9.86322 7.16541 9.88582 7.16541C9.89712 7.16541 10.0101 7.18425 10.1344 7.20308ZM11.8181 7.50064C12.0215 7.53831 12.1948 7.57974 12.2098 7.59104C12.2211 7.60611 12.1985 7.80197 12.1609 8.03173C12.1081 8.34813 12.078 8.44606 12.0328 8.44606C11.8595 8.44983 11.2041 8.31046 11.2041 8.2728C11.2041 8.2276 11.3021 7.68144 11.336 7.51194C11.3586 7.41401 11.3473 7.41401 11.8181 7.50064ZM13.0121 7.76054C13.0121 7.85847 12.884 8.2163 12.7899 8.39333L12.707 8.54023L12.7296 8.3519C12.7409 8.24643 12.7673 8.0581 12.7899 7.92627C12.8275 7.71534 12.8388 7.69274 12.9217 7.69274C12.9857 7.69274 13.0121 7.71534 13.0121 7.76054ZM8.97806 8.54399C9.0082 8.55153 9.02326 8.56659 9.01573 8.57413C8.98936 8.60049 8.11174 8.68336 8.09291 8.66076C8.08161 8.64946 8.08538 8.58543 8.09668 8.51386L8.12304 8.38203L8.5223 8.45359C8.74453 8.49126 8.94793 8.53269 8.97806 8.54399ZM10.4809 8.80389C10.496 8.81519 10.3453 9.65514 10.3265 9.67774C10.3152 9.68904 9.69372 9.58735 9.59579 9.55721C9.56189 9.54591 9.56189 9.51578 9.60332 9.43668C9.67112 9.30862 9.67489 9.04119 9.61462 8.87545C9.53552 8.64946 9.56566 8.63816 10.044 8.72102C10.2775 8.76246 10.4734 8.80012 10.4809 8.80389ZM11.5808 8.99222C11.7767 9.02612 11.9462 9.06002 11.9537 9.06755C11.9763 9.09015 11.8369 9.91504 11.8106 9.93011C11.7842 9.94517 10.9706 9.80958 10.948 9.78697C10.9367 9.77191 10.9819 9.47435 11.0572 9.09392C11.0874 8.93572 11.11 8.89805 11.1589 8.91312C11.1928 8.92442 11.3849 8.95832 11.5808 8.99222ZM9.0195 9.23328C9.0195 9.32368 8.7483 9.65138 8.5449 9.80581C8.23604 10.0356 7.85561 10.19 7.29439 10.3068C6.75576 10.416 6.47327 10.5516 6.19454 10.8266C5.97984 11.0375 5.87061 11.2296 5.83294 11.4518C5.81411 11.5799 5.82918 11.6401 5.94217 11.8398C6.1418 12.2014 6.2096 12.4537 6.2096 12.7965C6.2096 13.1355 6.13804 13.3879 5.96477 13.6628C5.79528 13.9303 5.78774 14.0319 5.92334 14.1713C5.98737 14.2316 6.07024 14.2843 6.11167 14.2843C6.2096 14.2843 6.39417 14.1299 6.4921 13.9679L6.5712 13.8436L7.29062 14.0056C7.68612 14.0922 8.01758 14.1751 8.02888 14.1864C8.06654 14.2203 7.62585 14.7966 7.27932 15.1695C6.3339 16.1752 5.20768 16.7703 3.8969 16.9586L3.57674 17.0076L3.17748 17.3955L2.78199 17.7873L2.64639 17.6441C2.31869 17.2976 2.0249 16.8004 1.86293 16.3183C1.7763 16.0471 1.652 15.3427 1.62563 14.9548L1.6068 14.6986L1.93826 14.2692C2.54469 13.4745 3.01552 12.7212 3.50141 11.7644C3.73494 11.3087 3.79144 11.2258 4.13797 10.868C4.76699 10.2126 5.56175 9.67774 6.13804 9.51955C6.26234 9.48565 6.92526 9.40278 7.60702 9.33121C9.0534 9.18808 9.0195 9.18808 9.0195 9.23328ZM10.5261 10.3331C11.1363 10.4424 11.6524 10.5441 11.6712 10.5591C11.7164 10.6006 11.577 11.4217 11.5281 11.4217C11.4188 11.4255 9.26056 11.03 9.23043 11.0036C9.18523 10.9622 9.32083 10.141 9.37356 10.141C9.39616 10.141 9.91218 10.2277 10.5261 10.3331ZM8.6353 10.6759C8.61647 10.7851 8.59387 10.8831 8.58634 10.8906C8.5788 10.8981 8.42437 10.8793 8.24734 10.8529C8.07031 10.8266 7.93848 10.7964 7.95355 10.7814C7.96861 10.7701 8.10798 10.7098 8.25864 10.6495C8.40931 10.5893 8.54114 10.529 8.55244 10.5102C8.56374 10.4951 8.59387 10.48 8.62024 10.48C8.66167 10.48 8.66167 10.5215 8.6353 10.6759ZM7.21152 11.256C7.26426 11.2823 8.23981 11.4631 9.37733 11.6627C10.5186 11.8624 11.4866 12.0319 11.5356 12.0432C11.6034 12.0582 11.6185 12.0884 11.6185 12.2089C11.6185 12.4575 11.7277 12.9509 11.9236 13.58C12.0253 13.9114 12.1081 14.2052 12.1081 14.2353C12.1081 14.2692 12.078 14.2805 12.0253 14.2655C11.9763 14.2542 11.5921 14.1864 11.1665 14.1148C10.7408 14.0395 10.3679 13.9717 10.3378 13.9604C10.3039 13.9453 10.3529 13.919 10.4583 13.8926C11.238 13.6854 11.4753 12.676 10.8727 12.1298C10.6542 11.9339 10.432 11.8586 10.1156 11.8812C9.55436 11.9226 9.17393 12.3332 9.17016 12.8907C9.17016 13.2711 9.33966 13.5649 9.69749 13.8097L9.79165 13.8738L9.69749 13.8549C9.64476 13.8436 9.31706 13.7834 8.963 13.7193C8.27747 13.595 6.86876 13.3088 6.82733 13.2824C6.81603 13.2749 6.80473 13.0828 6.80473 12.8605C6.80473 12.4123 6.74446 12.1185 6.5712 11.7343C6.48833 11.5573 6.4695 11.4707 6.4921 11.4104C6.5373 11.2974 6.7068 11.1467 6.89136 11.0526L7.04203 10.9772L7.07969 11.094C7.09852 11.1618 7.15879 11.2334 7.21152 11.256ZM10.4207 12.627C10.6316 12.789 10.6504 13.0978 10.4583 13.2786C10.1683 13.5536 9.73515 13.3577 9.73515 12.9509C9.73515 12.8379 9.76152 12.7814 9.86322 12.6797C9.97245 12.5705 10.0176 12.5517 10.1608 12.5517C10.27 12.5517 10.3604 12.578 10.4207 12.627Z"/>
</mask>
<path d="M8.29254 0.551237C7.96861 0.668003 7.76145 0.890232 7.68235 1.20663C7.65598 1.30456 7.34335 3.0598 6.98176 5.10884C6.3904 8.47619 6.31884 8.83402 6.25104 8.86039C6.2096 8.87545 6.04764 8.92819 5.89321 8.97339C5.32068 9.14288 4.59749 9.59488 3.96094 10.1825C3.49388 10.6156 3.23775 10.9509 2.92888 11.5385C2.33752 12.6647 1.87423 13.3992 1.34691 14.0508C0.974011 14.5103 0.966477 14.5254 1.03051 15.1657C1.15104 16.4049 1.5616 17.4031 2.22076 18.0735C2.53339 18.3899 2.73679 18.518 2.86862 18.4841C2.92888 18.469 3.16241 18.2732 3.42608 18.017L3.87807 17.5726L4.2472 17.5123C5.70111 17.2599 7.17009 16.3484 8.16071 15.0715C8.34904 14.8267 8.6805 14.3483 8.69934 14.2956C8.7031 14.2805 12.0818 14.887 12.1006 14.9058C12.1307 14.9359 11.9989 15.2599 11.8181 15.6026C11.5281 16.145 11.0271 16.8644 10.3679 17.6818C10.0252 18.1074 9.98752 18.2167 10.1231 18.3749L10.2173 18.4841L10.7597 18.4954C12.1948 18.5293 14.9594 18.2807 15.7052 18.0472C16.1083 17.9229 16.3192 17.8023 16.3493 17.6856C16.3644 17.6291 16.3456 17.4746 16.3079 17.3277C16.2589 17.1432 16.2476 16.9774 16.2589 16.7175L16.274 16.3635L16.8428 15.2373C18.0631 12.8304 18.5151 11.7042 18.4586 11.2258C18.4134 10.8077 18.1837 10.5139 17.4605 9.94517C17.0311 9.60241 16.21 9.03365 15.7693 8.76999C15.5772 8.65322 15.5395 8.61556 15.5546 8.54776C15.5659 8.50256 15.8032 7.16165 16.0819 5.5646C16.4322 3.5683 16.5829 2.62288 16.5678 2.53248C16.5113 2.23115 16.2476 1.90722 15.984 1.82059C15.8484 1.77915 15.3813 1.69252 11.1627 0.954266C9.74269 0.701902 8.5449 0.498505 8.50724 0.498505C8.46957 0.502272 8.37164 0.524872 8.29254 0.551237ZM12.0592 1.72265C14.0027 2.06165 15.6563 2.35921 15.7316 2.38181C15.8258 2.40818 15.8936 2.45714 15.9275 2.52871C15.9802 2.62664 15.9501 2.82251 15.5433 5.12767L15.1026 7.62494L15.0574 7.26334C15.0046 6.83395 14.8916 6.39702 14.7673 6.15596C14.6581 5.94126 14.3493 5.6437 14.1308 5.54577C13.8031 5.3951 13.3624 5.47797 13.1515 5.73033C13.0121 5.89983 12.9895 6.06556 13.0648 6.48365C13.0987 6.68329 13.1251 6.90928 13.1251 6.98838C13.1251 7.11645 13.1176 7.12775 13.0422 7.10891C12.771 7.04488 8.22851 6.26143 8.13058 6.26143C7.89328 6.26143 7.87068 6.32922 7.65222 7.57221C7.54298 8.19746 7.44505 8.71726 7.43375 8.72856C7.42245 8.73986 7.30569 8.75869 7.17762 8.77376L6.94033 8.79636L6.96293 8.68712C6.97423 8.62686 7.27179 6.94695 7.62208 4.95818C7.97238 2.96564 8.27747 1.29703 8.30384 1.25559C8.32644 1.21039 8.38294 1.15766 8.42814 1.13883C8.47334 1.12 8.51477 1.10493 8.51854 1.10493C8.51854 1.10116 10.1118 1.37989 12.0592 1.72265ZM13.9425 6.13336C14.1157 6.21623 14.2287 6.37819 14.3229 6.67575C14.5188 7.27841 14.5263 7.9451 14.353 8.52139C14.1911 9.04872 14.1647 9.24835 14.2099 9.57605C14.2664 9.98284 14.3869 10.2766 14.5753 10.4763C14.7636 10.6721 14.9142 10.6985 15.0649 10.5554C15.1779 10.4461 15.1854 10.3105 15.08 10.1599C14.854 9.82464 14.805 9.68151 14.8012 9.34251C14.8012 9.16172 14.8201 8.99599 14.8389 8.97715C14.8653 8.95079 15.0235 9.02612 15.3286 9.21068C16.6205 9.99414 17.6149 10.7625 17.8145 11.1354C17.8786 11.2522 17.8823 11.2936 17.8447 11.4707C17.743 11.9528 17.2495 13.0828 16.3832 14.8116C15.6676 16.2354 15.6337 16.3371 15.6563 16.9963L15.6676 17.4257L15.4981 17.4746C14.8427 17.6667 13.2758 17.8249 11.5318 17.8739C11.1024 17.889 11.0158 17.8814 11.0309 17.84C11.0422 17.8099 11.2004 17.5876 11.3849 17.3428C12.1533 16.3258 12.5676 15.5951 12.7183 14.9849C12.7936 14.6873 12.7974 14.6233 12.756 14.3596C12.7334 14.1977 12.6279 13.8022 12.5262 13.4858C12.2475 12.6383 12.2098 12.4311 12.2098 11.8172C12.2098 11.256 12.255 10.9697 12.432 10.4499C12.5601 10.0657 12.8916 9.37265 13.1402 8.97339C13.5093 8.38579 13.6826 7.84717 13.7165 7.18048C13.7315 6.86032 13.724 6.69459 13.675 6.47235C13.6374 6.31039 13.6185 6.15596 13.6298 6.12583C13.6562 6.05426 13.7805 6.05803 13.9425 6.13336ZM8.9291 6.99591L9.27186 7.05995L9.20029 7.45921C9.16263 7.68144 9.12496 7.88107 9.11743 7.90367C9.10613 7.93003 8.96676 7.91873 8.67297 7.86977C8.43944 7.82834 8.24358 7.79067 8.23604 7.7869C8.23228 7.78314 8.25864 7.58727 8.30384 7.35374C8.34527 7.11645 8.37917 6.92058 8.37917 6.90928C8.37917 6.90175 8.42437 6.90552 8.48464 6.91682C8.54114 6.92812 8.74077 6.96578 8.9291 6.99591ZM10.1344 7.20308C10.7634 7.31608 10.7597 7.31231 10.7371 7.42154C10.7258 7.47804 10.6919 7.67767 10.658 7.866L10.5977 8.205L10.157 8.12967C9.91595 8.08447 9.72009 8.03173 9.72385 8.0129C9.75022 7.76807 9.86322 7.16541 9.88582 7.16541C9.89712 7.16541 10.0101 7.18425 10.1344 7.20308ZM11.8181 7.50064C12.0215 7.53831 12.1948 7.57974 12.2098 7.59104C12.2211 7.60611 12.1985 7.80197 12.1609 8.03173C12.1081 8.34813 12.078 8.44606 12.0328 8.44606C11.8595 8.44983 11.2041 8.31046 11.2041 8.2728C11.2041 8.2276 11.3021 7.68144 11.336 7.51194C11.3586 7.41401 11.3473 7.41401 11.8181 7.50064ZM13.0121 7.76054C13.0121 7.85847 12.884 8.2163 12.7899 8.39333L12.707 8.54023L12.7296 8.3519C12.7409 8.24643 12.7673 8.0581 12.7899 7.92627C12.8275 7.71534 12.8388 7.69274 12.9217 7.69274C12.9857 7.69274 13.0121 7.71534 13.0121 7.76054ZM8.97806 8.54399C9.0082 8.55153 9.02326 8.56659 9.01573 8.57413C8.98936 8.60049 8.11174 8.68336 8.09291 8.66076C8.08161 8.64946 8.08538 8.58543 8.09668 8.51386L8.12304 8.38203L8.5223 8.45359C8.74453 8.49126 8.94793 8.53269 8.97806 8.54399ZM10.4809 8.80389C10.496 8.81519 10.3453 9.65514 10.3265 9.67774C10.3152 9.68904 9.69372 9.58735 9.59579 9.55721C9.56189 9.54591 9.56189 9.51578 9.60332 9.43668C9.67112 9.30862 9.67489 9.04119 9.61462 8.87545C9.53552 8.64946 9.56566 8.63816 10.044 8.72102C10.2775 8.76246 10.4734 8.80012 10.4809 8.80389ZM11.5808 8.99222C11.7767 9.02612 11.9462 9.06002 11.9537 9.06755C11.9763 9.09015 11.8369 9.91504 11.8106 9.93011C11.7842 9.94517 10.9706 9.80958 10.948 9.78697C10.9367 9.77191 10.9819 9.47435 11.0572 9.09392C11.0874 8.93572 11.11 8.89805 11.1589 8.91312C11.1928 8.92442 11.3849 8.95832 11.5808 8.99222ZM9.0195 9.23328C9.0195 9.32368 8.7483 9.65138 8.5449 9.80581C8.23604 10.0356 7.85561 10.19 7.29439 10.3068C6.75576 10.416 6.47327 10.5516 6.19454 10.8266C5.97984 11.0375 5.87061 11.2296 5.83294 11.4518C5.81411 11.5799 5.82918 11.6401 5.94217 11.8398C6.1418 12.2014 6.2096 12.4537 6.2096 12.7965C6.2096 13.1355 6.13804 13.3879 5.96477 13.6628C5.79528 13.9303 5.78774 14.0319 5.92334 14.1713C5.98737 14.2316 6.07024 14.2843 6.11167 14.2843C6.2096 14.2843 6.39417 14.1299 6.4921 13.9679L6.5712 13.8436L7.29062 14.0056C7.68612 14.0922 8.01758 14.1751 8.02888 14.1864C8.06654 14.2203 7.62585 14.7966 7.27932 15.1695C6.3339 16.1752 5.20768 16.7703 3.8969 16.9586L3.57674 17.0076L3.17748 17.3955L2.78199 17.7873L2.64639 17.6441C2.31869 17.2976 2.0249 16.8004 1.86293 16.3183C1.7763 16.0471 1.652 15.3427 1.62563 14.9548L1.6068 14.6986L1.93826 14.2692C2.54469 13.4745 3.01552 12.7212 3.50141 11.7644C3.73494 11.3087 3.79144 11.2258 4.13797 10.868C4.76699 10.2126 5.56175 9.67774 6.13804 9.51955C6.26234 9.48565 6.92526 9.40278 7.60702 9.33121C9.0534 9.18808 9.0195 9.18808 9.0195 9.23328ZM10.5261 10.3331C11.1363 10.4424 11.6524 10.5441 11.6712 10.5591C11.7164 10.6006 11.577 11.4217 11.5281 11.4217C11.4188 11.4255 9.26056 11.03 9.23043 11.0036C9.18523 10.9622 9.32083 10.141 9.37356 10.141C9.39616 10.141 9.91218 10.2277 10.5261 10.3331ZM8.6353 10.6759C8.61647 10.7851 8.59387 10.8831 8.58634 10.8906C8.5788 10.8981 8.42437 10.8793 8.24734 10.8529C8.07031 10.8266 7.93848 10.7964 7.95355 10.7814C7.96861 10.7701 8.10798 10.7098 8.25864 10.6495C8.40931 10.5893 8.54114 10.529 8.55244 10.5102C8.56374 10.4951 8.59387 10.48 8.62024 10.48C8.66167 10.48 8.66167 10.5215 8.6353 10.6759ZM7.21152 11.256C7.26426 11.2823 8.23981 11.4631 9.37733 11.6627C10.5186 11.8624 11.4866 12.0319 11.5356 12.0432C11.6034 12.0582 11.6185 12.0884 11.6185 12.2089C11.6185 12.4575 11.7277 12.9509 11.9236 13.58C12.0253 13.9114 12.1081 14.2052 12.1081 14.2353C12.1081 14.2692 12.078 14.2805 12.0253 14.2655C11.9763 14.2542 11.5921 14.1864 11.1665 14.1148C10.7408 14.0395 10.3679 13.9717 10.3378 13.9604C10.3039 13.9453 10.3529 13.919 10.4583 13.8926C11.238 13.6854 11.4753 12.676 10.8727 12.1298C10.6542 11.9339 10.432 11.8586 10.1156 11.8812C9.55436 11.9226 9.17393 12.3332 9.17016 12.8907C9.17016 13.2711 9.33966 13.5649 9.69749 13.8097L9.79165 13.8738L9.69749 13.8549C9.64476 13.8436 9.31706 13.7834 8.963 13.7193C8.27747 13.595 6.86876 13.3088 6.82733 13.2824C6.81603 13.2749 6.80473 13.0828 6.80473 12.8605C6.80473 12.4123 6.74446 12.1185 6.5712 11.7343C6.48833 11.5573 6.4695 11.4707 6.4921 11.4104C6.5373 11.2974 6.7068 11.1467 6.89136 11.0526L7.04203 10.9772L7.07969 11.094C7.09852 11.1618 7.15879 11.2334 7.21152 11.256ZM10.4207 12.627C10.6316 12.789 10.6504 13.0978 10.4583 13.2786C10.1683 13.5536 9.73515 13.3577 9.73515 12.9509C9.73515 12.8379 9.76152 12.7814 9.86322 12.6797C9.97245 12.5705 10.0176 12.5517 10.1608 12.5517C10.27 12.5517 10.3604 12.578 10.4207 12.627Z" fill="white"/>
<path d="M8.29254 0.551237C7.96861 0.668003 7.76145 0.890232 7.68235 1.20663C7.65598 1.30456 7.34335 3.0598 6.98176 5.10884C6.3904 8.47619 6.31884 8.83402 6.25104 8.86039C6.2096 8.87545 6.04764 8.92819 5.89321 8.97339C5.32068 9.14288 4.59749 9.59488 3.96094 10.1825C3.49388 10.6156 3.23775 10.9509 2.92888 11.5385C2.33752 12.6647 1.87423 13.3992 1.34691 14.0508C0.974011 14.5103 0.966477 14.5254 1.03051 15.1657C1.15104 16.4049 1.5616 17.4031 2.22076 18.0735C2.53339 18.3899 2.73679 18.518 2.86862 18.4841C2.92888 18.469 3.16241 18.2732 3.42608 18.017L3.87807 17.5726L4.2472 17.5123C5.70111 17.2599 7.17009 16.3484 8.16071 15.0715C8.34904 14.8267 8.6805 14.3483 8.69934 14.2956C8.7031 14.2805 12.0818 14.887 12.1006 14.9058C12.1307 14.9359 11.9989 15.2599 11.8181 15.6026C11.5281 16.145 11.0271 16.8644 10.3679 17.6818C10.0252 18.1074 9.98752 18.2167 10.1231 18.3749L10.2173 18.4841L10.7597 18.4954C12.1948 18.5293 14.9594 18.2807 15.7052 18.0472C16.1083 17.9229 16.3192 17.8023 16.3493 17.6856C16.3644 17.6291 16.3456 17.4746 16.3079 17.3277C16.2589 17.1432 16.2476 16.9774 16.2589 16.7175L16.274 16.3635L16.8428 15.2373C18.0631 12.8304 18.5151 11.7042 18.4586 11.2258C18.4134 10.8077 18.1837 10.5139 17.4605 9.94517C17.0311 9.60241 16.21 9.03365 15.7693 8.76999C15.5772 8.65322 15.5395 8.61556 15.5546 8.54776C15.5659 8.50256 15.8032 7.16165 16.0819 5.5646C16.4322 3.5683 16.5829 2.62288 16.5678 2.53248C16.5113 2.23115 16.2476 1.90722 15.984 1.82059C15.8484 1.77915 15.3813 1.69252 11.1627 0.954266C9.74269 0.701902 8.5449 0.498505 8.50724 0.498505C8.46957 0.502272 8.37164 0.524872 8.29254 0.551237ZM12.0592 1.72265C14.0027 2.06165 15.6563 2.35921 15.7316 2.38181C15.8258 2.40818 15.8936 2.45714 15.9275 2.52871C15.9802 2.62664 15.9501 2.82251 15.5433 5.12767L15.1026 7.62494L15.0574 7.26334C15.0046 6.83395 14.8916 6.39702 14.7673 6.15596C14.6581 5.94126 14.3493 5.6437 14.1308 5.54577C13.8031 5.3951 13.3624 5.47797 13.1515 5.73033C13.0121 5.89983 12.9895 6.06556 13.0648 6.48365C13.0987 6.68329 13.1251 6.90928 13.1251 6.98838C13.1251 7.11645 13.1176 7.12775 13.0422 7.10891C12.771 7.04488 8.22851 6.26143 8.13058 6.26143C7.89328 6.26143 7.87068 6.32922 7.65222 7.57221C7.54298 8.19746 7.44505 8.71726 7.43375 8.72856C7.42245 8.73986 7.30569 8.75869 7.17762 8.77376L6.94033 8.79636L6.96293 8.68712C6.97423 8.62686 7.27179 6.94695 7.62208 4.95818C7.97238 2.96564 8.27747 1.29703 8.30384 1.25559C8.32644 1.21039 8.38294 1.15766 8.42814 1.13883C8.47334 1.12 8.51477 1.10493 8.51854 1.10493C8.51854 1.10116 10.1118 1.37989 12.0592 1.72265ZM13.9425 6.13336C14.1157 6.21623 14.2287 6.37819 14.3229 6.67575C14.5188 7.27841 14.5263 7.9451 14.353 8.52139C14.1911 9.04872 14.1647 9.24835 14.2099 9.57605C14.2664 9.98284 14.3869 10.2766 14.5753 10.4763C14.7636 10.6721 14.9142 10.6985 15.0649 10.5554C15.1779 10.4461 15.1854 10.3105 15.08 10.1599C14.854 9.82464 14.805 9.68151 14.8012 9.34251C14.8012 9.16172 14.8201 8.99599 14.8389 8.97715C14.8653 8.95079 15.0235 9.02612 15.3286 9.21068C16.6205 9.99414 17.6149 10.7625 17.8145 11.1354C17.8786 11.2522 17.8823 11.2936 17.8447 11.4707C17.743 11.9528 17.2495 13.0828 16.3832 14.8116C15.6676 16.2354 15.6337 16.3371 15.6563 16.9963L15.6676 17.4257L15.4981 17.4746C14.8427 17.6667 13.2758 17.8249 11.5318 17.8739C11.1024 17.889 11.0158 17.8814 11.0309 17.84C11.0422 17.8099 11.2004 17.5876 11.3849 17.3428C12.1533 16.3258 12.5676 15.5951 12.7183 14.9849C12.7936 14.6873 12.7974 14.6233 12.756 14.3596C12.7334 14.1977 12.6279 13.8022 12.5262 13.4858C12.2475 12.6383 12.2098 12.4311 12.2098 11.8172C12.2098 11.256 12.255 10.9697 12.432 10.4499C12.5601 10.0657 12.8916 9.37265 13.1402 8.97339C13.5093 8.38579 13.6826 7.84717 13.7165 7.18048C13.7315 6.86032 13.724 6.69459 13.675 6.47235C13.6374 6.31039 13.6185 6.15596 13.6298 6.12583C13.6562 6.05426 13.7805 6.05803 13.9425 6.13336ZM8.9291 6.99591L9.27186 7.05995L9.20029 7.45921C9.16263 7.68144 9.12496 7.88107 9.11743 7.90367C9.10613 7.93003 8.96676 7.91873 8.67297 7.86977C8.43944 7.82834 8.24358 7.79067 8.23604 7.7869C8.23228 7.78314 8.25864 7.58727 8.30384 7.35374C8.34527 7.11645 8.37917 6.92058 8.37917 6.90928C8.37917 6.90175 8.42437 6.90552 8.48464 6.91682C8.54114 6.92812 8.74077 6.96578 8.9291 6.99591ZM10.1344 7.20308C10.7634 7.31608 10.7597 7.31231 10.7371 7.42154C10.7258 7.47804 10.6919 7.67767 10.658 7.866L10.5977 8.205L10.157 8.12967C9.91595 8.08447 9.72009 8.03173 9.72385 8.0129C9.75022 7.76807 9.86322 7.16541 9.88582 7.16541C9.89712 7.16541 10.0101 7.18425 10.1344 7.20308ZM11.8181 7.50064C12.0215 7.53831 12.1948 7.57974 12.2098 7.59104C12.2211 7.60611 12.1985 7.80197 12.1609 8.03173C12.1081 8.34813 12.078 8.44606 12.0328 8.44606C11.8595 8.44983 11.2041 8.31046 11.2041 8.2728C11.2041 8.2276 11.3021 7.68144 11.336 7.51194C11.3586 7.41401 11.3473 7.41401 11.8181 7.50064ZM13.0121 7.76054C13.0121 7.85847 12.884 8.2163 12.7899 8.39333L12.707 8.54023L12.7296 8.3519C12.7409 8.24643 12.7673 8.0581 12.7899 7.92627C12.8275 7.71534 12.8388 7.69274 12.9217 7.69274C12.9857 7.69274 13.0121 7.71534 13.0121 7.76054ZM8.97806 8.54399C9.0082 8.55153 9.02326 8.56659 9.01573 8.57413C8.98936 8.60049 8.11174 8.68336 8.09291 8.66076C8.08161 8.64946 8.08538 8.58543 8.09668 8.51386L8.12304 8.38203L8.5223 8.45359C8.74453 8.49126 8.94793 8.53269 8.97806 8.54399ZM10.4809 8.80389C10.496 8.81519 10.3453 9.65514 10.3265 9.67774C10.3152 9.68904 9.69372 9.58735 9.59579 9.55721C9.56189 9.54591 9.56189 9.51578 9.60332 9.43668C9.67112 9.30862 9.67489 9.04119 9.61462 8.87545C9.53552 8.64946 9.56566 8.63816 10.044 8.72102C10.2775 8.76246 10.4734 8.80012 10.4809 8.80389ZM11.5808 8.99222C11.7767 9.02612 11.9462 9.06002 11.9537 9.06755C11.9763 9.09015 11.8369 9.91504 11.8106 9.93011C11.7842 9.94517 10.9706 9.80958 10.948 9.78697C10.9367 9.77191 10.9819 9.47435 11.0572 9.09392C11.0874 8.93572 11.11 8.89805 11.1589 8.91312C11.1928 8.92442 11.3849 8.95832 11.5808 8.99222ZM9.0195 9.23328C9.0195 9.32368 8.7483 9.65138 8.5449 9.80581C8.23604 10.0356 7.85561 10.19 7.29439 10.3068C6.75576 10.416 6.47327 10.5516 6.19454 10.8266C5.97984 11.0375 5.87061 11.2296 5.83294 11.4518C5.81411 11.5799 5.82918 11.6401 5.94217 11.8398C6.1418 12.2014 6.2096 12.4537 6.2096 12.7965C6.2096 13.1355 6.13804 13.3879 5.96477 13.6628C5.79528 13.9303 5.78774 14.0319 5.92334 14.1713C5.98737 14.2316 6.07024 14.2843 6.11167 14.2843C6.2096 14.2843 6.39417 14.1299 6.4921 13.9679L6.5712 13.8436L7.29062 14.0056C7.68612 14.0922 8.01758 14.1751 8.02888 14.1864C8.06654 14.2203 7.62585 14.7966 7.27932 15.1695C6.3339 16.1752 5.20768 16.7703 3.8969 16.9586L3.57674 17.0076L3.17748 17.3955L2.78199 17.7873L2.64639 17.6441C2.31869 17.2976 2.0249 16.8004 1.86293 16.3183C1.7763 16.0471 1.652 15.3427 1.62563 14.9548L1.6068 14.6986L1.93826 14.2692C2.54469 13.4745 3.01552 12.7212 3.50141 11.7644C3.73494 11.3087 3.79144 11.2258 4.13797 10.868C4.76699 10.2126 5.56175 9.67774 6.13804 9.51955C6.26234 9.48565 6.92526 9.40278 7.60702 9.33121C9.0534 9.18808 9.0195 9.18808 9.0195 9.23328ZM10.5261 10.3331C11.1363 10.4424 11.6524 10.5441 11.6712 10.5591C11.7164 10.6006 11.577 11.4217 11.5281 11.4217C11.4188 11.4255 9.26056 11.03 9.23043 11.0036C9.18523 10.9622 9.32083 10.141 9.37356 10.141C9.39616 10.141 9.91218 10.2277 10.5261 10.3331ZM8.6353 10.6759C8.61647 10.7851 8.59387 10.8831 8.58634 10.8906C8.5788 10.8981 8.42437 10.8793 8.24734 10.8529C8.07031 10.8266 7.93848 10.7964 7.95355 10.7814C7.96861 10.7701 8.10798 10.7098 8.25864 10.6495C8.40931 10.5893 8.54114 10.529 8.55244 10.5102C8.56374 10.4951 8.59387 10.48 8.62024 10.48C8.66167 10.48 8.66167 10.5215 8.6353 10.6759ZM7.21152 11.256C7.26426 11.2823 8.23981 11.4631 9.37733 11.6627C10.5186 11.8624 11.4866 12.0319 11.5356 12.0432C11.6034 12.0582 11.6185 12.0884 11.6185 12.2089C11.6185 12.4575 11.7277 12.9509 11.9236 13.58C12.0253 13.9114 12.1081 14.2052 12.1081 14.2353C12.1081 14.2692 12.078 14.2805 12.0253 14.2655C11.9763 14.2542 11.5921 14.1864 11.1665 14.1148C10.7408 14.0395 10.3679 13.9717 10.3378 13.9604C10.3039 13.9453 10.3529 13.919 10.4583 13.8926C11.238 13.6854 11.4753 12.676 10.8727 12.1298C10.6542 11.9339 10.432 11.8586 10.1156 11.8812C9.55436 11.9226 9.17393 12.3332 9.17016 12.8907C9.17016 13.2711 9.33966 13.5649 9.69749 13.8097L9.79165 13.8738L9.69749 13.8549C9.64476 13.8436 9.31706 13.7834 8.963 13.7193C8.27747 13.595 6.86876 13.3088 6.82733 13.2824C6.81603 13.2749 6.80473 13.0828 6.80473 12.8605C6.80473 12.4123 6.74446 12.1185 6.5712 11.7343C6.48833 11.5573 6.4695 11.4707 6.4921 11.4104C6.5373 11.2974 6.7068 11.1467 6.89136 11.0526L7.04203 10.9772L7.07969 11.094C7.09852 11.1618 7.15879 11.2334 7.21152 11.256ZM10.4207 12.627C10.6316 12.789 10.6504 13.0978 10.4583 13.2786C10.1683 13.5536 9.73515 13.3577 9.73515 12.9509C9.73515 12.8379 9.76152 12.7814 9.86322 12.6797C9.97245 12.5705 10.0176 12.5517 10.1608 12.5517C10.27 12.5517 10.3604 12.578 10.4207 12.627Z" stroke="white" stroke-width="0.2" mask="url(#path-1-outside-1_199_155)"/>
</svg>
